<svg xmlns="http://www.w3.org/2000/svg" xmlns:xlink="http://www.w3.org/1999/xlink" version="1.1" class="marks" width="514" height="358" viewBox="0 0 514 358"><rect width="514" height="358" fill="white"/><g fill="none" stroke-miterlimit="10" transform="translate(54,6)"><g class="mark-group role-frame root" role="graphics-object" aria-roledescription="group mark container"><g transform="translate(0,0)"><path class="background" aria-hidden="true" d="M0,0h450v0h-450Z"/><g><g class="mark-group role-scope concat_0_group" role="graphics-object" aria-roledescription="group mark container"><g transform="translate(0,0)"><path class="background" aria-hidden="true" d="M0.5,0.5h450v200h-450Z" stroke="#ddd"/><g><g class="mark-group role-axis" aria-hidden="true"><g transform="translate(0.5,200.5)"><path class="background" aria-hidden="true" d="M0,0h0v0h0Z" pointer-events="none"/><g><g class="mark-rule role-axis-grid" pointer-events="none"><line transform="translate(28,-200)" x2="0" y2="200" stroke="#ddd" stroke-width="1" opacity="1"/><line transform="translate(84,-200)" x2="0" y2="200" stroke="#ddd" stroke-width="1" opacity="1"/><line transform="translate(140,-200)" x2="0" y2="200" stroke="#ddd" stroke-width="1" opacity="1"/><line transform="translate(197,-200)" x2="0" y2="200" stroke="#ddd" stroke-width="1" opacity="1"/><line transform="translate(253,-200)" x2="0" y2="200" stroke="#ddd" stroke-width="1" opacity="1"/><line transform="translate(309,-200)" x2="0" y2="200" stroke="#ddd" stroke-width="1" opacity="1"/><line transform="translate(365,-200)" x2="0" y2="200" stroke="#ddd" stroke-width="1" opacity="1"/><line transform="translate(421,-200)" x2="0" y2="200" stroke="#ddd" stroke-width="1" opacity="1"/></g></g><path class="foreground" aria-hidden="true" d="" pointer-events="none" display="none"/></g></g><g class="mark-group role-axis" aria-hidden="true"><g transform="translate(0.5,0.5)"><path class="background" aria-hidden="true" d="M0,0h0v0h0Z" pointer-events="none"/><g><g class="mark-rule role-axis-grid" pointer-events="none"><line transform="translate(0,200)" x2="450" y2="0" stroke="#ddd" stroke-width="1" opacity="1"/><line transform="translate(0,138)" x2="450" y2="0" stroke="#ddd" stroke-width="1" opacity="1"/><line transform="translate(0,75)" x2="450" y2="0" stroke="#ddd" stroke-width="1" opacity="1"/><line transform="translate(0,13)" x2="450" y2="0" stroke="#ddd" stroke-width="1" opacity="1"/></g></g><path class="foreground" aria-hidden="true" d="" pointer-events="none" display="none"/></g></g><g class="mark-group role-axis" role="graphics-symbol" aria-roledescription="axis" aria-label="X-axis titled 'date' for a time scale with values from Friday, 16 November 2007, 6:53:36 AM to Monday, 16 November 2009, 6:53:36 AM"><g transform="translate(0.5,200.5)"><path class="background" aria-hidden="true" d="M0,0h0v0h0Z" pointer-events="none"/><g><g class="mark-rule role-axis-tick" pointer-events="none"><line transform="translate(28,0)" x2="0" y2="5" stroke="#888" stroke-width="1" opacity="1"/><line transform="translate(84,0)" x2="0" y2="5" stroke="#888" stroke-width="1" opacity="1"/><line transform="translate(140,0)" x2="0" y2="5" stroke="#888" stroke-width="1" opacity="1"/><line transform="translate(197,0)" x2="0" y2="5" stroke="#888" stroke-width="1" opacity="1"/><line transform="translate(253,0)" x2="0" y2="5" stroke="#888" stroke-width="1" opacity="1"/><line transform="translate(309,0)" x2="0" y2="5" stroke="#888" stroke-width="1" opacity="1"/><line transform="translate(365,0)" x2="0" y2="5" stroke="#888" stroke-width="1" opacity="1"/><line transform="translate(421,0)" x2="0" y2="5" stroke="#888" stroke-width="1" opacity="1"/></g><g class="mark-text role-axis-label" pointer-events="none"><text text-anchor="middle" transform="translate(28.140560875512996,15)" font-family="sans-serif" font-size="10px" fill="#000" opacity="1">2008</text><text text-anchor="middle" transform="translate(84.13406292749659,15)" font-family="sans-serif" font-size="10px" fill="#000" opacity="1">April</text><text text-anchor="middle" transform="translate(140.15321477428182,15)" font-family="sans-serif" font-size="10px" fill="#000" opacity="1">July</text><text text-anchor="middle" transform="translate(196.78796169630644,15)" font-family="sans-serif" font-size="10px" fill="#000" opacity="1">October</text><text text-anchor="middle" transform="translate(253.4483584131327,15)" font-family="sans-serif" font-size="10px" fill="#000" opacity="1">2009</text><text text-anchor="middle" transform="translate(308.8262653898769,15)" font-family="sans-serif" font-size="10px" fill="#000" opacity="1">April</text><text text-anchor="middle" transform="translate(364.8454172366621,15)" font-family="sans-serif" font-size="10px" fill="#000" opacity="1">July</text><text text-anchor="middle" transform="translate(421.48016415868676,15)" font-family="sans-serif" font-size="10px" fill="#000" opacity="1">October</text></g><g class="mark-rule role-axis-domain" pointer-events="none"><line transform="translate(0,0)" x2="450" y2="0" stroke="#888" stroke-width="1" opacity="1"/></g><g class="mark-text role-axis-title" pointer-events="none"><text text-anchor="middle" transform="translate(225,30)" font-family="sans-serif" font-size="11px" font-weight="bold" fill="#000" opacity="1">date</text></g></g><path class="foreground" aria-hidden="true" d="" pointer-events="none" display="none"/></g></g><g class="mark-group role-axis" role="graphics-symbol" aria-roledescription="axis" aria-label="Y-axis titled 'price' for a linear scale with values from 0 to 1,600"><g transform="translate(0.5,0.5)"><path class="background" aria-hidden="true" d="M0,0h0v0h0Z" pointer-events="none"/><g><g class="mark-rule role-axis-tick" pointer-events="none"><line transform="translate(0,200)" x2="-5" y2="0" stroke="#888" stroke-width="1" opacity="1"/><line transform="translate(0,138)" x2="-5" y2="0" stroke="#888" stroke-width="1" opacity="1"/><line transform="translate(0,75)" x2="-5" y2="0" stroke="#888" stroke-width="1" opacity="1"/><line transform="translate(0,13)" x2="-5" y2="0" stroke="#888" stroke-width="1" opacity="1"/></g><g class="mark-text role-axis-label" pointer-events="none"><text text-anchor="end" transform="translate(-7,203)" font-family="sans-serif" font-size="10px" fill="#000" opacity="1">0</text><text text-anchor="end" transform="translate(-7,140.5)" font-family="sans-serif" font-size="10px" fill="#000" opacity="1">500</text><text text-anchor="end" transform="translate(-7,78)" font-family="sans-serif" font-size="10px" fill="#000" opacity="1">1,000</text><text text-anchor="end" transform="translate(-7,15.5)" font-family="sans-serif" font-size="10px" fill="#000" opacity="1">1,500</text></g><g class="mark-rule role-axis-domain" pointer-events="none"><line transform="translate(0,200)" x2="0" y2="-200" stroke="#888" stroke-width="1" opacity="1"/></g><g class="mark-text role-axis-title" pointer-events="none"><text text-anchor="middle" transform="translate(-36.0244140625,100) rotate(-90) translate(0,-2)" font-family="sans-serif" font-size="11px" font-weight="bold" fill="#000" opacity="1">price</text></g></g><path class="foreground" aria-hidden="true" d="" pointer-events="none" display="none"/></g></g><g class="mark-area role-mark concat_0_marks" clip-path="url(#clip1)" role="graphics-object" aria-roledescription="area mark container" pointer-events="none"><path aria-label="date: Jan 01, 2000; price: 1394.46" role="graphics-symbol" aria-roledescription="area mark" d="M-1770.628,25.692L-1751.545,29.197L-1733.693,12.678L-1714.635,18.446L-1696.167,22.425L-1677.083,18.175L-1658.616,21.146L-1639.532,10.29L-1620.449,20.436L-1601.981,21.325L-1582.872,35.631L-1564.404,34.965L-1545.32,29.249L-1526.237,45.008L-1509,54.959L-1489.943,43.817L-1471.475,43.023L-1452.391,46.953L-1433.923,48.596L-1414.84,58.303L-1395.756,69.883L-1377.289,67.528L-1358.18,57.569L-1339.712,56.49L-1320.628,58.725L-1301.545,61.659L-1284.308,56.576L-1265.25,65.385L-1246.782,66.608L-1227.699,76.273L-1209.231,86.048L-1190.148,85.491L-1171.064,98.09L-1152.596,89.28L-1133.487,82.961L-1115.019,90.022L-1095.936,93.038L-1076.853,94.856L-1059.616,93.978L-1040.558,85.385L-1022.09,79.551L-1003.007,78.188L-984.539,76.211L-965.456,73.999L-946.372,75.504L-927.904,68.661L-908.795,67.725L-890.327,61.01L-871.244,58.609L-852.16,56.882L-834.308,59.224L-815.25,61.587L-796.782,59.915L-777.699,57.395L-759.231,62.285L-740.148,61.97L-721.064,60.678L-702.596,58.725L-683.487,53.273L-665.019,48.51L-645.936,52.341L-626.853,49.55L-609.616,52.426L-590.558,55.394L-572.09,51.063L-553.007,51.084L-534.539,45.727L-515.456,47.459L-496.372,46.399L-477.904,49.124L-458.795,43.815L-440.327,43.964L-421.244,39.99L-402.16,39.917L-384.924,38.141L-365.866,36.174L-347.398,41.239L-328.315,41.225L-309.847,40.418L-290.763,37.023L-271.68,33.019L-253.212,27.757L-234.103,24.921L-215.635,22.713L-196.552,20.22L-177.468,24.148L-160.232,22.393L-141.174,14.704L-122.706,8.673L-103.622,12.081L-85.155,18.091L-66.071,15.751L-46.988,9.156L-28.52,6.327L-9.411,14.857L9.057,16.455L28.141,27.681L47.224,33.671L65.076,34.662L84.134,26.801L102.602,24.952L121.685,40L140.153,41.577L159.237,39.646L178.32,54.205L196.788,78.906L215.897,87.97L234.365,87.094L253.448,96.765L272.532,108.114L289.768,100.266L308.826,90.899L327.294,85.108L346.378,85.085L364.845,76.565L383.929,72.422L403.012,67.865L421.48,70.476L440.589,63.046L459.057,60.613L478.141,65.766L497.224,61.939L514.461,57.444L514.461,200L497.224,200L478.141,200L459.057,200L440.589,200L421.48,200L403.012,200L383.929,200L364.845,200L346.378,200L327.294,200L308.826,200L289.768,200L272.532,200L253.448,200L234.365,200L215.897,200L196.788,200L178.32,200L159.237,200L140.153,200L121.685,200L102.602,200L84.134,200L65.076,200L47.224,200L28.141,200L9.057,200L-9.411,200L-28.52,200L-46.988,200L-66.071,200L-85.155,200L-103.622,200L-122.706,200L-141.174,200L-160.232,200L-177.468,200L-196.552,200L-215.635,200L-234.103,200L-253.212,200L-271.68,200L-290.763,200L-309.847,200L-328.315,200L-347.398,200L-365.866,200L-384.924,200L-402.16,200L-421.244,200L-440.327,200L-458.795,200L-477.904,200L-496.372,200L-515.456,200L-534.539,200L-553.007,200L-572.09,200L-590.558,200L-609.616,200L-626.853,200L-645.936,200L-665.019,200L-683.487,200L-702.596,200L-721.064,200L-740.148,200L-759.231,200L-777.699,200L-796.782,200L-815.25,200L-834.308,200L-852.16,200L-871.244,200L-890.327,200L-908.795,200L-927.904,200L-946.372,200L-965.456,200L-984.539,200L-1003.007,200L-1022.09,200L-1040.558,200L-1059.616,200L-1076.853,200L-1095.936,200L-1115.019,200L-1133.487,200L-1152.596,200L-1171.064,200L-1190.148,200L-1209.231,200L-1227.699,200L-1246.782,200L-1265.25,200L-1284.308,200L-1301.545,200L-1320.628,200L-1339.712,200L-1358.18,200L-1377.289,200L-1395.756,200L-1414.84,200L-1433.923,200L-1452.391,200L-1471.475,200L-1489.943,200L-1509,200L-1526.237,200L-1545.32,200L-1564.404,200L-1582.872,200L-1601.981,200L-1620.449,200L-1639.532,200L-1658.616,200L-1677.083,200L-1696.167,200L-1714.635,200L-1733.693,200L-1751.545,200L-1770.628,200Z" fill="#4c78a8"/></g></g><path class="foreground" aria-hidden="true" d="" display="none"/></g></g><g class="mark-group role-scope view_3_group" role="graphics-object" aria-roledescription="group mark container"><g transform="translate(0,254)"><path class="background" aria-hidden="true" d="M0.5,0.5h450v60h-450Z" stroke="#ddd"/><g><g class="mark-group role-axis" aria-hidden="true"><g transform="translate(0.5,60.5)"><path class="background" aria-hidden="true" d="M0,0h0v0h0Z" pointer-events="none"/><g><g class="mark-rule role-axis-grid" pointer-events="none"><line transform="translate(0,-60)" x2="0" y2="60" stroke="#ddd" stroke-width="1" opacity="1"/><line transform="translate(44,-60)" x2="0" y2="60" stroke="#ddd" stroke-width="1" opacity="1"/><line transform="translate(89,-60)" x2="0" y2="60" stroke="#ddd" stroke-width="1" opacity="1"/><line transform="translate(133,-60)" x2="0" y2="60" stroke="#ddd" stroke-width="1" opacity="1"/><line transform="translate(177,-60)" x2="0" y2="60" stroke="#ddd" stroke-width="1" opacity="1"/><line transform="translate(221,-60)" x2="0" y2="60" stroke="#ddd" stroke-width="1" opacity="1"/><line transform="translate(266,-60)" x2="0" y2="60" stroke="#ddd" stroke-width="1" opacity="1"/><line transform="translate(310,-60)" x2="0" y2="60" stroke="#ddd" stroke-width="1" opacity="1"/><line transform="translate(354,-60)" x2="0" y2="60" stroke="#ddd" stroke-width="1" opacity="1"/><line transform="translate(399,-60)" x2="0" y2="60" stroke="#ddd" stroke-width="1" opacity="1"/><line transform="translate(443,-60)" x2="0" y2="60" stroke="#ddd" stroke-width="1" opacity="1"/></g></g><path class="foreground" aria-hidden="true" d="" pointer-events="none" display="none"/></g></g><g class="mark-group role-axis" aria-hidden="true"><g transform="translate(0.5,0.5)"><path class="background" aria-hidden="true" d="M0,0h0v0h0Z" pointer-events="none"/><g><g class="mark-rule role-axis-grid" pointer-events="none"><line transform="translate(0,60)" x2="450" y2="0" stroke="#ddd" stroke-width="1" opacity="1"/><line transform="translate(0,23)" x2="450" y2="0" stroke="#ddd" stroke-width="1" opacity="1"/></g></g><path class="foreground" aria-hidden="true" d="" pointer-events="none" display="none"/></g></g><g class="mark-group role-axis" role="graphics-symbol" aria-roledescription="axis" aria-label="X-axis titled 'date' for a time scale with values from Saturday, 01 January 2000, 12:00:00 AM to Monday, 01 March 2010, 12:00:00 AM"><g transform="translate(0.5,60.5)"><path class="background" aria-hidden="true" d="M0,0h0v0h0Z" pointer-events="none"/><g><g class="mark-rule role-axis-tick" pointer-events="none"><line transform="translate(0,0)" x2="0" y2="5" stroke="#888" stroke-width="1" opacity="1"/><line transform="translate(44,0)" x2="0" y2="5" stroke="#888" stroke-width="1" opacity="1"/><line transform="translate(89,0)" x2="0" y2="5" stroke="#888" stroke-width="1" opacity="1"/><line transform="translate(133,0)" x2="0" y2="5" stroke="#888" stroke-width="1" opacity="1"/><line transform="translate(177,0)" x2="0" y2="5" stroke="#888" stroke-width="1" opacity="1"/><line transform="translate(221,0)" x2="0" y2="5" stroke="#888" stroke-width="1" opacity="1"/><line transform="translate(266,0)" x2="0" y2="5" stroke="#888" stroke-width="1" opacity="1"/><line transform="translate(310,0)" x2="0" y2="5" stroke="#888" stroke-width="1" opacity="1"/><line transform="translate(354,0)" x2="0" y2="5" stroke="#888" stroke-width="1" opacity="1"/><line transform="translate(399,0)" x2="0" y2="5" stroke="#888" stroke-width="1" opacity="1"/><line transform="translate(443,0)" x2="0" y2="5" stroke="#888" stroke-width="1" opacity="1"/></g><g class="mark-text role-axis-label" pointer-events="none"><text text-anchor="start" transform="translate(0,15)" font-family="sans-serif" font-size="10px" fill="#000" opacity="1">2000</text><text text-anchor="middle" transform="translate(44.36961206896552,15)" font-family="sans-serif" font-size="10px" fill="#000" opacity="1">2001</text><text text-anchor="middle" transform="translate(88.61799568965517,15)" font-family="sans-serif" font-size="10px" fill="#000" opacity="1">2002</text><text text-anchor="middle" transform="translate(132.86637931034483,15)" font-family="sans-serif" font-size="10px" fill="#000" opacity="1">2003</text><text text-anchor="middle" transform="translate(177.11476293103448,15)" font-family="sans-serif" font-size="10px" fill="#000" opacity="1">2004</text><text text-anchor="middle" transform="translate(221.484375,15)" font-family="sans-serif" font-size="10px" fill="#000" opacity="1">2005</text><text text-anchor="middle" transform="translate(265.73275862068965,15)" font-family="sans-serif" font-size="10px" fill="#000" opacity="1">2006</text><text text-anchor="middle" transform="translate(309.9811422413793,15)" font-family="sans-serif" font-size="10px" fill="#000" opacity="1">2007</text><text text-anchor="middle" transform="translate(354.22952586206895,15)" font-family="sans-serif" font-size="10px" fill="#000" opacity="1">2008</text><text text-anchor="middle" transform="translate(398.5991379310345,15)" font-family="sans-serif" font-size="10px" fill="#000" opacity="1">2009</text><text text-anchor="middle" transform="translate(442.8475215517242,15)" font-family="sans-serif" font-size="10px" fill="#000" opacity="1">2010</text></g><g class="mark-rule role-axis-domain" pointer-events="none"><line transform="translate(0,0)" x2="450" y2="0" stroke="#888" stroke-width="1" opacity="1"/></g><g class="mark-text role-axis-title" pointer-events="none"><text text-anchor="middle" transform="translate(225,30)" font-family="sans-serif" font-size="11px" font-weight="bold" fill="#000" opacity="1">date</text></g></g><path class="foreground" aria-hidden="true" d="" pointer-events="none" display="none"/></g></g><g class="mark-group role-axis" role="graphics-symbol" aria-roledescription="axis" aria-label="Y-axis titled 'price' for a linear scale with values from 0 to 1,600"><g transform="translate(0.5,0.5)"><path class="background" aria-hidden="true" d="M0,0h0v0h0Z" pointer-events="none"/><g><g class="mark-rule role-axis-tick" pointer-events="none"><line transform="translate(0,60)" x2="-5" y2="0" stroke="#888" stroke-width="1" opacity="1"/><line transform="translate(0,23)" x2="-5" y2="0" stroke="#888" stroke-width="1" opacity="1"/></g><g class="mark-text role-axis-label" pointer-events="none"><text text-anchor="end" transform="translate(-7,63)" font-family="sans-serif" font-size="10px" fill="#000" opacity="1">0</text><text text-anchor="end" transform="translate(-7,25.5)" font-family="sans-serif" font-size="10px" fill="#000" opacity="1">1,000</text></g><g class="mark-rule role-axis-domain" pointer-events="none"><line transform="translate(0,60)" x2="0" y2="-60" stroke="#888" stroke-width="1" opacity="1"/></g><g class="mark-text role-axis-title" pointer-events="none"><text text-anchor="middle" transform="translate(-36.0244140625,30) rotate(-90) translate(0,-2)" font-family="sans-serif" font-size="11px" font-weight="bold" fill="#000" opacity="1">price</text></g></g><path class="foreground" aria-hidden="true" d="" pointer-events="none" display="none"/></g></g><g class="mark-rect role-mark param_46_brush_bg" clip-path="url(#clip2)" role="graphics-symbol" aria-roledescription="rect mark container"><path d="M348.68783674568965,0h88.61799568965517v60h-88.61799568965517Z" fill="#333" fill-opacity="0.125"/></g><g class="mark-area role-mark view_3_marks" role="graphics-object" aria-roledescription="area mark container"><path aria-label="date: Jan 01, 2000; price: 1394.46" role="graphics-symbol" aria-roledescription="area mark" d="M0,7.708L3.758,8.759L7.274,3.803L11.027,5.534L14.664,6.728L18.422,5.453L22.059,6.344L25.817,3.087L29.575,6.131L33.212,6.397L36.975,10.689L40.612,10.49L44.37,8.775L48.128,13.502L51.522,16.488L55.275,13.145L58.912,12.907L62.67,14.086L66.307,14.579L70.065,17.491L73.823,20.965L77.46,20.258L81.223,17.271L84.86,16.947L88.618,17.618L92.376,18.498L95.77,16.973L99.524,19.615L103.16,19.982L106.918,22.882L110.555,25.814L114.313,25.647L118.071,29.427L121.708,26.784L125.471,24.888L129.108,27.007L132.866,27.911L136.624,28.457L140.019,28.193L143.772,25.616L147.409,23.865L151.167,23.456L154.804,22.863L158.562,22.2L162.32,22.651L165.957,20.598L169.72,20.317L173.357,18.303L177.115,17.583L180.873,17.065L184.388,17.767L188.142,18.476L191.778,17.974L195.536,17.219L199.173,18.685L202.931,18.591L206.689,18.203L210.326,17.618L214.089,15.982L217.726,14.553L221.484,15.702L225.242,14.865L228.637,15.728L232.39,16.618L236.027,15.319L239.785,15.325L243.422,13.718L247.18,14.238L250.938,13.92L254.575,14.737L258.338,13.145L261.975,13.189L265.733,11.997L269.491,11.975L272.885,11.442L276.638,10.852L280.275,12.372L284.033,12.368L287.67,12.125L291.428,11.107L295.186,9.906L298.823,8.327L302.586,7.476L306.223,6.814L309.981,6.066L313.739,7.244L317.134,6.718L320.887,4.411L324.524,2.602L328.282,3.624L331.918,5.427L335.677,4.725L339.435,2.747L343.071,1.898L346.835,4.457L350.471,4.937L354.23,8.304L357.988,10.101L361.503,10.399L365.256,8.04L368.893,7.486L372.651,12L376.288,12.473L380.046,11.894L383.804,16.262L387.441,23.672L391.204,26.391L394.841,26.128L398.599,29.03L402.357,32.434L405.752,30.08L409.505,27.27L413.142,25.532L416.9,25.525L420.536,22.969L424.295,21.727L428.053,20.36L431.689,21.143L435.453,18.914L439.089,18.184L442.848,19.73L446.606,18.582L450,17.233L450,60L446.606,60L442.848,60L439.089,60L435.453,60L431.689,60L428.053,60L424.295,60L420.536,60L416.9,60L413.142,60L409.505,60L405.752,60L402.357,60L398.599,60L394.841,60L391.204,60L387.441,60L383.804,60L380.046,60L376.288,60L372.651,60L368.893,60L365.256,60L361.503,60L357.988,60L354.23,60L350.471,60L346.835,60L343.071,60L339.435,60L335.677,60L331.918,60L328.282,60L324.524,60L320.887,60L317.134,60L313.739,60L309.981,60L306.223,60L302.586,60L298.823,60L295.186,60L291.428,60L287.67,60L284.033,60L280.275,60L276.638,60L272.885,60L269.491,60L265.733,60L261.975,60L258.338,60L254.575,60L250.938,60L247.18,60L243.422,60L239.785,60L236.027,60L232.39,60L228.637,60L225.242,60L221.484,60L217.726,60L214.089,60L210.326,60L206.689,60L202.931,60L199.173,60L195.536,60L191.778,60L188.142,60L184.388,60L180.873,60L177.115,60L173.357,60L169.72,60L165.957,60L162.32,60L158.562,60L154.804,60L151.167,60L147.409,60L143.772,60L140.019,60L136.624,60L132.866,60L129.108,60L125.471,60L121.708,60L118.071,60L114.313,60L110.555,60L106.918,60L103.16,60L99.524,60L95.77,60L92.376,60L88.618,60L84.86,60L81.223,60L77.46,60L73.823,60L70.065,60L66.307,60L62.67,60L58.912,60L55.275,60L51.522,60L48.128,60L44.37,60L40.612,60L36.975,60L33.212,60L29.575,60L25.817,60L22.059,60L18.422,60L14.664,60L11.027,60L7.274,60L3.758,60L0,60Z" fill="#4c78a8"/></g><g class="mark-rect role-mark param_46_brush" clip-path="url(#clip3)" role="graphics-symbol" aria-roledescription="rect mark container"><path d="M348.68783674568965,0h88.61799568965517v60h-88.61799568965517Z" stroke="white"/></g></g><path class="foreground" aria-hidden="true" d="" display="none"/></g></g></g><path class="foreground" aria-hidden="true" d="" display="none"/></g></g></g><defs><clipPath id="clip1"><rect x="0" y="0" width="450" height="200"/></clipPath><clipPath id="clip2"><rect x="0" y="0" width="450" height="60"/></clipPath><clipPath id="clip3"><rect x="0" y="0" width="450" height="60"/></clipPath></defs></svg>