<svg xmlns="http://www.w3.org/2000/svg" xmlns:xlink="http://www.w3.org/1999/xlink" version="1.1" class="marks" width="609" height="299" viewBox="0 0 609 299"><rect width="609" height="299" fill="white"/><g fill="none" stroke-miterlimit="10" transform="translate(40,11)"><g class="mark-group role-frame root" role="graphics-object" aria-roledescription="group mark container"><g transform="translate(0,0)"><path class="background" aria-hidden="true" d="M0,0h0v250h0Z"/><g><g class="mark-group role-scope view_7_group" role="graphics-object" aria-roledescription="group mark container"><g transform="translate(0,0)"><path class="background" aria-hidden="true" d="M0.5,0.5h250v250h-250Z" stroke="#ddd"/><g><g class="mark-group role-axis" aria-hidden="true"><g transform="translate(0.5,250.5)"><path class="background" aria-hidden="true" d="M0,0h0v0h0Z" pointer-events="none"/><g><g class="mark-rule role-axis-grid" pointer-events="none"><line transform="translate(0,-250)" x2="0" y2="250" stroke="#ddd" stroke-width="1" opacity="1"/><line transform="translate(36,-250)" x2="0" y2="250" stroke="#ddd" stroke-width="1" opacity="1"/><line transform="translate(71,-250)" x2="0" y2="250" stroke="#ddd" stroke-width="1" opacity="1"/><line transform="translate(107,-250)" x2="0" y2="250" stroke="#ddd" stroke-width="1" opacity="1"/><line transform="translate(143,-250)" x2="0" y2="250" stroke="#ddd" stroke-width="1" opacity="1"/><line transform="translate(179,-250)" x2="0" y2="250" stroke="#ddd" stroke-width="1" opacity="1"/><line transform="translate(214,-250)" x2="0" y2="250" stroke="#ddd" stroke-width="1" opacity="1"/><line transform="translate(250,-250)" x2="0" y2="250" stroke="#ddd" stroke-width="1" opacity="1"/></g></g><path class="foreground" aria-hidden="true" d="" pointer-events="none" display="none"/></g></g><g class="mark-group role-axis" aria-hidden="true"><g transform="translate(0.5,0.5)"><path class="background" aria-hidden="true" d="M0,0h0v0h0Z" pointer-events="none"/><g><g class="mark-rule role-axis-grid" pointer-events="none"><line transform="translate(0,250)" x2="250" y2="0" stroke="#ddd" stroke-width="1" opacity="1"/><line transform="translate(0,205)" x2="250" y2="0" stroke="#ddd" stroke-width="1" opacity="1"/><line transform="translate(0,159)" x2="250" y2="0" stroke="#ddd" stroke-width="1" opacity="1"/><line transform="translate(0,114)" x2="250" y2="0" stroke="#ddd" stroke-width="1" opacity="1"/><line transform="translate(0,68)" x2="250" y2="0" stroke="#ddd" stroke-width="1" opacity="1"/><line transform="translate(0,23)" x2="250" y2="0" stroke="#ddd" stroke-width="1" opacity="1"/></g></g><path class="foreground" aria-hidden="true" d="" pointer-events="none" display="none"/></g></g><g class="mark-group role-axis" role="graphics-symbol" aria-roledescription="axis" aria-label="X-axis titled 'Mean of x' for a linear scale with values from −1.0 to 2.5"><g transform="translate(0.5,250.5)"><path class="background" aria-hidden="true" d="M0,0h0v0h0Z" pointer-events="none"/><g><g class="mark-rule role-axis-tick" pointer-events="none"><line transform="translate(0,0)" x2="0" y2="5" stroke="#888" stroke-width="1" opacity="1"/><line transform="translate(36,0)" x2="0" y2="5" stroke="#888" stroke-width="1" opacity="1"/><line transform="translate(71,0)" x2="0" y2="5" stroke="#888" stroke-width="1" opacity="1"/><line transform="translate(107,0)" x2="0" y2="5" stroke="#888" stroke-width="1" opacity="1"/><line transform="translate(143,0)" x2="0" y2="5" stroke="#888" stroke-width="1" opacity="1"/><line transform="translate(179,0)" x2="0" y2="5" stroke="#888" stroke-width="1" opacity="1"/><line transform="translate(214,0)" x2="0" y2="5" stroke="#888" stroke-width="1" opacity="1"/><line transform="translate(250,0)" x2="0" y2="5" stroke="#888" stroke-width="1" opacity="1"/></g><g class="mark-text role-axis-label" pointer-events="none"><text text-anchor="start" transform="translate(0,15)" font-family="sans-serif" font-size="10px" fill="#000" opacity="1">−1.0</text><text text-anchor="middle" transform="translate(35.714285714285715,15)" font-family="sans-serif" font-size="10px" fill="#000" opacity="1">−0.5</text><text text-anchor="middle" transform="translate(71.42857142857143,15)" font-family="sans-serif" font-size="10px" fill="#000" opacity="1">0.0</text><text text-anchor="middle" transform="translate(107.14285714285714,15)" font-family="sans-serif" font-size="10px" fill="#000" opacity="1">0.5</text><text text-anchor="middle" transform="translate(142.85714285714286,15)" font-family="sans-serif" font-size="10px" fill="#000" opacity="1">1.0</text><text text-anchor="middle" transform="translate(178.57142857142858,15)" font-family="sans-serif" font-size="10px" fill="#000" opacity="1">1.5</text><text text-anchor="middle" transform="translate(214.28571428571428,15)" font-family="sans-serif" font-size="10px" fill="#000" opacity="1">2.0</text><text text-anchor="end" transform="translate(250,15)" font-family="sans-serif" font-size="10px" fill="#000" opacity="1">2.5</text></g><g class="mark-rule role-axis-domain" pointer-events="none"><line transform="translate(0,0)" x2="250" y2="0" stroke="#888" stroke-width="1" opacity="1"/></g><g class="mark-text role-axis-title" pointer-events="none"><text text-anchor="middle" transform="translate(125,30)" font-family="sans-serif" font-size="11px" font-weight="bold" fill="#000" opacity="1">Mean of x</text></g></g><path class="foreground" aria-hidden="true" d="" pointer-events="none" display="none"/></g></g><g class="mark-group role-axis" role="graphics-symbol" aria-roledescription="axis" aria-label="Y-axis titled 'Mean of y' for a linear scale with values from −3 to 3"><g transform="translate(0.5,0.5)"><path class="background" aria-hidden="true" d="M0,0h0v0h0Z" pointer-events="none"/><g><g class="mark-rule role-axis-tick" pointer-events="none"><line transform="translate(0,250)" x2="-5" y2="0" stroke="#888" stroke-width="1" opacity="1"/><line transform="translate(0,205)" x2="-5" y2="0" stroke="#888" stroke-width="1" opacity="1"/><line transform="translate(0,159)" x2="-5" y2="0" stroke="#888" stroke-width="1" opacity="1"/><line transform="translate(0,114)" x2="-5" y2="0" stroke="#888" stroke-width="1" opacity="1"/><line transform="translate(0,68)" x2="-5" y2="0" stroke="#888" stroke-width="1" opacity="1"/><line transform="translate(0,23)" x2="-5" y2="0" stroke="#888" stroke-width="1" opacity="1"/></g><g class="mark-text role-axis-label" pointer-events="none"><text text-anchor="end" transform="translate(-7,253)" font-family="sans-serif" font-size="10px" fill="#000" opacity="1">−3</text><text text-anchor="end" transform="translate(-7,207.54545454545453)" font-family="sans-serif" font-size="10px" fill="#000" opacity="1">−2</text><text text-anchor="end" transform="translate(-7,162.0909090909091)" font-family="sans-serif" font-size="10px" fill="#000" opacity="1">−1</text><text text-anchor="end" transform="translate(-7,116.63636363636364)" font-family="sans-serif" font-size="10px" fill="#000" opacity="1">0</text><text text-anchor="end" transform="translate(-7,71.18181818181817)" font-family="sans-serif" font-size="10px" fill="#000" opacity="1">1</text><text text-anchor="end" transform="translate(-7,25.727272727272734)" font-family="sans-serif" font-size="10px" fill="#000" opacity="1">2</text></g><g class="mark-rule role-axis-domain" pointer-events="none"><line transform="translate(0,250)" x2="0" y2="-250" stroke="#888" stroke-width="1" opacity="1"/></g><g class="mark-text role-axis-title" pointer-events="none"><text text-anchor="middle" transform="translate(-22.4013671875,125) rotate(-90) translate(0,-2)" font-family="sans-serif" font-size="11px" font-weight="bold" fill="#000" opacity="1">Mean of y</text></g></g><path class="foreground" aria-hidden="true" d="" pointer-events="none" display="none"/></g></g><g class="mark-symbol role-mark view_7_marks" role="graphics-object" aria-roledescription="symbol mark container"><path aria-label="Mean of x: 1.76405234597; Mean of y: −2.55298981583; id: 0" role="graphics-symbol" aria-roledescription="point" transform="translate(197.4323104262617,229.6813552651854)" d="M7.071,0A7.071,7.071,0,1,1,-7.071,0A7.071,7.071,0,1,1,7.071,0" fill="rgb(199, 221, 239)" stroke-width="2"/><path aria-label="Mean of x: 0.400157208367; Mean of y: 0.65361859544; id: 1" role="graphics-symbol" aria-roledescription="point" transform="translate(100.01122916908737,83.9264274799836)" d="M7.071,0A7.071,7.071,0,1,1,-7.071,0A7.071,7.071,0,1,1,7.071,0" fill="rgb(191, 216, 236)" stroke-width="2"/><path aria-label="Mean of x: 0.978737984106; Mean of y: 0.86443619886; id: 2" role="graphics-symbol" aria-roledescription="point" transform="translate(141.33842743612425,74.34380914274973)" d="M7.071,0A7.071,7.071,0,1,1,-7.071,0A7.071,7.071,0,1,1,7.071,0" fill="rgb(181, 212, 233)" stroke-width="2"/><path aria-label="Mean of x: 2.2408931992; Mean of y: −0.742165020406; id: 3" role="graphics-symbol" aria-roledescription="point" transform="translate(231.4923713715327,147.37113729120188)" d="M7.071,0A7.071,7.071,0,1,1,-7.071,0A7.071,7.071,0,1,1,7.071,0" fill="rgb(170, 207, 230)" stroke-width="2"/><path aria-label="Mean of x: 1.86755799015; Mean of y: 2.26975462399; id: 4" role="graphics-symbol" aria-roledescription="point" transform="translate(204.82557072499768,10.465698909654208)" d="M7.071,0A7.071,7.071,0,1,1,-7.071,0A7.071,7.071,0,1,1,7.071,0" fill="rgb(158, 201, 226)" stroke-width="2"/><path aria-label="Mean of x: −0.977277879876; Mean of y: −1.4543656746; id: 5" role="graphics-symbol" aria-roledescription="point" transform="translate(1.623008580256356,179.74389429994386)" d="M7.071,0A7.071,7.071,0,1,1,-7.071,0A7.071,7.071,0,1,1,7.071,0" fill="rgb(147, 195, 223)" stroke-width="2"/><path aria-label="Mean of x: 0.950088417526; Mean of y: 0.0457585173014; id: 6" role="graphics-symbol" aria-roledescription="point" transform="translate(139.29202982325637,111.55643103175247)" d="M7.071,0A7.071,7.071,0,1,1,-7.071,0A7.071,7.071,0,1,1,7.071,0" fill="rgb(134, 188, 220)" stroke-width="2"/><path aria-label="Mean of x: −0.151357208298; Mean of y: −0.187183850026; id: 7" role="graphics-symbol" aria-roledescription="point" transform="translate(60.617342264450144,122.14472045571972)" d="M7.071,0A7.071,7.071,0,1,1,-7.071,0A7.071,7.071,0,1,1,7.071,0" fill="rgb(121, 181, 216)" stroke-width="2"/><path aria-label="Mean of x: −0.103218851794; Mean of y: 1.53277921436; id: 8" role="graphics-symbol" aria-roledescription="point" transform="translate(64.05579630046016,43.96458116552465)" d="M7.071,0A7.071,7.071,0,1,1,-7.071,0A7.071,7.071,0,1,1,7.071,0" fill="rgb(109, 174, 213)" stroke-width="2"/><path aria-label="Mean of x: 0.410598501938; Mean of y: 1.4693587699; id: 9" role="graphics-symbol" aria-roledescription="point" transform="translate(100.75703585274088,46.84732864089611)" d="M7.071,0A7.071,7.071,0,1,1,-7.071,0A7.071,7.071,0,1,1,7.071,0" fill="rgb(97, 167, 209)" stroke-width="2"/><path aria-label="Mean of x: 0.144043571161; Mean of y: 0.154947425697; id: 10" role="graphics-symbol" aria-roledescription="point" transform="translate(81.71739794006272,106.59329883195834)" d="M7.071,0A7.071,7.071,0,1,1,-7.071,0A7.071,7.071,0,1,1,7.071,0" fill="rgb(86, 159, 205)" stroke-width="2"/><path aria-label="Mean of x: 1.45427350696; Mean of y: 0.378162519602; id: 11" role="graphics-symbol" aria-roledescription="point" transform="translate(175.3052504973554,96.44715819990121)" d="M7.071,0A7.071,7.071,0,1,1,-7.071,0A7.071,7.071,0,1,1,7.071,0" fill="rgb(75, 151, 201)" stroke-width="2"/><path aria-label="Mean of x: 0.761037725147; Mean of y: −0.88778574763; id: 12" role="graphics-symbol" aria-roledescription="point" transform="translate(125.78840893907098,153.9902612559142)" d="M7.071,0A7.071,7.071,0,1,1,-7.071,0A7.071,7.071,0,1,1,7.071,0" fill="rgb(65, 143, 196)" stroke-width="2"/><path aria-label="Mean of x: 0.121675016493; Mean of y: −1.98079646822; id: 13" role="graphics-symbol" aria-roledescription="point" transform="translate(80.11964403520203,203.6725667374512)" d="M7.071,0A7.071,7.071,0,1,1,-7.071,0A7.071,7.071,0,1,1,7.071,0" fill="rgb(56, 135, 192)" stroke-width="2"/><path aria-label="Mean of x: 0.443863232745; Mean of y: −0.347912149326; id: 14" role="graphics-symbol" aria-roledescription="point" transform="translate(103.13308805324469,129.45055224209784)" d="M7.071,0A7.071,7.071,0,1,1,-7.071,0A7.071,7.071,0,1,1,7.071,0" fill="rgb(47, 126, 187)" stroke-width="2"/><path aria-label="Mean of x: 0.333674327374; Mean of y: 0.156348969104; id: 15" role="graphics-symbol" aria-roledescription="point" transform="translate(95.26245195530478,106.52959231345547)" d="M7.071,0A7.071,7.071,0,1,1,-7.071,0A7.071,7.071,0,1,1,7.071,0" fill="rgb(38, 118, 182)" stroke-width="2"/><path aria-label="Mean of x: 1.49407907316; Mean of y: 1.23029068073; id: 16" role="graphics-symbol" aria-roledescription="point" transform="translate(178.14850522554332,57.7140599669218)" d="M7.071,0A7.071,7.071,0,1,1,-7.071,0A7.071,7.071,0,1,1,7.071,0" fill="rgb(31, 109, 177)" stroke-width="2"/><path aria-label="Mean of x: −0.205158263766; Mean of y: 1.20237984878; id: 17" role="graphics-symbol" aria-roledescription="point" transform="translate(56.77440973101422,58.98273414616312)" d="M7.071,0A7.071,7.071,0,1,1,-7.071,0A7.071,7.071,0,1,1,7.071,0" fill="rgb(24, 100, 170)" stroke-width="2"/><path aria-label="Mean of x: 0.313067701651; Mean of y: −0.387326817408; id: 18" role="graphics-symbol" aria-roledescription="point" transform="translate(93.79055011792153,131.24212806399782)" d="M7.071,0A7.071,7.071,0,1,1,-7.071,0A7.071,7.071,0,1,1,7.071,0" fill="rgb(18, 91, 163)" stroke-width="2"/><path aria-label="Mean of x: −0.854095739302; Mean of y: −0.302302750575; id: 19" role="graphics-symbol" aria-roledescription="point" transform="translate(10.421732907019658,127.37739775342435)" d="M7.071,0A7.071,7.071,0,1,1,-7.071,0A7.071,7.071,0,1,1,7.071,0" fill="rgb(14, 83, 154)" stroke-width="2"/></g></g><path class="foreground" aria-hidden="true" d="" display="none"/></g></g><g class="mark-group role-scope view_8_group" role="graphics-object" aria-roledescription="group mark container"><g transform="translate(312,0)"><path class="background" aria-hidden="true" d="M0.5,0.5h250v250h-250Z" stroke="#ddd"/><g><g class="mark-group role-axis" aria-hidden="true"><g transform="translate(0.5,250.5)"><path class="background" aria-hidden="true" d="M0,0h0v0h0Z" pointer-events="none"/><g><g class="mark-rule role-axis-grid" pointer-events="none"><line transform="translate(0,-250)" x2="0" y2="250" stroke="#ddd" stroke-width="1" opacity="1"/><line transform="translate(50,-250)" x2="0" y2="250" stroke="#ddd" stroke-width="1" opacity="1"/><line transform="translate(100,-250)" x2="0" y2="250" stroke="#ddd" stroke-width="1" opacity="1"/><line transform="translate(150,-250)" x2="0" y2="250" stroke="#ddd" stroke-width="1" opacity="1"/><line transform="translate(200,-250)" x2="0" y2="250" stroke="#ddd" stroke-width="1" opacity="1"/><line transform="translate(250,-250)" x2="0" y2="250" stroke="#ddd" stroke-width="1" opacity="1"/></g></g><path class="foreground" aria-hidden="true" d="" pointer-events="none" display="none"/></g></g><g class="mark-group role-axis" aria-hidden="true"><g transform="translate(0.5,0.5)"><path class="background" aria-hidden="true" d="M0,0h0v0h0Z" pointer-events="none"/><g><g class="mark-rule role-axis-grid" pointer-events="none"><line transform="translate(0,250)" x2="250" y2="0" stroke="#ddd" stroke-width="1" opacity="1"/><line transform="translate(0,208)" x2="250" y2="0" stroke="#ddd" stroke-width="1" opacity="1"/><line transform="translate(0,167)" x2="250" y2="0" stroke="#ddd" stroke-width="1" opacity="1"/><line transform="translate(0,125)" x2="250" y2="0" stroke="#ddd" stroke-width="1" opacity="1"/><line transform="translate(0,83)" x2="250" y2="0" stroke="#ddd" stroke-width="1" opacity="1"/><line transform="translate(0,42)" x2="250" y2="0" stroke="#ddd" stroke-width="1" opacity="1"/><line transform="translate(0,0)" x2="250" y2="0" stroke="#ddd" stroke-width="1" opacity="1"/></g></g><path class="foreground" aria-hidden="true" d="" pointer-events="none" display="none"/></g></g><g class="mark-group role-axis" role="graphics-symbol" aria-roledescription="axis" aria-label="X-axis titled 'time' for a linear scale with values from 0 to 50"><g transform="translate(0.5,250.5)"><path class="background" aria-hidden="true" d="M0,0h0v0h0Z" pointer-events="none"/><g><g class="mark-rule role-axis-tick" pointer-events="none"><line transform="translate(0,0)" x2="0" y2="5" stroke="#888" stroke-width="1" opacity="1"/><line transform="translate(50,0)" x2="0" y2="5" stroke="#888" stroke-width="1" opacity="1"/><line transform="translate(100,0)" x2="0" y2="5" stroke="#888" stroke-width="1" opacity="1"/><line transform="translate(150,0)" x2="0" y2="5" stroke="#888" stroke-width="1" opacity="1"/><line transform="translate(200,0)" x2="0" y2="5" stroke="#888" stroke-width="1" opacity="1"/><line transform="translate(250,0)" x2="0" y2="5" stroke="#888" stroke-width="1" opacity="1"/></g><g class="mark-text role-axis-label" pointer-events="none"><text text-anchor="start" transform="translate(0,15)" font-family="sans-serif" font-size="10px" fill="#000" opacity="1">0</text><text text-anchor="middle" transform="translate(50,15)" font-family="sans-serif" font-size="10px" fill="#000" opacity="1">10</text><text text-anchor="middle" transform="translate(100,15)" font-family="sans-serif" font-size="10px" fill="#000" opacity="1">20</text><text text-anchor="middle" transform="translate(150,15)" font-family="sans-serif" font-size="10px" fill="#000" opacity="1">30</text><text text-anchor="middle" transform="translate(200,15)" font-family="sans-serif" font-size="10px" fill="#000" opacity="1">40</text><text text-anchor="end" transform="translate(250,15)" font-family="sans-serif" font-size="10px" fill="#000" opacity="1">50</text></g><g class="mark-rule role-axis-domain" pointer-events="none"><line transform="translate(0,0)" x2="250" y2="0" stroke="#888" stroke-width="1" opacity="1"/></g><g class="mark-text role-axis-title" pointer-events="none"><text text-anchor="middle" transform="translate(125,30)" font-family="sans-serif" font-size="11px" font-weight="bold" fill="#000" opacity="1">time</text></g></g><path class="foreground" aria-hidden="true" d="" pointer-events="none" display="none"/></g></g><g class="mark-group role-axis" role="graphics-symbol" aria-roledescription="axis" aria-label="Y-axis titled 'value' for a linear scale with values from −15 to 15"><g transform="translate(0.5,0.5)"><path class="background" aria-hidden="true" d="M0,0h0v0h0Z" pointer-events="none"/><g><g class="mark-rule role-axis-tick" pointer-events="none"><line transform="translate(0,250)" x2="-5" y2="0" stroke="#888" stroke-width="1" opacity="1"/><line transform="translate(0,208)" x2="-5" y2="0" stroke="#888" stroke-width="1" opacity="1"/><line transform="translate(0,167)" x2="-5" y2="0" stroke="#888" stroke-width="1" opacity="1"/><line transform="translate(0,125)" x2="-5" y2="0" stroke="#888" stroke-width="1" opacity="1"/><line transform="translate(0,83)" x2="-5" y2="0" stroke="#888" stroke-width="1" opacity="1"/><line transform="translate(0,42)" x2="-5" y2="0" stroke="#888" stroke-width="1" opacity="1"/><line transform="translate(0,0)" x2="-5" y2="0" stroke="#888" stroke-width="1" opacity="1"/></g><g class="mark-text role-axis-label" pointer-events="none"><text text-anchor="end" transform="translate(-7,253)" font-family="sans-serif" font-size="10px" fill="#000" opacity="1">−15</text><text text-anchor="end" transform="translate(-7,211.33333333333334)" font-family="sans-serif" font-size="10px" fill="#000" opacity="1">−10</text><text text-anchor="end" transform="translate(-7,169.66666666666669)" font-family="sans-serif" font-size="10px" fill="#000" opacity="1">−5</text><text text-anchor="end" transform="translate(-7,128)" font-family="sans-serif" font-size="10px" fill="#000" opacity="1">0</text><text text-anchor="end" transform="translate(-7,86.33333333333334)" font-family="sans-serif" font-size="10px" fill="#000" opacity="1">5</text><text text-anchor="end" transform="translate(-7,44.66666666666666)" font-family="sans-serif" font-size="10px" fill="#000" opacity="1">10</text><text text-anchor="end" transform="translate(-7,3)" font-family="sans-serif" font-size="10px" fill="#000" opacity="1">15</text></g><g class="mark-rule role-axis-domain" pointer-events="none"><line transform="translate(0,250)" x2="0" y2="-250" stroke="#888" stroke-width="1" opacity="1"/></g><g class="mark-text role-axis-title" pointer-events="none"><text text-anchor="middle" transform="translate(-27.962890625,125) rotate(-90) translate(0,-2)" font-family="sans-serif" font-size="11px" font-weight="bold" fill="#000" opacity="1">value</text></g></g><path class="foreground" aria-hidden="true" d="" pointer-events="none" display="none"/></g></g><g class="mark-group role-scope view_8_pathgroup" role="graphics-object" aria-roledescription="group mark container"><g transform="translate(0,0)"><path class="background" aria-hidden="true" d="M0,0h250v250h-250Z"/><g><g class="mark-line role-mark view_8_marks" role="graphics-object" aria-roledescription="line mark container"><path aria-label="time: 0; value: −1.04855296507; id: 0" role="graphics-symbol" aria-roledescription="line mark" d="M0,133.738L5,139.342L10,149.051L15,133.358L20,130.222L25,142.649L30,146.799L35,149.749L40,152.825L45,160.792L50,166.104L55,176.011L60,176.932L65,187.82L70,193.816L75,184.912L80,179.092L85,193.243L90,198.231L95,190.485L100,193.779L105,198.092L110,191.663L115,188.474L120,190.329L125,188.55L130,171.789L135,188.054L140,200.975L145,195.338L150,196.091L155,203.864L160,208.792L165,220.833L170,224.057L175,233.871L180,237.631L185,225.22L190,213.46L195,213.553L200,211.557L205,201.939L210,190.885L215,203.066L220,213.888L225,210.839L230,213.886L235,210.89L240,206.257L245,197.793" stroke="rgb(199, 221, 239)" stroke-width="2"/></g></g><path class="foreground" aria-hidden="true" d="" display="none"/></g><g transform="translate(0,0)"><path class="background" aria-hidden="true" d="M0,0h250v250h-250Z"/><g><g class="mark-line role-mark view_8_marks" role="graphics-object" aria-roledescription="line mark container"><path aria-label="time: 0; value: −1.42001793718; id: 1" role="graphics-symbol" aria-roledescription="line mark" d="M0,136.833L5,139.83L10,132.323L15,143.554L20,152.716L25,149.054L30,132.975L35,144.433L40,146.428L45,149.311L50,152.621L55,156.845L60,148.343L65,134.526L70,141.301L75,145.079L80,145.047L85,141.82L90,151.119L95,146.267L100,155.929L105,164.086L110,155.507L115,155.793L120,163.402L125,173.473L130,173.845L135,179.344L140,175.866L145,179.05L150,167.653L155,178.179L160,168.808L165,178.896L170,183.149L175,192.65L180,190.436L185,186.092L190,179.544L195,179.448L200,182.53L205,181.092L210,189.13L215,194.826L220,184.192L225,173.377L230,165.559L235,166.764L240,159.327L245,153.485" stroke="rgb(191, 216, 236)" stroke-width="2"/></g></g><path class="foreground" aria-hidden="true" d="" display="none"/></g><g transform="translate(0,0)"><path class="background" aria-hidden="true" d="M0,0h250v250h-250Z"/><g><g class="mark-line role-mark view_8_marks" role="graphics-object" aria-roledescription="line mark container"><path aria-label="time: 0; value: −1.70627019063; id: 2" role="graphics-symbol" aria-roledescription="line mark" d="M0,139.219L5,145.995L10,142.115L15,152.702L20,150.217L25,148.828L30,140.916L35,146.279L40,137.116L45,140.979L50,142.086L55,147.055L60,152.823L65,153.807L70,151.52L75,157.252L80,149.486L85,168.283L90,161.894L95,179.349L100,180.065L105,183.725L110,191.298L115,182.162L120,196.172L125,198.189L130,196.563L135,206.061L140,213.931L145,215.8L150,207.18L155,203.409L160,197.114L165,203.686L170,202.154L175,187.529L180,181.503L185,176.403L190,176.882L195,183.863L200,175.759L205,175.583L210,175.084L215,172.021L220,160.979L225,156.97L230,154.497L235,157.511L240,161.03L245,164.509" stroke="rgb(181, 212, 233)" stroke-width="2"/></g></g><path class="foreground" aria-hidden="true" d="" display="none"/></g><g transform="translate(0,0)"><path class="background" aria-hidden="true" d="M0,0h250v250h-250Z"/><g><g class="mark-line role-mark view_8_marks" role="graphics-object" aria-roledescription="line mark container"><path aria-label="time: 0; value: 1.95077539523; id: 3" role="graphics-symbol" aria-roledescription="line mark" d="M0,108.744L5,123.129L10,135.931L15,127.853L20,116.8L25,111.508L30,110.778L35,129.307L40,123.846L45,119.834L50,122.315L55,122.753L60,109.95L65,115.618L70,123.043L75,133.16L80,130.327L85,138.848L90,135.879L95,134.848L100,133.229L105,131.717L110,135.253L115,137.205L120,144.613L125,131.961L130,146.807L135,140.266L140,138.282L145,140.801L150,149.102L155,148.287L160,141.058L165,131.936L170,135.149L175,136.257L180,136.052L185,147.231L190,150.491L195,155.418L200,137.635L205,136.807L210,138.578L215,136.992L220,135.281L225,112.286L230,105.369L235,96.498L240,95.625L245,104.771" stroke="rgb(170, 207, 230)" stroke-width="2"/></g></g><path class="foreground" aria-hidden="true" d="" display="none"/></g><g transform="translate(0,0)"><path class="background" aria-hidden="true" d="M0,0h250v250h-250Z"/><g><g class="mark-line role-mark view_8_marks" role="graphics-object" aria-roledescription="line mark container"><path aria-label="time: 0; value: −0.509652181752; id: 4" role="graphics-symbol" aria-roledescription="line mark" d="M0,129.247L5,127.769L10,115.366L15,125.142L20,130.931L25,111.071L30,121.283L35,116.073L40,110.738L45,123.578L50,126.153L55,142.289L60,139.903L65,134.35L70,143.994L75,147.669L80,147.799L85,147.477L90,162.215L95,163.299L100,156.001L105,160.191L110,153.003L115,155.898L120,153.88L125,157.086L130,163.161L135,167.78L140,179.497L145,182.623L150,192.772L155,196.507L160,201.978L165,200.021L170,213.37L175,219.75L180,213.751L185,209.776L190,201.935L195,207.5L200,204.113L205,202.218L210,208.569L215,215.667L220,215.291L225,215.913L230,220.047L235,227.863L240,225.962L245,211.693" stroke="rgb(158, 201, 226)" stroke-width="2"/></g></g><path class="foreground" aria-hidden="true" d="" display="none"/></g><g transform="translate(0,0)"><path class="background" aria-hidden="true" d="M0,0h250v250h-250Z"/><g><g class="mark-line role-mark view_8_marks" role="graphics-object" aria-roledescription="line mark container"><path aria-label="time: 0; value: −0.438074301611; id: 5" role="graphics-symbol" aria-roledescription="line mark" d="M0,128.651L5,131.999L10,116.2L15,100.003L20,101.25L25,93.379L30,86.343L35,99.693L40,113.168L45,112.641L50,126.607L55,125.034L60,119.961L65,123.8L70,126.402L75,128.739L80,127.398L85,141.204L90,138.241L95,137.458L100,138.417L105,118.314L110,140.444L115,145.288L120,152.694L125,156.392L130,154.754L135,158.676L140,163.594L145,173.812L150,176.353L155,181.764L160,205.386L165,187.618L170,195.011L175,190.379L180,199.57L185,198.333L190,194.956L195,192.232L200,193.842L205,202.314L210,209.713L215,194.523L220,175.026L225,172.87L230,173.494L235,169.884L240,168.205L245,174.806" stroke="rgb(147, 195, 223)" stroke-width="2"/></g></g><path class="foreground" aria-hidden="true" d="" display="none"/></g><g transform="translate(0,0)"><path class="background" aria-hidden="true" d="M0,0h250v250h-250Z"/><g><g class="mark-line role-mark view_8_marks" role="graphics-object" aria-roledescription="line mark container"><path aria-label="time: 0; value: −1.25279536005; id: 6" role="graphics-symbol" aria-roledescription="line mark" d="M0,135.44L5,149.025L10,139.202L15,142.649L20,146.275L25,153.882L30,162.217L35,171.42L40,171.623L45,170.319L50,160.716L55,156.35L60,165.06L65,176.179L70,177.493L75,180.532L80,182.121L85,190.334L90,183.546L95,175.687L100,171.875L105,179.88L110,167.269L115,180.874L120,173.068L125,164.083L130,161.126L135,162.934L140,163.855L145,162.327L150,153.753L155,153.948L160,136.308L165,128.504L170,136.278L175,136.191L180,137.039L185,132.63L190,128.48L195,125.729L200,119.432L205,120.388L210,112.585L215,116.931L220,119.235L225,116.938L230,116.836L235,120.219L240,115.713L245,124.425" stroke="rgb(134, 188, 220)" stroke-width="2"/></g></g><path class="foreground" aria-hidden="true" d="" display="none"/></g><g transform="translate(0,0)"><path class="background" aria-hidden="true" d="M0,0h250v250h-250Z"/><g><g class="mark-line role-mark view_8_marks" role="graphics-object" aria-roledescription="line mark container"><path aria-label="time: 0; value: 0.777490355832; id: 7" role="graphics-symbol" aria-roledescription="line mark" d="M0,118.521L5,114.664L10,116.164L15,122.393L20,106.982L25,97.674L30,110.547L35,110.112L40,116.262L45,114.327L50,105.331L55,104.594L60,94.501L65,105.723L70,86.917L75,85.612L80,88.902L85,101.167L90,100.676L95,123.507L100,131.545L105,138.155L110,133.545L115,146.61L120,134.841L125,156.167L130,151.026L135,147.315L140,161.154L145,147.229L150,147.832L155,138.838L160,152.262L165,152.555L170,142.194L175,136.194L180,136.033L185,132.511L190,132.729L195,114.18L200,118.673L205,116.1L210,120.48L215,130.352L220,132.516L225,120.557L230,107.48L235,101.443L240,116.594L245,125.634" stroke="rgb(121, 181, 216)" stroke-width="2"/></g></g><path class="foreground" aria-hidden="true" d="" display="none"/></g><g transform="translate(0,0)"><path class="background" aria-hidden="true" d="M0,0h250v250h-250Z"/><g><g class="mark-line role-mark view_8_marks" role="graphics-object" aria-roledescription="line mark container"><path aria-label="time: 0; value: −1.61389784756; id: 8" role="graphics-symbol" aria-roledescription="line mark" d="M0,138.449L5,146.01L10,154.933L15,138.908L20,133.306L25,144.272L30,134.372L35,140.535L40,138.202L45,143.18L50,149.958L55,152.548L60,146.8L65,141.018L70,146.891L75,142.07L80,144.301L85,130.567L90,132.109L95,136.853L100,143.375L105,162.447L110,162.827L115,172.654L120,192.4L125,182.556L130,182.484L135,185.754L140,184.794L145,185.262L150,190.267L155,206.969L160,207.267L165,196.725L170,189.953L175,205.155L180,189.741L185,201.073L190,215.141L195,203.717L200,209.964L205,221.387L210,219.127L215,211.121L220,208.084L225,203.857L230,198.104L235,186.56L240,186.971L245,177.66" stroke="rgb(109, 174, 213)" stroke-width="2"/></g></g><path class="foreground" aria-hidden="true" d="" display="none"/></g><g transform="translate(0,0)"><path class="background" aria-hidden="true" d="M0,0h250v250h-250Z"/><g><g class="mark-line role-mark view_8_marks" role="graphics-object" aria-roledescription="line mark container"><path aria-label="time: 0; value: −0.212740280214; id: 9" role="graphics-symbol" aria-roledescription="line mark" d="M0,126.773L5,126.34L10,117.553L15,105.215L20,101.82L25,105.666L30,103.025L35,90.167L40,90.985L45,92.967L50,105.187L55,104.376L60,93.527L65,94.857L70,86.996L75,84.083L80,93.483L85,92.114L90,98.844L95,96.595L100,97.515L105,95.419L110,93.582L115,82.737L120,75.536L125,80.802L130,76.41L135,101.795L140,104.954L145,104.966L150,92.031L155,88.89L160,69.05L165,67.288L170,62.394L175,59.864L180,61.649L185,61.994L190,62.931L195,67.18L200,66.906L205,59.693L210,66.372L215,55.296L220,43.035L225,44.004L230,37.365L235,39.891L240,37.899L245,42.223" stroke="rgb(97, 167, 209)" stroke-width="2"/></g></g><path class="foreground" aria-hidden="true" d="" display="none"/></g><g transform="translate(0,0)"><path class="background" aria-hidden="true" d="M0,0h250v250h-250Z"/><g><g class="mark-line role-mark view_8_marks" role="graphics-object" aria-roledescription="line mark container"><path aria-label="time: 0; value: −0.895466561194; id: 10" role="graphics-symbol" aria-roledescription="line mark" d="M0,132.462L5,126.386L10,129.746L15,114.183L20,120.599L25,121.168L30,113.494L35,124.268L40,116.683L45,128.55L50,124.208L55,120.883L60,126.117L65,127.231L70,121.004L75,127.372L80,125.035L85,120.308L90,132.362L95,136.253L100,145.041L105,161.845L110,170.427L115,162.967L120,181.63L125,180.264L130,176.483L135,171.955L140,186.475L145,192.202L150,189.811L155,194.359L160,191.604L165,197.478L170,201.69L175,195.251L180,199.409L185,205.725L190,210.162L195,207.455L200,228.978L205,219.967L210,225.36L215,232.172L220,218.899L225,226.795L230,232.278L235,228.602L240,236.939L245,243.219" stroke="rgb(86, 159, 205)" stroke-width="2"/></g></g><path class="foreground" aria-hidden="true" d="" display="none"/></g><g transform="translate(0,0)"><path class="background" aria-hidden="true" d="M0,0h250v250h-250Z"/><g><g class="mark-line role-mark view_8_marks" role="graphics-object" aria-roledescription="line mark container"><path aria-label="time: 0; value: 0.386902497859; id: 11" role="graphics-symbol" aria-roledescription="line mark" d="M0,121.776L5,120.701L10,110.514L15,102.964L20,98.47L25,84.192L30,81.536L35,79.31L40,76.667L45,80.778L50,85.576L55,108.681L60,112.69L65,103.709L70,113.616L75,125.598L80,133.874L85,135.73L90,129.06L95,140.868L100,134.033L105,138.528L110,141.444L115,129.986L120,126.64L125,125.838L130,141.086L135,137.427L140,148.287L145,149.266L150,168.604L155,184.309L160,176.399L165,170.733L170,177.531L175,191.377L180,191.2L185,191.617L190,186.241L195,177.932L200,187.548L205,192.81L210,188.874L215,200.552L220,202.707L225,200.67L230,192.596L235,191.106L240,177.156L245,176.009" stroke="rgb(75, 151, 201)" stroke-width="2"/></g></g><path class="foreground" aria-hidden="true" d="" display="none"/></g><g transform="translate(0,0)"><path class="background" aria-hidden="true" d="M0,0h250v250h-250Z"/><g><g class="mark-line role-mark view_8_marks" role="graphics-object" aria-roledescription="line mark container"><path aria-label="time: 0; value: −0.510805137569; id: 12" role="graphics-symbol" aria-roledescription="line mark" d="M0,129.257L5,119.762L10,118.026L15,125.203L20,130.822L25,137.029L30,129.888L35,130.216L40,123.663L45,128.187L50,127.004L55,110.705L60,91.505L65,100.896L70,94.452L75,83.081L80,76.067L85,79.012L90,81.588L95,74.347L100,70.488L105,72.785L110,63.616L115,74.718L120,64.51L125,56.656L130,56.348L135,58.178L140,53.135L145,49.25L150,46.607L155,62.821L160,75.341L165,81.144L170,85.373L175,81.638L180,89.298L185,96.776L190,88.344L195,88.089L200,90.989L205,93L210,85.246L215,76.659L220,74.09L225,62.412L230,60.532L235,67.194L240,65.848L245,67.572" stroke="rgb(65, 143, 196)" stroke-width="2"/></g></g><path class="foreground" aria-hidden="true" d="" display="none"/></g><g transform="translate(0,0)"><path class="background" aria-hidden="true" d="M0,0h250v250h-250Z"/><g><g class="mark-line role-mark view_8_marks" role="graphics-object" aria-roledescription="line mark container"><path aria-label="time: 0; value: −1.18063218412; id: 13" role="graphics-symbol" aria-roledescription="line mark" d="M0,134.839L5,145.129L10,136.99L15,121.073L20,120.808L25,127.695L30,133.12L35,142.854L40,146.741L45,143.274L50,145.935L55,142.684L60,151.518L65,157.606L70,167.472L75,173.218L80,175.296L85,188.767L90,190.713L95,188.405L100,186.08L105,191.994L110,181.177L115,197.582L120,197.042L125,199.272L130,192.873L135,201.906L140,194.443L145,197.529L150,193.195L155,200.801L160,215.615L165,218.035L170,226.801L175,212.666L180,211.06L185,200.123L190,205.606L195,206.186L200,217.464L205,224.782L210,226.243L215,243.304L220,254.788L225,258.208L230,246.632L235,244.625L240,231.597L245,237.248" stroke="rgb(56, 135, 192)" stroke-width="2"/></g></g><path class="foreground" aria-hidden="true" d="" display="none"/></g><g transform="translate(0,0)"><path class="background" aria-hidden="true" d="M0,0h250v250h-250Z"/><g><g class="mark-line role-mark view_8_marks" role="graphics-object" aria-roledescription="line mark container"><path aria-label="time: 0; value: −0.0281822283387; id: 14" role="graphics-symbol" aria-roledescription="line mark" d="M0,125.235L5,121.882L10,118.912L15,121.146L20,126.444L25,127.265L30,135.883L35,131.523L40,139.393L45,149.028L50,143.265L55,148.702L60,149.835L65,153.042L70,175.202L75,180.638L80,180.225L85,182.657L90,168.218L95,176.311L100,173.486L105,158.996L110,136.527L115,142.028L120,152.692L125,158.342L130,153.426L135,150.495L140,151.594L145,155.376L150,153.496L155,151.666L160,156.106L165,145.041L170,124.231L175,124.355L180,127.397L185,134.555L190,130.652L195,130.222L200,138.827L205,132.999L210,144.848L215,155.07L220,157.67L225,153.262L230,136.478L235,134.069L240,140.657L245,134.373" stroke="rgb(47, 126, 187)" stroke-width="2"/></g></g><path class="foreground" aria-hidden="true" d="" display="none"/></g><g transform="translate(0,0)"><path class="background" aria-hidden="true" d="M0,0h250v250h-250Z"/><g><g class="mark-line role-mark view_8_marks" role="graphics-object" aria-roledescription="line mark container"><path aria-label="time: 0; value: 0.42833187053; id: 15" role="graphics-symbol" aria-roledescription="line mark" d="M0,121.431L5,127.137L10,121.249L15,114.562L20,108.925L25,114.454L30,108.774L35,110.204L40,113.621L45,107.111L50,101.321L55,104.579L60,95.105L65,94.319L70,89.266L75,93.609L80,89.494L85,95.84L90,90.136L95,87.512L100,70.67L105,62.384L110,63L115,61.534L120,66.413L125,55.598L130,58.63L135,55.47L140,52.096L145,48.736L150,44.988L155,41.713L160,32.623L165,33.467L170,52.178L175,45.333L180,60.261L185,67.752L190,53.286L195,46.059L200,49.699L205,58.542L210,41.893L215,33.831L220,40.833L225,38.782L230,41.338L235,37.898L240,45.458L245,36.581" stroke="rgb(38, 118, 182)" stroke-width="2"/></g></g><path class="foreground" aria-hidden="true" d="" display="none"/></g><g transform="translate(0,0)"><path class="background" aria-hidden="true" d="M0,0h250v250h-250Z"/><g><g class="mark-line role-mark view_8_marks" role="graphics-object" aria-roledescription="line mark container"><path aria-label="time: 0; value: 0.0665172223832; id: 16" role="graphics-symbol" aria-roledescription="line mark" d="M0,124.446L5,131.702L10,131.615L15,123.721L20,118.916L25,109.528L30,116.223L35,109.791L40,109.933L45,97.479L50,103.525L55,99.411L60,98.597L65,98.948L70,113.58L75,128.939L80,123.578L85,116.429L90,113.339L95,106.492L100,110.399L105,99.407L110,104.895L115,100.739L120,102.919L125,122.621L130,129.334L135,133.251L140,131.386L145,139.036L150,139.596L155,147.421L160,150.307L165,157L170,152.299L175,146.711L180,147.2L185,146.578L190,152.142L195,159.212L200,172.903L205,174.757L210,181.895L215,182.356L220,190.746L225,183.55L230,186.936L235,188.59L240,186.721L245,178.51" stroke="rgb(31, 109, 177)" stroke-width="2"/></g></g><path class="foreground" aria-hidden="true" d="" display="none"/></g><g transform="translate(0,0)"><path class="background" aria-hidden="true" d="M0,0h250v250h-250Z"/><g><g class="mark-line role-mark view_8_marks" role="graphics-object" aria-roledescription="line mark container"><path aria-label="time: 0; value: 0.30247189774; id: 17" role="graphics-symbol" aria-roledescription="line mark" d="M0,122.479L5,127.303L10,112.421L15,113.713L20,115.448L25,124.448L30,130.194L35,123.332L40,120.172L45,137.422L50,148.95L55,149.917L60,145.06L65,147.45L70,143.692L75,147.676L80,160.764L85,151.255L90,150.071L95,150.027L100,168.372L105,175.726L110,180.011L115,171.278L120,172.797L125,172.627L130,181.946L135,183.753L140,181.006L145,178.902L150,189.888L155,181.413L160,188.035L165,191.904L170,202.609L175,208.505L180,211.151L185,220.127L190,206.111L195,208.825L200,212.209L205,219.366L210,232.213L215,234.413L220,220.399L225,227.106L230,234.306L235,233.521L240,247.51L245,241.119" stroke="rgb(24, 100, 170)" stroke-width="2"/></g></g><path class="foreground" aria-hidden="true" d="" display="none"/></g><g transform="translate(0,0)"><path class="background" aria-hidden="true" d="M0,0h250v250h-250Z"/><g><g class="mark-line role-mark view_8_marks" role="graphics-object" aria-roledescription="line mark container"><path aria-label="time: 0; value: −0.634322093681; id: 18" role="graphics-symbol" aria-roledescription="line mark" d="M0,130.286L5,132.882L10,131.825L15,126.707L20,123.407L25,132.97L30,136.766L35,118.739L40,99.911L45,96.359L50,109.55L55,126.472L60,129.801L65,130.315L70,136.015L75,140.012L80,141.736L85,129.515L90,116.848L95,110.177L100,108.516L105,99.111L110,107.595L115,105.226L120,106.916L125,118.149L130,119.241L135,126.993L140,116.276L145,109.44L150,112.529L155,100.671L160,99.021L165,90.506L170,91.376L175,91.044L180,104.648L185,108.187L190,115.292L195,111.371L200,115.832L205,115.407L210,93.787L215,90.847L220,97.449L225,77.894L230,79.091L235,88.654L240,86.863L245,83.507" stroke="rgb(18, 91, 163)" stroke-width="2"/></g></g><path class="foreground" aria-hidden="true" d="" display="none"/></g><g transform="translate(0,0)"><path class="background" aria-hidden="true" d="M0,0h250v250h-250Z"/><g><g class="mark-line role-mark view_8_marks" role="graphics-object" aria-roledescription="line mark container"><path aria-label="time: 0; value: −0.362741165987; id: 19" role="graphics-symbol" aria-roledescription="line mark" d="M0,128.023L5,127.555L10,124.205L15,116.52L20,125.629L25,129.277L30,129.132L35,117.994L40,118.346L45,112.705L50,107.619L55,90.414L60,87.331L65,88.225L70,74.395L75,69.226L80,61.891L85,54.786L90,40.456L95,39.804L100,40.226L105,36.092L110,36.741L115,22.219L120,23.135L125,29.481L130,20.039L135,21.527L140,34.085L145,22.752L150,30.633L155,27.332L160,18.316L165,22.92L170,31.154L175,44.212L180,44.771L185,51.688L190,51.496L195,48.901L200,48.689L205,63.641L210,67.008L215,68.281L220,72.711L225,83.371L230,86.555L235,89.539L240,88.729L245,103.528" stroke="rgb(14, 83, 154)" stroke-width="2"/></g></g><path class="foreground" aria-hidden="true" d="" display="none"/></g></g></g><path class="foreground" aria-hidden="true" d="" display="none"/></g></g></g><path class="foreground" aria-hidden="true" d="" display="none"/></g></g></g></svg>