<?xml version="1.0" encoding="UTF-8"?>
<svg id="Layer_1" xmlns="http://www.w3.org/2000/svg" version="1.1" viewBox="0 0 1503.3 776">
  <!-- Generator: Adobe Illustrator 29.4.0, SVG Export Plug-In . SVG Version: 2.1.0 Build 152)  -->
  <circle cx="752" cy="359.2" r="166.6" fill="#11296b"/>
  <g>
    <rect x="585.9" y="301.3" width="332" height="115.7" fill="none"/>
    <path d="M718.9,330.7c-1.7,1-3.7,1.5-6.2,1.5-4,0-7.3-1.4-9.8-4.2-2.7-2.8-4-6.6-4-11.4s1.3-8.8,4-11.8,6.3-4.4,10.7-4.4,6.9,1,9.3,2.9,3.7,4.4,4,7.3h-6.2c-.5-2.1-1.6-3.5-3.5-4.3-1-.5-2.2-.7-3.5-.7-2.4,0-4.4.9-6,2.8s-2.3,4.6-2.3,8.3.8,6.4,2.5,7.9,3.6,2.3,5.8,2.3,3.9-.6,5.2-1.8,2.2-2.8,2.5-4.8h-7v-5h12.6v16.2h-4.2l-.6-3.8c-1.2,1.4-2.3,2.4-3.3,3Z" fill="#fff"/>
    <path d="M751.2,311.9c1.9,2.4,2.8,5.2,2.8,8.4s-.9,6.1-2.8,8.4-4.8,3.5-8.6,3.5-6.7-1.2-8.6-3.5-2.8-5.1-2.8-8.4.9-6,2.8-8.4,4.8-3.5,8.6-3.5,6.7,1.2,8.6,3.5ZM742.6,313.3c-1.7,0-3,.6-3.9,1.8s-1.4,2.9-1.4,5.2.5,4,1.4,5.2,2.2,1.8,3.9,1.8,3-.6,3.9-1.8,1.4-2.9,1.4-5.2-.5-4-1.4-5.2-2.2-1.8-3.9-1.8Z" fill="#fff"/>
    <path d="M776.8,311.9c1.9,2.4,2.8,5.2,2.8,8.4s-.9,6.1-2.8,8.4-4.8,3.5-8.6,3.5-6.7-1.2-8.6-3.5-2.8-5.1-2.8-8.4.9-6,2.8-8.4,4.8-3.5,8.6-3.5,6.7,1.2,8.6,3.5ZM768.2,313.3c-1.7,0-3,.6-3.9,1.8s-1.4,2.9-1.4,5.2.5,4,1.4,5.2,2.2,1.8,3.9,1.8,3-.6,3.9-1.8,1.4-2.9,1.4-5.2-.5-4-1.4-5.2-2.2-1.8-3.9-1.8Z" fill="#fff"/>
    <path d="M804.2,301.3v30.2h-5.7v-3.1c-.8,1.3-1.8,2.3-2.9,2.9s-2.4.9-4,.9c-2.6,0-4.8-1.1-6.6-3.2s-2.7-4.8-2.7-8.1.9-6.8,2.6-9,4.1-3.3,7-3.3,2.6.3,3.6.9,1.9,1.4,2.6,2.5v-10.7h5.9ZM788.5,320.4c0,2.1.4,3.7,1.2,4.9.8,1.2,2,1.9,3.7,1.9s2.9-.6,3.8-1.8,1.3-2.8,1.3-4.8-.7-4.7-2.1-5.9c-.8-.7-1.8-1.1-3-1.1-1.7,0-3,.6-3.8,1.9s-1.2,2.9-1.2,4.8Z" fill="#fff"/>
    <path d="M624.9,351.6h6.7l6.6,22.9,6.6-22.9h6.6l-10.3,30.2h-6l-10.2-30.2Z" fill="#fff"/>
    <path d="M660,351.5v5.4h-5.9v-5.4h5.9ZM660,359.5v22.4h-5.9v-22.4h5.9Z" fill="#fff"/>
    <path d="M681.1,360.5c1.8,1.1,2.8,3,3,5.8h-5.8c0-.8-.3-1.3-.6-1.8-.6-.8-1.7-1.2-3.3-1.2s-2.2.2-2.7.6-.8.9-.8,1.4.3,1.2.9,1.5c.6.3,2.6.9,6.1,1.6,2.3.5,4.1,1.4,5.2,2.5,1.1,1.1,1.7,2.5,1.7,4.2s-.8,4-2.5,5.4-4.2,2.1-7.6,2.1-6.1-.7-7.8-2.2-2.5-3.4-2.5-5.7h5.9c.1,1,.4,1.8.8,2.2.7.8,2.1,1.2,4,1.2s2.1-.2,2.7-.5,1-.9,1-1.5-.3-1.2-.8-1.5-2.6-.9-6.1-1.8c-2.5-.6-4.3-1.4-5.4-2.4-1-.9-1.6-2.3-1.6-4s.8-3.8,2.4-5.3c1.6-1.5,3.9-2.2,6.8-2.2s5.1.6,6.8,1.7Z" fill="#fff"/>
    <path d="M703.3,378.7c0,0-.2.3-.4.6s-.5.6-.8.9c-.9.8-1.8,1.4-2.7,1.7s-1.9.5-3,.5c-3.3,0-5.5-1.2-6.7-3.6-.6-1.3-1-3.2-1-5.8v-13.5h6v13.5c0,1.3.2,2.2.5,2.9.5,1.1,1.6,1.7,3.1,1.7s3.4-.8,4.1-2.4c.4-.9.6-2,.6-3.5v-12.2h5.9v22.4h-5.7v-3.2Z" fill="#fff"/>
    <path d="M715.5,361.9c1.5-2,4.2-3,8-3s4.6.5,6.5,1.5,2.9,2.8,2.9,5.5v10.3c0,.7,0,1.6,0,2.6,0,.8.2,1.3.3,1.6s.5.5.9.7v.9h-6.4c-.2-.5-.3-.9-.4-1.3s-.1-.8-.2-1.4c-.8.9-1.7,1.6-2.8,2.2-1.3.7-2.7,1.1-4.3,1.1s-3.7-.6-5-1.7-2-2.8-2-4.9,1.1-4.7,3.2-6c1.2-.7,2.9-1.1,5.1-1.4l2-.2c1.1-.1,1.9-.3,2.3-.5.8-.4,1.3-.9,1.3-1.7s-.3-1.5-1-1.9-1.6-.5-2.8-.5-2.4.3-2.9,1c-.4.5-.7,1.2-.8,2.1h-5.6c.1-2,.7-3.6,1.6-4.8ZM719.9,377.6c.5.5,1.2.7,2,.7,1.3,0,2.4-.4,3.5-1.1s1.6-2.1,1.7-4v-2.2c-.4.2-.7.4-1.1.6s-.9.3-1.5.4l-1.3.2c-1.2.2-2.1.5-2.6.8-.9.5-1.4,1.4-1.4,2.5s.3,1.7.8,2.2Z" fill="#fff"/>
    <path d="M738.1,351.6h5.8v30.2h-5.8v-30.2Z" fill="#fff"/>
    <path d="M755.7,351.5v5.4h-5.9v-5.4h5.9ZM755.7,359.5v22.4h-5.9v-22.4h5.9Z" fill="#fff"/>
    <path d="M778.6,381.9h-19.3v-4.6l11.5-13h-10.7v-4.8h18.1v4.9l-11.3,12.7h11.7v4.8Z" fill="#fff"/>
    <path d="M783.2,361.9c1.5-2,4.2-3,8-3s4.6.5,6.5,1.5,2.9,2.8,2.9,5.5v10.3c0,.7,0,1.6,0,2.6,0,.8.2,1.3.3,1.6s.5.5.9.7v.9h-6.4c-.2-.5-.3-.9-.4-1.3s-.1-.8-.2-1.4c-.8.9-1.7,1.6-2.8,2.2-1.3.7-2.7,1.1-4.3,1.1s-3.7-.6-5-1.7-2-2.8-2-4.9,1.1-4.7,3.2-6c1.2-.7,2.9-1.1,5.1-1.4l2-.2c1.1-.1,1.9-.3,2.3-.5.8-.4,1.3-.9,1.3-1.7s-.3-1.5-1-1.9-1.6-.5-2.8-.5-2.4.3-2.9,1c-.4.5-.7,1.2-.8,2.1h-5.6c.1-2,.7-3.6,1.6-4.8ZM787.5,377.6c.5.5,1.2.7,2,.7,1.3,0,2.4-.4,3.5-1.1s1.6-2.1,1.7-4v-2.2c-.4.2-.7.4-1.1.6s-.9.3-1.5.4l-1.3.2c-1.2.2-2.1.5-2.6.8-.9.5-1.4,1.4-1.4,2.5s.3,1.7.8,2.2Z" fill="#fff"/>
    <path d="M816,377.7v4.4h-2.8c-2.8.2-4.6-.3-5.7-1.3-.7-.7-1-1.7-1-3.1v-13.8h-3.1v-4.2h3.1v-6.2h5.8v6.2h3.6v4.2h-3.6v11.8c0,.9.1,1.5.3,1.7s.9.3,2.1.3.4,0,.6,0,.4,0,.6,0Z" fill="#fff"/>
    <path d="M825.7,351.5v5.4h-5.9v-5.4h5.9ZM825.7,359.5v22.4h-5.9v-22.4h5.9Z" fill="#fff"/>
    <path d="M850,362.3c1.9,2.4,2.8,5.2,2.8,8.4s-.9,6.1-2.8,8.4-4.8,3.5-8.6,3.5-6.7-1.2-8.6-3.5-2.8-5.1-2.8-8.4.9-6,2.8-8.4,4.8-3.5,8.6-3.5,6.7,1.2,8.6,3.5ZM841.4,363.7c-1.7,0-3,.6-3.9,1.8s-1.4,2.9-1.4,5.2.5,4,1.4,5.2,2.2,1.8,3.9,1.8,3-.6,3.9-1.8,1.4-2.9,1.4-5.2-.5-4-1.4-5.2-2.2-1.8-3.9-1.8Z" fill="#fff"/>
    <path d="M867.6,363.8c-2,0-3.3.8-4.1,2.5-.4.9-.6,2-.6,3.4v12.1h-5.8v-22.3h5.6v3.3c.8-1.1,1.5-2,2.1-2.5,1.2-.9,2.7-1.4,4.6-1.4s4.2.6,5.7,1.8c1.5,1.2,2.2,3.2,2.2,6v15.1h-6v-13.6c0-1.2-.2-2.1-.5-2.7-.6-1.1-1.7-1.7-3.3-1.7Z" fill="#fff"/>
  </g>
  <circle cx="169.9" cy="359.2" r="166.6" fill="#de1f36"/>
  <g>
    <rect x="3.9" y="301.3" width="332" height="115.7" fill="none"/>
    <path d="M147.3,331.5h-13.7v-30.2h14.7c3.7,0,6.3,1.1,7.9,3.2.9,1.3,1.4,2.8,1.4,4.6s-.5,3.3-1.4,4.5c-.5.6-1.3,1.2-2.3,1.7,1.5.6,2.7,1.4,3.5,2.7s1.2,2.7,1.2,4.4-.5,3.4-1.4,4.8c-.6.9-1.3,1.7-2.2,2.4-1,.7-2.1,1.2-3.4,1.5s-2.8.4-4.3.4ZM150.3,312.4c.8-.5,1.2-1.4,1.2-2.6s-.5-2.3-1.6-2.8c-.9-.3-2.1-.5-3.6-.5h-6.6v6.7h7.4c1.3,0,2.4-.3,3.2-.8ZM147.1,318.2h-7.5v8.1h7.4c1.3,0,2.4-.2,3.1-.5,1.3-.7,2-1.9,2-3.8s-.6-2.7-1.9-3.2c-.7-.3-1.7-.5-3.1-.5Z" fill="#fff"/>
    <path d="M164.2,311.5c1.5-2,4.2-3,8-3s4.6.5,6.5,1.5,2.9,2.8,2.9,5.5v10.3c0,.7,0,1.6,0,2.6,0,.8.2,1.3.3,1.6s.5.5.9.7v.9h-6.4c-.2-.5-.3-.9-.4-1.3s-.1-.8-.2-1.4c-.8.9-1.7,1.6-2.8,2.2-1.3.7-2.7,1.1-4.3,1.1s-3.7-.6-5-1.7-2-2.8-2-4.9,1.1-4.7,3.2-6c1.2-.7,2.9-1.1,5.1-1.4l2-.2c1.1-.1,1.9-.3,2.3-.5.8-.4,1.3-.9,1.3-1.7s-.3-1.5-1-1.9-1.6-.5-2.8-.5-2.4.3-2.9,1c-.4.5-.7,1.2-.8,2.1h-5.6c.1-2,.7-3.6,1.6-4.8ZM168.5,327.2c.5.5,1.2.7,2,.7,1.3,0,2.4-.4,3.5-1.1s1.6-2.1,1.7-4v-2.2c-.4.2-.7.4-1.1.6s-.9.3-1.5.4l-1.3.2c-1.2.2-2.1.5-2.6.8-.9.5-1.4,1.4-1.4,2.5s.3,1.7.8,2.2Z" fill="#fff"/>
    <path d="M207,301.3v30.2h-5.7v-3.1c-.8,1.3-1.8,2.3-2.9,2.9s-2.4.9-4,.9c-2.6,0-4.8-1.1-6.6-3.2s-2.7-4.8-2.7-8.1.9-6.8,2.6-9,4.1-3.3,7-3.3,2.6.3,3.6.9,1.9,1.4,2.6,2.5v-10.7h5.9ZM191.3,320.4c0,2.1.4,3.7,1.2,4.9.8,1.2,2,1.9,3.7,1.9s2.9-.6,3.8-1.8,1.3-2.8,1.3-4.8-.7-4.7-2.1-5.9c-.8-.7-1.8-1.1-3-1.1-1.7,0-3,.6-3.8,1.9s-1.2,2.9-1.2,4.8Z" fill="#fff"/>
    <path d="M140.6,381.9h-13v-30.2h13c1.9,0,3.4.2,4.7.7,2.1.7,3.8,2,5.1,3.8,1.1,1.5,1.8,3.1,2.2,4.9s.6,3.4.6,5c0,4-.8,7.4-2.4,10.2-2.2,3.8-5.6,5.6-10.1,5.6ZM145.3,359.4c-1-1.6-2.9-2.5-5.8-2.5h-5.8v19.7h5.8c3,0,5.1-1.5,6.2-4.4.6-1.6,1-3.5,1-5.8s-.5-5.4-1.4-7.1Z" fill="#fff"/>
    <path d="M158.3,361.9c1.5-2,4.2-3,8-3s4.6.5,6.5,1.5,2.9,2.8,2.9,5.5v10.3c0,.7,0,1.6,0,2.6,0,.8.2,1.3.3,1.6s.5.5.9.7v.9h-6.4c-.2-.5-.3-.9-.4-1.3s-.1-.8-.2-1.4c-.8.9-1.7,1.6-2.8,2.2-1.3.7-2.7,1.1-4.3,1.1s-3.7-.6-5-1.7-2-2.8-2-4.9,1.1-4.7,3.2-6c1.2-.7,2.9-1.1,5.1-1.4l2-.2c1.1-.1,1.9-.3,2.3-.5.8-.4,1.3-.9,1.3-1.7s-.3-1.5-1-1.9-1.6-.5-2.8-.5-2.4.3-2.9,1c-.4.5-.7,1.2-.8,2.1h-5.6c.1-2,.7-3.6,1.6-4.8ZM162.7,377.6c.5.5,1.2.7,2,.7,1.3,0,2.4-.4,3.5-1.1s1.6-2.1,1.7-4v-2.2c-.4.2-.7.4-1.1.6s-.9.3-1.5.4l-1.3.2c-1.2.2-2.1.5-2.6.8-.9.5-1.4,1.4-1.4,2.5s.3,1.7.8,2.2Z" fill="#fff"/>
    <path d="M191.1,377.7v4.4h-2.8c-2.8.2-4.6-.3-5.7-1.3-.7-.7-1-1.7-1-3.1v-13.8h-3.1v-4.2h3.1v-6.2h5.8v6.2h3.6v4.2h-3.6v11.8c0,.9.1,1.5.3,1.7s.9.3,2.1.3.4,0,.6,0,.4,0,.6,0Z" fill="#fff"/>
    <path d="M195.7,361.9c1.5-2,4.2-3,8-3s4.6.5,6.5,1.5,2.9,2.8,2.9,5.5v10.3c0,.7,0,1.6,0,2.6,0,.8.2,1.3.3,1.6s.5.5.9.7v.9h-6.4c-.2-.5-.3-.9-.4-1.3s-.1-.8-.2-1.4c-.8.9-1.7,1.6-2.8,2.2-1.3.7-2.7,1.1-4.3,1.1s-3.7-.6-5-1.7-2-2.8-2-4.9,1.1-4.7,3.2-6c1.2-.7,2.9-1.1,5.1-1.4l2-.2c1.1-.1,1.9-.3,2.3-.5.8-.4,1.3-.9,1.3-1.7s-.3-1.5-1-1.9-1.6-.5-2.8-.5-2.4.3-2.9,1c-.4.5-.7,1.2-.8,2.1h-5.6c.1-2,.7-3.6,1.6-4.8ZM200,377.6c.5.5,1.2.7,2,.7,1.3,0,2.4-.4,3.5-1.1s1.6-2.1,1.7-4v-2.2c-.4.2-.7.4-1.1.6s-.9.3-1.5.4l-1.3.2c-1.2.2-2.1.5-2.6.8-.9.5-1.4,1.4-1.4,2.5s.3,1.7.8,2.2Z" fill="#fff"/>
  </g>
  <g>
    <rect x="337.1" y="319.2" width="248.2" height="57.9" fill="none"/>
    <path d="M466.9,360v15.9h-10.1v-15.9h-15.8v-10.1h15.8v-15.8h10.1v15.8h15.8v10.1h-15.8Z" fill="#11296b"/>
  </g>
  <g>
    <rect x="920.7" y="319.2" width="248.2" height="57.9" fill="none"/>
    <path d="M1066.3,340.9v10.1h-41.8v-10.1h41.8ZM1024.5,369.1v-10.1h41.8v10.1h-41.8Z" fill="#11296b"/>
  </g>
  <circle cx="1334.6" cy="359.2" r="166.6" fill="#de1f36"/>
  <g>
    <rect x="1168.6" y="301.3" width="332" height="115.7" fill="none"/>
    <path d="M1311.9,331.5h-13.7v-30.2h14.7c3.7,0,6.3,1.1,7.9,3.2.9,1.3,1.4,2.8,1.4,4.6s-.5,3.3-1.4,4.5c-.5.6-1.3,1.2-2.3,1.7,1.5.6,2.7,1.4,3.5,2.7s1.2,2.7,1.2,4.4-.5,3.4-1.4,4.8c-.6.9-1.3,1.7-2.2,2.4-1,.7-2.1,1.2-3.4,1.5s-2.8.4-4.3.4ZM1314.9,312.4c.8-.5,1.2-1.4,1.2-2.6s-.5-2.3-1.6-2.8c-.9-.3-2.1-.5-3.6-.5h-6.6v6.7h7.4c1.3,0,2.4-.3,3.2-.8ZM1311.8,318.2h-7.5v8.1h7.4c1.3,0,2.4-.2,3.1-.5,1.3-.7,2-1.9,2-3.8s-.6-2.7-1.9-3.2c-.7-.3-1.7-.5-3.1-.5Z" fill="#fff"/>
    <path d="M1328.8,311.5c1.5-2,4.2-3,8-3s4.6.5,6.5,1.5,2.9,2.8,2.9,5.5v10.3c0,.7,0,1.6,0,2.6,0,.8.2,1.3.3,1.6s.5.5.9.7v.9h-6.4c-.2-.5-.3-.9-.4-1.3s-.1-.8-.2-1.4c-.8.9-1.7,1.6-2.8,2.2-1.3.7-2.7,1.1-4.3,1.1s-3.7-.6-5-1.7-2-2.8-2-4.9,1.1-4.7,3.2-6c1.2-.7,2.9-1.1,5.1-1.4l2-.2c1.1-.1,1.9-.3,2.3-.5.8-.4,1.3-.9,1.3-1.7s-.3-1.5-1-1.9-1.6-.5-2.8-.5-2.4.3-2.9,1c-.4.5-.7,1.2-.8,2.1h-5.6c.1-2,.7-3.6,1.6-4.8ZM1333.2,327.2c.5.5,1.2.7,2,.7,1.3,0,2.4-.4,3.5-1.1s1.6-2.1,1.7-4v-2.2c-.4.2-.7.4-1.1.6s-.9.3-1.5.4l-1.3.2c-1.2.2-2.1.5-2.6.8-.9.5-1.4,1.4-1.4,2.5s.3,1.7.8,2.2Z" fill="#fff"/>
    <path d="M1371.7,301.3v30.2h-5.7v-3.1c-.8,1.3-1.8,2.3-2.9,2.9s-2.4.9-4,.9c-2.6,0-4.8-1.1-6.6-3.2s-2.7-4.8-2.7-8.1.9-6.8,2.6-9,4.1-3.3,7-3.3,2.6.3,3.6.9,1.9,1.4,2.6,2.5v-10.7h5.9ZM1355.9,320.4c0,2.1.4,3.7,1.2,4.9.8,1.2,2,1.9,3.7,1.9s2.9-.6,3.8-1.8,1.3-2.8,1.3-4.8-.7-4.7-2.1-5.9c-.8-.7-1.8-1.1-3-1.1-1.7,0-3,.6-3.8,1.9s-1.2,2.9-1.2,4.8Z" fill="#fff"/>
    <path d="M1207.6,351.6h6.7l6.6,22.9,6.6-22.9h6.6l-10.3,30.2h-6l-10.2-30.2Z" fill="#fff"/>
    <path d="M1242.6,351.5v5.4h-5.9v-5.4h5.9ZM1242.6,359.5v22.4h-5.9v-22.4h5.9Z" fill="#fff"/>
    <path d="M1263.7,360.5c1.8,1.1,2.8,3,3,5.8h-5.8c0-.8-.3-1.3-.6-1.8-.6-.8-1.7-1.2-3.3-1.2s-2.2.2-2.7.6-.8.9-.8,1.4.3,1.2.9,1.5c.6.3,2.6.9,6.1,1.6,2.3.5,4.1,1.4,5.2,2.5,1.1,1.1,1.7,2.5,1.7,4.2s-.8,4-2.5,5.4-4.2,2.1-7.6,2.1-6.1-.7-7.8-2.2-2.5-3.4-2.5-5.7h5.9c.1,1,.4,1.8.8,2.2.7.8,2.1,1.2,4,1.2s2.1-.2,2.7-.5,1-.9,1-1.5-.3-1.2-.8-1.5-2.6-.9-6.1-1.8c-2.5-.6-4.3-1.4-5.4-2.4-1-.9-1.6-2.3-1.6-4s.8-3.8,2.4-5.3c1.6-1.5,3.9-2.2,6.8-2.2s5.1.6,6.8,1.7Z" fill="#fff"/>
    <path d="M1286,378.7c0,0-.2.3-.4.6s-.5.6-.8.9c-.9.8-1.8,1.4-2.7,1.7s-1.9.5-3,.5c-3.3,0-5.5-1.2-6.7-3.6-.6-1.3-1-3.2-1-5.8v-13.5h6v13.5c0,1.3.2,2.2.5,2.9.5,1.1,1.6,1.7,3.1,1.7s3.4-.8,4.1-2.4c.4-.9.6-2,.6-3.5v-12.2h5.9v22.4h-5.7v-3.2Z" fill="#fff"/>
    <path d="M1298.1,361.9c1.5-2,4.2-3,8-3s4.6.5,6.5,1.5,2.9,2.8,2.9,5.5v10.3c0,.7,0,1.6,0,2.6,0,.8.2,1.3.3,1.6s.5.5.9.7v.9h-6.4c-.2-.5-.3-.9-.4-1.3s-.1-.8-.2-1.4c-.8.9-1.7,1.6-2.8,2.2-1.3.7-2.7,1.1-4.3,1.1s-3.7-.6-5-1.7-2-2.8-2-4.9,1.1-4.7,3.2-6c1.2-.7,2.9-1.1,5.1-1.4l2-.2c1.1-.1,1.9-.3,2.3-.5.8-.4,1.3-.9,1.3-1.7s-.3-1.5-1-1.9-1.6-.5-2.8-.5-2.4.3-2.9,1c-.4.5-.7,1.2-.8,2.1h-5.6c.1-2,.7-3.6,1.6-4.8ZM1302.5,377.6c.5.5,1.2.7,2,.7,1.3,0,2.4-.4,3.5-1.1s1.6-2.1,1.7-4v-2.2c-.4.2-.7.4-1.1.6s-.9.3-1.5.4l-1.3.2c-1.2.2-2.1.5-2.6.8-.9.5-1.4,1.4-1.4,2.5s.3,1.7.8,2.2Z" fill="#fff"/>
    <path d="M1320.8,351.6h5.8v30.2h-5.8v-30.2Z" fill="#fff"/>
    <path d="M1338.3,351.5v5.4h-5.9v-5.4h5.9ZM1338.3,359.5v22.4h-5.9v-22.4h5.9Z" fill="#fff"/>
    <path d="M1361.2,381.9h-19.3v-4.6l11.5-13h-10.7v-4.8h18.1v4.9l-11.3,12.7h11.7v4.8Z" fill="#fff"/>
    <path d="M1365.8,361.9c1.5-2,4.2-3,8-3s4.6.5,6.5,1.5,2.9,2.8,2.9,5.5v10.3c0,.7,0,1.6,0,2.6,0,.8.2,1.3.3,1.6s.5.5.9.7v.9h-6.4c-.2-.5-.3-.9-.4-1.3s-.1-.8-.2-1.4c-.8.9-1.7,1.6-2.8,2.2-1.3.7-2.7,1.1-4.3,1.1s-3.7-.6-5-1.7-2-2.8-2-4.9,1.1-4.7,3.2-6c1.2-.7,2.9-1.1,5.1-1.4l2-.2c1.1-.1,1.9-.3,2.3-.5.8-.4,1.3-.9,1.3-1.7s-.3-1.5-1-1.9-1.6-.5-2.8-.5-2.4.3-2.9,1c-.4.5-.7,1.2-.8,2.1h-5.6c.1-2,.7-3.6,1.6-4.8ZM1370.2,377.6c.5.5,1.2.7,2,.7,1.3,0,2.4-.4,3.5-1.1s1.6-2.1,1.7-4v-2.2c-.4.2-.7.4-1.1.6s-.9.3-1.5.4l-1.3.2c-1.2.2-2.1.5-2.6.8-.9.5-1.4,1.4-1.4,2.5s.3,1.7.8,2.2Z" fill="#fff"/>
    <path d="M1398.6,377.7v4.4h-2.8c-2.8.2-4.6-.3-5.7-1.3-.7-.7-1-1.7-1-3.1v-13.8h-3.1v-4.2h3.1v-6.2h5.8v6.2h3.6v4.2h-3.6v11.8c0,.9.1,1.5.3,1.7s.9.3,2.1.3.4,0,.6,0,.4,0,.6,0Z" fill="#fff"/>
    <path d="M1408.4,351.5v5.4h-5.9v-5.4h5.9ZM1408.4,359.5v22.4h-5.9v-22.4h5.9Z" fill="#fff"/>
    <path d="M1432.7,362.3c1.9,2.4,2.8,5.2,2.8,8.4s-.9,6.1-2.8,8.4-4.8,3.5-8.6,3.5-6.7-1.2-8.6-3.5-2.8-5.1-2.8-8.4.9-6,2.8-8.4,4.8-3.5,8.6-3.5,6.7,1.2,8.6,3.5ZM1424,363.7c-1.7,0-3,.6-3.9,1.8s-1.4,2.9-1.4,5.2.5,4,1.4,5.2,2.2,1.8,3.9,1.8,3-.6,3.9-1.8,1.4-2.9,1.4-5.2-.5-4-1.4-5.2-2.2-1.8-3.9-1.8Z" fill="#fff"/>
    <path d="M1450.2,363.8c-2,0-3.3.8-4.1,2.5-.4.9-.6,2-.6,3.4v12.1h-5.8v-22.3h5.6v3.3c.8-1.1,1.5-2,2.1-2.5,1.2-.9,2.7-1.4,4.6-1.4s4.2.6,5.7,1.8c1.5,1.2,2.2,3.2,2.2,6v15.1h-6v-13.6c0-1.2-.2-2.1-.5-2.7-.6-1.1-1.7-1.7-3.3-1.7Z" fill="#fff"/>
  </g>
</svg>