<?xml version="1.0" encoding="UTF-8"?>
<svg id="Layer_1" xmlns="http://www.w3.org/2000/svg" xmlns:xlink="http://www.w3.org/1999/xlink" version="1.1" viewBox="0 0 1173.5 600">
  <!-- Generator: Adobe Illustrator 29.4.0, SVG Export Plug-In . SVG Version: 2.1.0 Build 152)  -->
  <defs>
    <linearGradient id="linear-gradient" x1="-740.6" y1="3.7" x2="-739.6" y2="4.7" gradientTransform="translate(148201.7 -238) scale(200 120)" gradientUnits="userSpaceOnUse">
      <stop offset="0" stop-color="#a0f0d0"/>
      <stop offset="1" stop-color="#80e0c0"/>
    </linearGradient>
    <linearGradient id="linear-gradient1" x1="-739.6" y1="3.9" x2="-738.6" y2="4.9" gradientTransform="translate(148401.7 -388) scale(200 120)" gradientUnits="userSpaceOnUse">
      <stop offset="0" stop-color="#f0a0d0"/>
      <stop offset="1" stop-color="#e080c0"/>
    </linearGradient>
    <linearGradient id="linear-gradient2" x1="-739.5" y1="3.6" x2="-738.5" y2="4.6" gradientTransform="translate(148401.7 -88) scale(200 120)" gradientUnits="userSpaceOnUse">
      <stop offset="0" stop-color="#d0f0a0"/>
      <stop offset="1" stop-color="#c0e080"/>
    </linearGradient>
    <linearGradient id="linear-gradient3" x1="-738.7" y1="3.7" x2="-737.7" y2="4.7" gradientTransform="translate(148601.7 -238) scale(200 120)" gradientUnits="userSpaceOnUse">
      <stop offset="0" stop-color="#f0f0a0"/>
      <stop offset="1" stop-color="#e0e080"/>
    </linearGradient>
  </defs>
  <ellipse cx="196.8" cy="270" rx="100" ry="60" fill="url(#linear-gradient)" stroke="#333" stroke-width="2"/>
  <g isolation="isolate">
    <path d="M173.3,276.4v-17.2h5.9c1.3,0,2.4,0,3.1.2,1,.2,1.8.6,2.5,1.2.9.8,1.6,1.7,2,2.9s.7,2.6.7,4.1-.2,2.5-.5,3.5-.7,1.8-1.2,2.5-1,1.2-1.6,1.6-1.2.7-2.1.9-1.7.3-2.8.3h-6.2.2ZM175.5,274.4h3.7c1.1,0,2-.1,2.7-.3s1.2-.5,1.5-.9,1-1.3,1.3-2.2.5-2,.5-3.3-.3-3.2-.9-4.1-1.3-1.6-2.2-1.9c-.6-.2-1.6-.4-2.9-.4h-3.6v13.1h-.1Z"/>
    <path d="M198.5,274.9c-.8.7-1.5,1.1-2.3,1.4s-1.5.4-2.3.4c-1.4,0-2.4-.3-3.2-1s-1.1-1.5-1.1-2.6.1-1.2.4-1.7.6-.9,1.1-1.2,1-.5,1.5-.7c.4-.1,1-.2,1.9-.3,1.7-.2,3-.4,3.8-.7v-.6c0-.9-.2-1.5-.6-1.8-.5-.5-1.3-.7-2.4-.7s-1.7.2-2.2.5-.8,1-1,1.8l-2.1-.3c.2-.9.5-1.6.9-2.1s1.1-1,1.9-1.3,1.8-.4,2.8-.4,1.9.1,2.6.4,1.2.6,1.5.9.5.9.7,1.4c0,.4.1,1,.1,1.9v2.8c0,2,0,3.2.1,3.7s.3,1,.5,1.5h-2.2c-.2-.4-.4-.9-.4-1.5v.2ZM198.3,270.2c-.8.3-1.9.6-3.4.8-.9.1-1.5.3-1.8.4s-.6.4-.8.7-.3.6-.3,1c0,.6.2,1,.6,1.4s1,.6,1.9.6,1.5-.2,2.2-.5,1.1-.8,1.4-1.5c.2-.5.3-1.2.3-2.1v-.8h0Z"/>
    <path d="M208.3,274.5l.3,1.9c-.6.1-1.1.2-1.6.2-.8,0-1.4-.1-1.8-.4s-.7-.6-.9-1-.3-1.2-.3-2.5v-7.2h-1.5v-1.6h1.5v-3.1l2.1-1.3v4.3h2.1v1.6h-2.1v7.3c0,.6,0,1,.1,1.2s.2.3.4.4.4.2.7.2h1Z"/>
    <path d="M218.5,274.9c-.8.7-1.5,1.1-2.3,1.4s-1.5.4-2.3.4c-1.4,0-2.4-.3-3.2-1s-1.1-1.5-1.1-2.6.1-1.2.4-1.7.6-.9,1.1-1.2,1-.5,1.5-.7c.4-.1,1-.2,1.9-.3,1.7-.2,3-.4,3.8-.7v-.6c0-.9-.2-1.5-.6-1.8-.5-.5-1.3-.7-2.4-.7s-1.7.2-2.2.5-.8,1-1,1.8l-2.1-.3c.2-.9.5-1.6.9-2.1s1.1-1,1.9-1.3,1.8-.4,2.8-.4,1.9.1,2.6.4,1.2.6,1.5.9.5.9.7,1.4c0,.4.1,1,.1,1.9v2.8c0,2,0,3.2.1,3.7s.3,1,.5,1.5h-2.2c-.2-.4-.4-.9-.4-1.5v.2ZM218.3,270.2c-.8.3-1.9.6-3.4.8-.9.1-1.5.3-1.8.4s-.6.4-.8.7-.3.6-.3,1c0,.6.2,1,.6,1.4s1,.6,1.9.6,1.5-.2,2.2-.5,1.1-.8,1.4-1.5c.2-.5.3-1.2.3-2.1v-.8h0Z"/>
  </g>
  <g isolation="isolate">
    <path d="M661.7,584.5v-22.9h16.6v2.7h-13.5v7h12.7v2.7h-12.7v7.8h14.1v2.7h-17.2Z"/>
    <path d="M680.8,584.5l6.1-8.6-5.6-8h3.5l2.5,3.9c.5.7.9,1.4,1.2,1.9.5-.7.9-1.3,1.3-1.8l2.8-3.9h3.4l-5.7,7.8,6.2,8.8h-3.5l-3.4-5.2-.9-1.4-4.4,6.5h-3.5Z"/>
    <path d="M698.7,590.9v-23h2.6v2.2c.6-.8,1.3-1.5,2-1.9.8-.4,1.7-.6,2.8-.6s2.7.4,3.8,1.1c1.1.7,1.9,1.8,2.5,3.1s.8,2.8.8,4.4-.3,3.2-.9,4.6-1.5,2.4-2.7,3.1c-1.2.7-2.4,1.1-3.7,1.1s-1.8-.2-2.5-.6c-.7-.4-1.4-.9-1.8-1.5v8.1h-2.9ZM701.2,576.3c0,2.1.4,3.7,1.3,4.7.9,1,1.9,1.5,3.1,1.5s2.3-.5,3.2-1.6,1.3-2.7,1.3-4.9-.4-3.7-1.3-4.8c-.9-1.1-1.9-1.6-3.1-1.6s-2.3.6-3.2,1.7c-.9,1.1-1.4,2.7-1.4,4.9h.1Z"/>
    <path d="M716.4,584.5v-22.9h2.8v22.9h-2.8Z"/>
    <path d="M722.5,576.2c0-3.1.9-5.3,2.6-6.8,1.4-1.2,3.2-1.8,5.2-1.8s4.1.7,5.6,2.2c1.4,1.5,2.2,3.6,2.2,6.2s-.3,3.8-1,5c-.6,1.2-1.6,2.2-2.8,2.9s-2.6,1-4,1c-2.3,0-4.2-.7-5.6-2.2-1.4-1.5-2.1-3.6-2.1-6.4h-.1ZM725.4,576.2c0,2.1.5,3.7,1.4,4.8s2.1,1.6,3.5,1.6,2.6-.5,3.5-1.6,1.4-2.7,1.4-4.9-.5-3.6-1.4-4.7c-.9-1.1-2.1-1.6-3.5-1.6s-2.6.5-3.5,1.6-1.4,2.6-1.4,4.8h0Z"/>
    <path d="M741.3,584.5v-16.6h2.5v2.5c.6-1.2,1.2-2,1.8-2.3s1.1-.6,1.8-.6,1.9.3,2.9.9l-1,2.6c-.7-.4-1.4-.6-2.1-.6s-1.2.2-1.7.6c-.5.4-.8.9-1,1.5-.3,1-.5,2.1-.5,3.3v8.7h-2.8,0Z"/>
    <path d="M762.8,582.5c-1,.9-2,1.5-3,1.9s-2,.5-3.1.5c-1.8,0-3.2-.4-4.2-1.3-1-.9-1.5-2-1.5-3.4s.2-1.6.6-2.2c.4-.7.9-1.2,1.5-1.6.6-.4,1.3-.7,2-.9.6,0,1.4-.3,2.5-.4,2.3-.3,3.9-.6,5-1v-.7c0-1.1-.3-2-.8-2.4-.7-.6-1.8-1-3.2-1s-2.3.2-2.9.7c-.6.5-1.1,1.3-1.4,2.5l-2.8-.4c.2-1.2.7-2.1,1.2-2.9.6-.7,1.4-1.3,2.5-1.7s2.3-.6,3.8-.6,2.6.2,3.5.5,1.5.8,2,1.3c.4.5.7,1.1.9,1.9,0,.5,0,1.3,0,2.6v3.8c0,2.6,0,4.3.2,5,0,.7.4,1.4.7,2h-2.9c-.3-.6-.5-1.3-.6-2v-.2ZM762.6,576.2c-1,.4-2.6.8-4.6,1.1-1.2.2-2,.4-2.5.6-.5.2-.8.5-1.1.9s-.4.8-.4,1.3c0,.8.3,1.4.9,1.9.6.5,1.4.8,2.5.8s2-.2,2.9-.7c.8-.5,1.5-1.1,1.9-1.9s.5-1.6.5-2.8v-1.2Z"/>
    <path d="M776,582l.4,2.5c-.8.2-1.5.2-2.1.2-1,0-1.8-.2-2.4-.5s-1-.7-1.2-1.3c-.2-.5-.3-1.6-.3-3.3v-9.5h-2.1v-2.2h2.1v-4.1l2.8-1.7v5.8h2.8v2.2h-2.8v9.7c0,.8,0,1.3,0,1.5,0,.2.3.4.5.5s.5.2,1,.2.7,0,1.2,0h0Z"/>
    <path d="M778.7,564.9v-3.2h2.8v3.2h-2.8ZM778.7,584.5v-16.6h2.8v16.6h-2.8Z"/>
    <path d="M784.8,576.2c0-3.1.9-5.3,2.6-6.8,1.4-1.2,3.2-1.8,5.2-1.8s4.1.7,5.6,2.2c1.4,1.5,2.2,3.6,2.2,6.2s-.3,3.8-1,5c-.6,1.2-1.6,2.2-2.8,2.9s-2.6,1-4,1c-2.3,0-4.2-.7-5.6-2.2-1.4-1.5-2.1-3.6-2.1-6.4h-.1ZM787.7,576.2c0,2.1.5,3.7,1.4,4.8s2.1,1.6,3.5,1.6,2.6-.5,3.5-1.6,1.4-2.7,1.4-4.9-.5-3.6-1.4-4.7c-.9-1.1-2.1-1.6-3.5-1.6s-2.6.5-3.5,1.6-1.4,2.6-1.4,4.8h0Z"/>
    <path d="M803.6,584.5v-16.6h2.5v2.4c1.2-1.8,3-2.7,5.3-2.7s1.9.2,2.8.5c.8.4,1.5.8,1.9,1.4.4.6.7,1.3.9,2.1,0,.5.2,1.4.2,2.7v10.2h-2.8v-10.1c0-1.1,0-2-.3-2.6s-.6-1-1.2-1.4c-.6-.3-1.2-.5-2-.5-1.2,0-2.2.4-3.1,1.1-.9.8-1.3,2.2-1.3,4.3v9.1h-2.9Z"/>
  </g>
  <g isolation="isolate">
    <path d="M872,584.5v-22.9h16.6v2.7h-13.5v7h12.7v2.7h-12.7v7.8h14.1v2.7h-17.2Z"/>
    <path d="M891.1,584.5l6.1-8.6-5.6-8h3.5l2.5,3.9c.5.7.9,1.4,1.2,1.9.5-.7.9-1.3,1.3-1.8l2.8-3.9h3.4l-5.7,7.8,6.2,8.8h-3.5l-3.4-5.2-.9-1.4-4.4,6.5h-3.5Z"/>
    <path d="M908.9,590.9v-23h2.6v2.2c.6-.8,1.3-1.5,2-1.9.8-.4,1.7-.6,2.8-.6s2.7.4,3.8,1.1c1.1.7,1.9,1.8,2.5,3.1s.8,2.8.8,4.4-.3,3.2-.9,4.6-1.5,2.4-2.7,3.1c-1.2.7-2.4,1.1-3.7,1.1s-1.8-.2-2.5-.6c-.7-.4-1.4-.9-1.8-1.5v8.1h-2.9ZM911.5,576.3c0,2.1.4,3.7,1.3,4.7.9,1,1.9,1.5,3.1,1.5s2.3-.5,3.2-1.6,1.3-2.7,1.3-4.9-.4-3.7-1.3-4.8c-.9-1.1-1.9-1.6-3.1-1.6s-2.3.6-3.2,1.7c-.9,1.1-1.4,2.7-1.4,4.9h.1Z"/>
    <path d="M926.7,584.5v-22.9h2.8v22.9h-2.8Z"/>
    <path d="M944.7,582.5c-1,.9-2,1.5-3,1.9s-2,.5-3.1.5c-1.8,0-3.2-.4-4.2-1.3-1-.9-1.5-2-1.5-3.4s.2-1.6.6-2.2c.4-.7.9-1.2,1.5-1.6.6-.4,1.3-.7,2-.9.6,0,1.4-.3,2.5-.4,2.3-.3,3.9-.6,5-1v-.7c0-1.1-.3-2-.8-2.4-.7-.6-1.8-1-3.2-1s-2.3.2-2.9.7c-.6.5-1.1,1.3-1.4,2.5l-2.8-.4c.2-1.2.7-2.1,1.2-2.9.6-.7,1.4-1.3,2.5-1.7s2.3-.6,3.8-.6,2.6.2,3.5.5,1.5.8,2,1.3c.4.5.7,1.1.9,1.9,0,.5,0,1.3,0,2.6v3.8c0,2.6,0,4.3.2,5,0,.7.4,1.4.7,2h-2.9c-.3-.6-.5-1.3-.6-2v-.2ZM944.4,576.2c-1,.4-2.6.8-4.6,1.1-1.2.2-2,.4-2.5.6-.5.2-.8.5-1.1.9s-.4.8-.4,1.3c0,.8.3,1.4.9,1.9.6.5,1.4.8,2.5.8s2-.2,2.9-.7c.8-.5,1.5-1.1,1.9-1.9s.5-1.6.5-2.8v-1.2Z"/>
    <path d="M951.6,584.5v-16.6h2.5v2.4c1.2-1.8,3-2.7,5.3-2.7s1.9.2,2.8.5c.8.4,1.5.8,1.9,1.4.4.6.7,1.3.9,2.1,0,.5.2,1.4.2,2.7v10.2h-2.8v-10.1c0-1.1,0-2-.3-2.6s-.6-1-1.2-1.4c-.6-.3-1.2-.5-2-.5-1.2,0-2.2.4-3.1,1.1-.9.8-1.3,2.2-1.3,4.3v9.1h-2.9Z"/>
    <path d="M980.3,582.5c-1,.9-2,1.5-3,1.9s-2,.5-3.1.5c-1.8,0-3.2-.4-4.2-1.3-1-.9-1.5-2-1.5-3.4s.2-1.6.6-2.2c.4-.7.9-1.2,1.5-1.6.6-.4,1.3-.7,2-.9.6,0,1.4-.3,2.5-.4,2.3-.3,3.9-.6,5-1v-.7c0-1.1-.3-2-.8-2.4-.7-.6-1.8-1-3.2-1s-2.3.2-2.9.7c-.6.5-1.1,1.3-1.4,2.5l-2.8-.4c.2-1.2.7-2.1,1.2-2.9.6-.7,1.4-1.3,2.5-1.7s2.3-.6,3.8-.6,2.6.2,3.5.5,1.5.8,2,1.3c.4.5.7,1.1.9,1.9,0,.5,0,1.3,0,2.6v3.8c0,2.6,0,4.3.2,5,0,.7.4,1.4.7,2h-2.9c-.3-.6-.5-1.3-.6-2v-.2ZM980,576.2c-1,.4-2.6.8-4.6,1.1-1.2.2-2,.4-2.5.6-.5.2-.8.5-1.1.9s-.4.8-.4,1.3c0,.8.3,1.4.9,1.9.6.5,1.4.8,2.5.8s2-.2,2.9-.7c.8-.5,1.5-1.1,1.9-1.9s.5-1.6.5-2.8v-1.2Z"/>
    <path d="M993.4,582l.4,2.5c-.8.2-1.5.2-2.1.2-1,0-1.8-.2-2.4-.5s-1-.7-1.2-1.3c-.2-.5-.3-1.6-.3-3.3v-9.5h-2.1v-2.2h2.1v-4.1l2.8-1.7v5.8h2.8v2.2h-2.8v9.7c0,.8,0,1.3,0,1.5,0,.2.3.4.5.5s.5.2,1,.2.7,0,1.2,0h0Z"/>
    <path d="M996.1,564.9v-3.2h2.8v3.2h-2.8ZM996.1,584.5v-16.6h2.8v16.6h-2.8Z"/>
    <path d="M1002.2,576.2c0-3.1.9-5.3,2.6-6.8,1.4-1.2,3.2-1.8,5.2-1.8s4.1.7,5.6,2.2c1.4,1.5,2.2,3.6,2.2,6.2s-.3,3.8-1,5c-.6,1.2-1.6,2.2-2.8,2.9-1.2.7-2.6,1-4,1-2.3,0-4.2-.7-5.6-2.2s-2.1-3.6-2.1-6.4h0ZM1005.1,576.2c0,2.1.5,3.7,1.4,4.8s2.1,1.6,3.5,1.6,2.6-.5,3.5-1.6,1.4-2.7,1.4-4.9-.5-3.6-1.4-4.7c-.9-1.1-2.1-1.6-3.5-1.6s-2.6.5-3.5,1.6-1.4,2.6-1.4,4.8h0Z"/>
    <path d="M1021,584.5v-16.6h2.5v2.4c1.2-1.8,3-2.7,5.3-2.7s1.9.2,2.8.5c.8.4,1.5.8,1.9,1.4.4.6.7,1.3.9,2.1,0,.5.2,1.4.2,2.7v10.2h-2.8v-10.1c0-1.1,0-2-.3-2.6-.2-.6-.6-1-1.2-1.4-.6-.3-1.2-.5-2-.5-1.2,0-2.2.4-3.1,1.1-.9.8-1.3,2.2-1.3,4.3v9.1h-2.9Z"/>
  </g>
  <ellipse cx="586.8" cy="140" rx="100" ry="60" fill="url(#linear-gradient1)" stroke="#333" stroke-width="2"/>
  <g isolation="isolate">
    <path d="M526.4,146.4l-6.7-17.2h2.5l4.5,12.5c.4,1,.7,1.9.9,2.8.3-.9.6-1.9.9-2.8l4.6-12.5h2.3l-6.7,17.2h-2.3Z" fill="#333"/>
    <path d="M536.8,131.6v-2.4h2.1v2.4h-2.1ZM536.8,146.4v-12.4h2.1v12.4h-2.1Z" fill="#333"/>
    <path d="M541.3,142.7l2.1-.3c0,.8.4,1.5,1,1.9s1.3.7,2.2.7,1.7-.2,2.2-.6.7-.9.7-1.4-.2-.9-.6-1.1c-.3-.2-1-.4-2.2-.7-1.5-.4-2.6-.7-3.2-1s-1.1-.7-1.4-1.2-.5-1.1-.5-1.7,0-1.1.4-1.5.6-.9,1-1.2c.3-.2.8-.4,1.3-.6s1.2-.3,1.8-.3c1,0,1.8.1,2.6.4s1.3.7,1.6,1.1.6,1.1.7,1.9l-2.1.3c0-.6-.4-1.1-.8-1.5s-1.1-.5-1.9-.5-1.7.2-2.1.5-.6.7-.6,1.1,0,.5.3.7c.2.2.4.4.8.6.2,0,.8.3,1.9.5,1.5.4,2.5.7,3.1,1s1.1.6,1.4,1.1.5,1.1.5,1.8-.2,1.4-.6,2-1,1.1-1.8,1.4-1.6.5-2.6.5c-1.6,0-2.8-.3-3.7-1s-1.4-1.7-1.6-3h0Z" fill="#333"/>
    <path d="M562.3,146.4v-1.8c-1,1.4-2.3,2.1-3.9,2.1s-1.4-.1-2.1-.4-1.1-.6-1.4-1.1-.5-.9-.7-1.6c0-.4,0-1.1,0-2v-7.7h2.1v6.9c0,1.1,0,1.8,0,2.2,0,.6.4,1,.8,1.3s1,.5,1.6.5,1.2-.2,1.8-.5.9-.8,1.2-1.3.3-1.4.3-2.4v-6.7h2.1v12.4h-1.9.1Z" fill="#333"/>
    <path d="M575.6,144.9c-.8.7-1.5,1.1-2.3,1.4s-1.5.4-2.3.4c-1.4,0-2.4-.3-3.2-1s-1.1-1.5-1.1-2.6,0-1.2.4-1.7.6-.9,1.1-1.2,1-.5,1.5-.7c.4-.1,1-.2,1.9-.3,1.7-.2,3-.4,3.8-.7v-.6c0-.9-.2-1.5-.6-1.8-.5-.5-1.3-.7-2.4-.7s-1.7.2-2.2.5-.8,1-1,1.8l-2.1-.3c.2-.9.5-1.6.9-2.1s1.1-1,1.9-1.3,1.8-.4,2.8-.4,1.9.1,2.6.4,1.2.6,1.5.9.5.9.7,1.4c0,.4,0,1,0,1.9v2.8c0,2,0,3.2,0,3.7s.3,1,.5,1.5h-2.2c-.2-.4-.4-.9-.4-1.5v.2ZM575.4,140.2c-.8.3-1.9.6-3.4.8-.9.1-1.5.3-1.8.4s-.6.4-.8.7-.3.6-.3,1c0,.6.2,1,.6,1.4s1,.6,1.9.6,1.5-.2,2.2-.5,1.1-.8,1.4-1.5c.2-.5.3-1.2.3-2.1v-.8h-.1Z" fill="#333"/>
    <path d="M580.8,146.4v-17.2h2.1v17.2h-2.1Z" fill="#333"/>
    <path d="M586.1,131.6v-2.4h2.1v2.4h-2.1ZM586.1,146.4v-12.4h2.1v12.4h-2.1Z" fill="#333"/>
    <path d="M590.4,146.4v-1.7l7.9-9.1h-7.5v-1.7h10.2v1.4l-6.7,7.9-1.3,1.4c.9,0,1.8-.1,2.7-.1h5.8v1.8h-11.1Z" fill="#333"/>
    <path d="M611.6,144.9c-.8.7-1.5,1.1-2.3,1.4s-1.5.4-2.3.4c-1.4,0-2.4-.3-3.2-1s-1.1-1.5-1.1-2.6,0-1.2.4-1.7.6-.9,1.1-1.2,1-.5,1.5-.7c.4-.1,1-.2,1.9-.3,1.7-.2,3-.4,3.8-.7v-.6c0-.9-.2-1.5-.6-1.8-.5-.5-1.3-.7-2.4-.7s-1.7.2-2.2.5-.8,1-1,1.8l-2.1-.3c.2-.9.5-1.6.9-2.1s1.1-1,1.9-1.3,1.8-.4,2.8-.4,1.9.1,2.6.4,1.2.6,1.5.9.5.9.7,1.4c0,.4,0,1,0,1.9v2.8c0,2,0,3.2,0,3.7s.3,1,.5,1.5h-2.2c-.2-.4-.4-.9-.4-1.5v.2ZM611.4,140.2c-.8.3-1.9.6-3.4.8-.9.1-1.5.3-1.8.4s-.6.4-.8.7-.3.6-.3,1c0,.6.2,1,.6,1.4s1,.6,1.9.6,1.5-.2,2.2-.5,1.1-.8,1.4-1.5c.2-.5.3-1.2.3-2.1v-.8h-.1Z" fill="#333"/>
    <path d="M621.4,144.5l.3,1.9c-.6.1-1.1.2-1.6.2-.8,0-1.4-.1-1.8-.4s-.7-.6-.9-1-.3-1.2-.3-2.5v-7.2h-1.5v-1.6h1.5v-3.1l2.1-1.3v4.3h2.1v1.6h-2.1v7.3c0,.6,0,1,0,1.2s.2.3.4.4.4.2.7.2h1Z" fill="#333"/>
    <path d="M623.5,131.6v-2.4h2.1v2.4h-2.1ZM623.5,146.4v-12.4h2.1v12.4h-2.1Z" fill="#333"/>
    <path d="M628,140.2c0-2.3.6-4,1.9-5.1,1.1-.9,2.4-1.4,3.9-1.4s3.1.6,4.2,1.7,1.6,2.7,1.6,4.6-.2,2.9-.7,3.8-1.2,1.6-2.1,2.1-1.9.8-3,.8c-1.7,0-3.2-.6-4.2-1.7s-1.6-2.7-1.6-4.8h0ZM630.2,140.2c0,1.6.3,2.8,1,3.6s1.6,1.2,2.6,1.2,1.9-.4,2.6-1.2,1-2,1-3.6-.3-2.7-1-3.5-1.6-1.2-2.6-1.2-1.9.4-2.6,1.2-1,2-1,3.6h0Z" fill="#333"/>
    <path d="M642.2,146.4v-12.4h1.9v1.8c.9-1.4,2.2-2.1,4-2.1s1.4.1,2.1.4,1.1.6,1.4,1.1.5,1,.7,1.6c0,.4,0,1.1,0,2.1v7.7h-2.1v-7.6c0-.9,0-1.5-.2-1.9s-.5-.8-.9-1-.9-.4-1.5-.4c-.9,0-1.7.3-2.3.9s-1,1.7-1,3.2v6.8h-2.1v-.2Z" fill="#333"/>
  </g>
  <ellipse cx="586.8" cy="400" rx="100" ry="60" fill="url(#linear-gradient2)" stroke="#333" stroke-width="2"/>
  <g isolation="isolate">
    <path d="M549.9,406.4v-17.2h3.4l4.1,12.2c.4,1.1.6,2,.8,2.5.2-.6.5-1.5.9-2.8l4.1-12h3.1v17.2h-2.2v-14.4l-5,14.4h-2.1l-5-14.6v14.6h-2.2.1Z" fill="#333"/>
    <path d="M568.9,400.2c0-2.3.6-4,1.9-5.1,1.1-.9,2.4-1.4,3.9-1.4s3.1.6,4.2,1.7,1.6,2.7,1.6,4.6-.2,2.9-.7,3.8-1.2,1.6-2.1,2.1-1.9.8-3,.8c-1.7,0-3.2-.6-4.2-1.7s-1.6-2.7-1.6-4.8h0ZM571,400.2c0,1.6.3,2.8,1,3.6s1.6,1.2,2.6,1.2,1.9-.4,2.6-1.2,1-2,1-3.6-.3-2.7-1-3.5-1.6-1.2-2.6-1.2-1.9.4-2.6,1.2-1,2-1,3.6h0Z" fill="#333"/>
    <path d="M591.1,406.4v-1.6c-.8,1.2-1.9,1.9-3.5,1.9s-1.9-.3-2.7-.8-1.5-1.3-1.9-2.3-.7-2.1-.7-3.4.2-2.4.6-3.4,1-1.8,1.9-2.3,1.8-.8,2.8-.8,1.4.2,2,.5,1.1.7,1.4,1.2v-6.2h2.1v17.2h-2,0ZM584.4,400.2c0,1.6.3,2.8,1,3.6s1.5,1.2,2.4,1.2,1.7-.4,2.3-1.1,1-1.9,1-3.5-.3-3-1-3.8-1.5-1.2-2.4-1.2-1.7.4-2.3,1.1-.9,2-.9,3.6h0Z" fill="#333"/>
    <path d="M604.9,402.4l2.2.3c-.3,1.3-1,2.3-1.9,3s-2.1,1.1-3.6,1.1-3.3-.6-4.3-1.7-1.6-2.7-1.6-4.7.5-3.7,1.6-4.9,2.5-1.7,4.2-1.7,3,.6,4.1,1.7,1.6,2.7,1.6,4.8,0,.3,0,.6h-9.3c0,1.4.5,2.4,1.2,3.1s1.6,1.1,2.6,1.1,1.4-.2,2-.6,1-1.1,1.3-1.9v-.2ZM598,399h6.9c0-1-.4-1.8-.8-2.4-.7-.8-1.5-1.2-2.6-1.2s-1.8.3-2.4,1-1,1.5-1.1,2.6h0Z" fill="#333"/>
    <path d="M609.7,406.4v-17.2h2.1v17.2h-2.1Z" fill="#333"/>
    <path d="M614.2,402.7l2.1-.3c0,.8.4,1.5,1,1.9s1.3.7,2.2.7,1.7-.2,2.2-.6.7-.9.7-1.4-.2-.9-.6-1.1c-.3-.2-1-.4-2.2-.7-1.5-.4-2.6-.7-3.2-1s-1.1-.7-1.4-1.2-.5-1.1-.5-1.7,0-1.1.4-1.5.6-.9,1-1.2c.3-.2.8-.4,1.3-.6s1.2-.3,1.8-.3c1,0,1.8.1,2.6.4s1.3.7,1.6,1.1.6,1.1.7,1.9l-2.1.3c0-.6-.4-1.1-.8-1.5s-1.1-.5-1.9-.5-1.7.2-2.1.5-.6.7-.6,1.1,0,.5.3.7c.2.2.4.4.8.6.2,0,.8.3,1.9.5,1.5.4,2.5.7,3.1,1s1.1.6,1.4,1.1.5,1.1.5,1.8-.2,1.4-.6,2-1,1.1-1.8,1.4-1.6.5-2.6.5c-1.6,0-2.8-.3-3.7-1s-1.4-1.7-1.6-3h0Z" fill="#333"/>
  </g>
  <ellipse cx="976.8" cy="270" rx="100" ry="60" fill="url(#linear-gradient3)" stroke="#333" stroke-width="2"/>
  <g isolation="isolate">
    <path d="M919.1,276.4v-17.2h2.3v8.5l8.5-8.5h3.1l-7.2,7,7.5,10.2h-3l-6.1-8.7-2.8,2.7v6h-2.3Z" fill="#333"/>
    <path d="M935,276.4v-12.4h1.9v1.8c.9-1.4,2.2-2.1,4-2.1s1.4.1,2.1.4,1.1.6,1.4,1.1.5,1,.7,1.6c0,.4,0,1.1,0,2.1v7.7h-2.1v-7.6c0-.9,0-1.5-.2-1.9s-.5-.8-.9-1-.9-.4-1.5-.4c-.9,0-1.7.3-2.3.9s-1,1.7-1,3.2v6.8h-2.1v-.2Z" fill="#333"/>
    <path d="M947.5,270.2c0-2.3.6-4,1.9-5.1,1.1-.9,2.4-1.4,3.9-1.4s3.1.6,4.2,1.7,1.6,2.7,1.6,4.6-.2,2.9-.7,3.8-1.2,1.6-2.1,2.1-1.9.8-3,.8c-1.7,0-3.2-.6-4.2-1.7s-1.6-2.7-1.6-4.8h0ZM949.7,270.2c0,1.6.3,2.8,1,3.6s1.6,1.2,2.6,1.2,1.9-.4,2.6-1.2,1-2,1-3.6-.3-2.7-1-3.5-1.6-1.2-2.6-1.2-1.9.4-2.6,1.2-1,2-1,3.6h0Z" fill="#333"/>
    <path d="M964,276.4l-3.8-12.4h2.2l2,7.2.7,2.7c0-.1.2-1,.6-2.6l2-7.3h2.2l1.9,7.2.6,2.4.7-2.4,2.1-7.2h2.1l-3.9,12.4h-2.2l-2-7.5-.5-2.1-2.5,9.6h-2.2,0Z" fill="#333"/>
    <path d="M979,276.4v-17.2h2.1v17.2h-2.1Z" fill="#333"/>
    <path d="M992.9,272.4l2.2.3c-.3,1.3-1,2.3-1.9,3s-2.1,1.1-3.6,1.1-3.3-.6-4.3-1.7-1.6-2.7-1.6-4.7.5-3.7,1.6-4.9,2.5-1.7,4.2-1.7,3,.6,4.1,1.7,1.6,2.7,1.6,4.8,0,.3,0,.6h-9.3c0,1.4.5,2.4,1.2,3.1s1.6,1.1,2.6,1.1,1.4-.2,2-.6,1-1.1,1.3-1.9v-.2ZM985.9,269h6.9c0-1-.4-1.8-.8-2.4-.7-.8-1.5-1.2-2.6-1.2s-1.8.3-2.4,1-1,1.5-1.1,2.6h0Z" fill="#333"/>
    <path d="M1005.8,276.4v-1.6c-.8,1.2-1.9,1.9-3.5,1.9s-1.9-.3-2.7-.8-1.5-1.3-1.9-2.3-.7-2.1-.7-3.4.2-2.4.6-3.4,1-1.8,1.9-2.3,1.8-.8,2.8-.8,1.4.2,2,.5,1.1.7,1.4,1.2v-6.2h2.1v17.2h-2,0ZM999.1,270.2c0,1.6.3,2.8,1,3.6s1.5,1.2,2.4,1.2,1.7-.4,2.3-1.1,1-1.9,1-3.5-.3-3-1-3.8-1.5-1.2-2.4-1.2-1.7.4-2.3,1.1-.9,2-.9,3.6h0Z" fill="#333"/>
    <path d="M1010.6,277.4l2.1.3c0,.6.3,1.1.7,1.4.5.4,1.2.6,2.1.6s1.7-.2,2.3-.6.9-.9,1.1-1.6c0-.4.2-1.3.2-2.7-.9,1.1-2.1,1.6-3.4,1.6s-3-.6-4-1.9-1.4-2.7-1.4-4.4.2-2.3.6-3.3,1.1-1.8,1.9-2.3,1.8-.8,2.9-.8,2.7.6,3.6,1.8v-1.5h1.9v10.8c0,1.9-.2,3.3-.6,4.1s-1,1.4-1.9,1.9-1.9.7-3.2.7-2.7-.3-3.6-1-1.4-1.7-1.3-3h0ZM1012.4,270c0,1.6.3,2.8,1,3.6s1.5,1.1,2.4,1.1,1.8-.4,2.4-1.1,1-1.9,1-3.5-.3-2.7-1-3.4-1.5-1.2-2.4-1.2-1.7.4-2.4,1.1-1,1.9-1,3.4Z" fill="#333"/>
    <path d="M1032.9,272.4l2.2.3c-.3,1.3-1,2.3-1.9,3s-2.1,1.1-3.6,1.1-3.3-.6-4.3-1.7-1.6-2.7-1.6-4.7.5-3.7,1.6-4.9,2.5-1.7,4.2-1.7,3,.6,4.1,1.7,1.6,2.7,1.6,4.8,0,.3,0,.6h-9.3c0,1.4.5,2.4,1.2,3.1s1.6,1.1,2.6,1.1,1.4-.2,2-.6,1-1.1,1.3-1.9v-.2ZM1026,269h6.9c0-1-.4-1.8-.8-2.4-.7-.8-1.5-1.2-2.6-1.2s-1.8.3-2.4,1-1,1.5-1.1,2.6Z" fill="#333"/>
  </g>
  <g>
    <line x1="246.8" y1="220" x2="501.7" y2="173.2" fill="none"/>
    <g>
      <line x1="246.8" y1="220" x2="494.6" y2="174.5" fill="none" stroke="#333" stroke-miterlimit="10"/>
      <polygon points="494.1 179.7 501.7 173.2 492.3 169.9 494.1 179.7" fill="#333"/>
    </g>
  </g>
  <g isolation="isolate">
    <path d="M331.4,172.3v-11.5h2.3l2.7,8.1c.2.8.4,1.3.5,1.7.1-.4.3-1,.6-1.8l2.7-8h2v11.5h-1.5v-9.6l-3.3,9.6h-1.4l-3.3-9.8v9.8h-1.5.2Z" fill="#333"/>
    <path d="M350,171.3c-.5.4-1,.8-1.5.9-.5.2-1,.3-1.6.3-.9,0-1.6-.2-2.1-.7-.5-.4-.7-1-.7-1.7s0-.8.3-1.1c.2-.3.4-.6.7-.8.3-.2.6-.4,1-.5.3,0,.7-.1,1.2-.2,1.1-.1,2-.3,2.5-.5v-.4c0-.6-.1-1-.4-1.2-.4-.3-.9-.5-1.6-.5s-1.1.1-1.5.3c-.3.2-.5.6-.7,1.2l-1.4-.2c.1-.6.3-1.1.6-1.4.3-.4.7-.6,1.2-.8s1.2-.3,1.9-.3,1.3,0,1.7.2c.4.2.8.4,1,.6.2.3.4.6.4,1v5.7c0,.3.2.7.4,1h-1.5c-.1-.3-.2-.6-.3-1h.4ZM349.9,168.1c-.5.2-1.3.4-2.3.5-.6,0-1,.2-1.2.3s-.4.3-.6.5c-.1.2-.2.4-.2.7s.1.7.4.9.7.4,1.2.4,1-.1,1.4-.4.7-.6.9-1c.2-.3.2-.8.2-1.4v-.5h.2Z" fill="#333"/>
    <path d="M353.5,175.5v-11.5h1.3v1.1c.3-.4.6-.7,1-.9s.8-.3,1.4-.3,1.3.2,1.9.5c.5.4,1,.9,1.2,1.5.3.7.4,1.4.4,2.2s-.2,1.6-.5,2.3-.7,1.2-1.3,1.6c-.6.4-1.2.5-1.8.5s-.9,0-1.3-.3c-.4-.2-.7-.4-.9-.8v4h-1.4ZM354.7,168.2c0,1.1.2,1.9.6,2.4s1,.8,1.6.8,1.2-.3,1.6-.8.7-1.3.7-2.5-.2-1.8-.7-2.4c-.4-.5-1-.8-1.6-.8s-1.1.3-1.6.8-.7,1.4-.7,2.4h.1Z" fill="#333"/>
    <path d="M362.4,175.5v-11.5h1.3v1.1c.3-.4.6-.7,1-.9s.8-.3,1.4-.3,1.3.2,1.9.5c.5.4,1,.9,1.2,1.5.3.7.4,1.4.4,2.2s-.2,1.6-.5,2.3-.7,1.2-1.3,1.6c-.6.4-1.2.5-1.8.5s-.9,0-1.3-.3c-.4-.2-.7-.4-.9-.8v4h-1.4ZM363.6,168.2c0,1.1.2,1.9.6,2.4s1,.8,1.6.8,1.2-.3,1.6-.8.7-1.3.7-2.5-.2-1.8-.7-2.4c-.4-.5-1-.8-1.6-.8s-1.1.3-1.6.8-.7,1.4-.7,2.4h.1Z" fill="#333"/>
    <path d="M371.3,162.5v-1.6h1.4v1.6h-1.4ZM371.3,172.3v-8.3h1.4v8.3h-1.4Z" fill="#333"/>
    <path d="M374.8,172.3v-8.3h1.3v1.2c.6-.9,1.5-1.4,2.6-1.4s1,0,1.4.3c.4.2.7.4.9.7.2.3.4.6.4,1v6.5h-1.4v-5c0-.6,0-1-.2-1.3s-.3-.5-.6-.7c-.3-.2-.6-.3-1-.3-.6,0-1.1.2-1.6.6-.4.4-.7,1.1-.7,2.2v4.5h-1.4.3Z" fill="#333"/>
    <path d="M383.4,173l1.4.2c0,.4.2.7.5.9.3.3.8.4,1.4.4s1.2-.1,1.5-.4c.4-.3.6-.6.7-1.1,0-.3.1-.9.1-1.8-.6.7-1.4,1.1-2.3,1.1s-2-.4-2.6-1.2-.9-1.8-.9-3,.1-1.5.4-2.2.7-1.2,1.2-1.6c.5-.4,1.2-.5,1.9-.5s1.8.4,2.4,1.2v-1h1.3v7.2c0,1.3-.1,2.2-.4,2.7s-.7,1-1.2,1.3-1.3.5-2.1.5-1.8-.2-2.4-.7-.9-1.1-.9-2h0ZM384.6,168c0,1.1.2,1.9.6,2.4s1,.8,1.6.8,1.2-.2,1.6-.7.7-1.3.7-2.3-.2-1.8-.7-2.3-1-.8-1.6-.8-1.2.3-1.6.8-.7,1.3-.7,2.3v-.2Z" fill="#333"/>
  </g>
  <g isolation="isolate">
    <path d="M21.2,541.6l6.5-11.5h1.8l1.9,11.5h-1.5l-.6-3.3h-4.6l-1.8,3.3s-1.7,0-1.7,0ZM25.4,537.1h3.8l-.4-2.9c-.2-1.1-.3-2.1-.3-2.9-.3.7-.6,1.4-1.1,2.3l-1.9,3.4h-.1Z" fill="#333"/>
    <path d="M38.4,540.4c-.8.9-1.7,1.4-2.5,1.4s-1.4-.3-2-.9-.8-1.4-.8-2.5.2-1.9.6-2.8.9-1.5,1.6-1.9c.6-.4,1.2-.6,1.9-.6,1,0,1.8.5,2.3,1.5l.9-4.5h1.4l-2.4,11.5h-1.3l.2-1.2h0ZM34.5,538.1c0,.6,0,1,.2,1.4,0,.3.3.6.6.8s.6.3,1,.3c.6,0,1.2-.3,1.7-1,.7-.9,1-2,1-3.3s-.2-1.2-.5-1.5-.8-.6-1.3-.6-.6,0-.9.2c-.3.2-.6.4-.8.8s-.5.8-.7,1.4-.3,1-.3,1.5h0Z" fill="#333"/>
    <path d="M47.3,540.6c-.5.4-1,.7-1.4.9s-.9.3-1.5.3-1.4-.2-1.9-.7-.7-1-.7-1.7,0-.9.3-1.2.5-.6.8-.9c.3-.2.8-.4,1.3-.5.3,0,.9,0,1.8,0s1.5,0,1.9-.3c0-.4.2-.7.2-1s0-.6-.4-.8c-.3-.3-.8-.4-1.4-.4s-1.1,0-1.5.4c-.4.3-.7.6-.8,1.1h-1.4c.3-.9.8-1.6,1.4-2s1.4-.7,2.4-.7,1.8.2,2.4.7c.5.4.7.8.7,1.4s0,1-.2,1.5l-.5,2.1c0,.7-.2,1.2-.2,1.6s0,.6.2,1.1h-1.4c0-.3,0-.6-.2-1v.2ZM47.8,537.4c-.2,0-.4,0-.6.2s-.6,0-1.1,0c-.8,0-1.4.2-1.7.3s-.6.3-.8.5-.3.5-.3.8,0,.7.4,1,.7.4,1.2.4.9,0,1.4-.4c.4-.2.8-.6,1-1s.4-1.1.6-1.9h-.1Z" fill="#333"/>
    <path d="M49.9,544.8l2.4-11.5h1.3l-.2,1.2c.5-.5.9-.9,1.3-1.1s.8-.3,1.2-.3c.8,0,1.4.3,2,.9.5.6.8,1.4.8,2.5s0,1.7-.4,2.4c-.3.7-.6,1.3-1.1,1.7-.4.4-.8.8-1.3,1-.4.2-.9.3-1.3.3-1,0-1.8-.5-2.3-1.5l-.9,4.5h-1.5ZM52.7,538.2c0,.6,0,1,0,1.3s.3.6.6.8.6.3,1,.3c.8,0,1.5-.5,2-1.4s.8-1.8.8-2.8-.2-1.2-.5-1.6-.8-.6-1.3-.6-.7,0-1,.3c-.3.2-.6.5-.9.9-.3.4-.5.8-.7,1.4s-.3,1-.3,1.4h.2Z" fill="#333"/>
    <path d="M62.8,540.5l-.2,1.2c-.3,0-.7,0-1,0-.6,0-1,0-1.3-.4-.2-.2-.4-.5-.4-.9s0-.6.2-1.3l1-4.8h-1.1l.2-1.1h1.1l.4-2,1.6-1-.6,3h1.4l-.2,1.1h-1.4l-1,4.6c0,.6-.2.9-.2,1,0,.2,0,.3,0,.4,0,0,.3,0,.5,0h.9Z" fill="#333"/>
    <path d="M70,538.8h1.4c-.2.8-.7,1.5-1.4,2.1s-1.6.9-2.5.9-1.2,0-1.7-.4c-.5-.3-.9-.7-1.2-1.2-.3-.5-.4-1.2-.4-1.9s.2-1.8.6-2.6c.4-.9,1-1.5,1.6-1.9.7-.4,1.4-.6,2.2-.6s1.8.3,2.4.9c.6.6.9,1.5.9,2.5s0,.8,0,1.2h-6.1v.4c0,.8.2,1.4.5,1.8.4.4.8.6,1.3.6s1-.2,1.4-.5.8-.8,1.1-1.4h0ZM65.9,536.7h4.7v-.3c0-.7-.2-1.3-.5-1.6-.4-.4-.8-.6-1.4-.6s-1.2.2-1.7.6c-.5.4-.9,1-1.1,1.9h0Z" fill="#333"/>
    <path d="M78.4,540.4c-.8.9-1.7,1.4-2.5,1.4s-1.4-.3-2-.9-.8-1.4-.8-2.5.2-1.9.6-2.8.9-1.5,1.6-1.9c.6-.4,1.2-.6,1.9-.6,1,0,1.8.5,2.3,1.5l.9-4.5h1.4l-2.4,11.5h-1.3l.2-1.2h.1ZM74.5,538.1c0,.6,0,1,.2,1.4,0,.3.3.6.6.8.3.2.6.3,1,.3.6,0,1.2-.3,1.7-1,.7-.9,1-2,1-3.3s-.2-1.2-.5-1.5-.8-.6-1.3-.6-.6,0-.9.2-.6.4-.8.8-.5.8-.7,1.4-.3,1-.3,1.5h0Z" fill="#333"/>
    <path d="M86.3,541.6l1.5-7.2h-1.3l.2-1.1h1.3l.2-1.2c0-.6.3-1,.4-1.3s.3-.5.6-.6c.3-.2.7-.3,1.2-.3s.9,0,1.6.2l-.3,1.2c-.5,0-.9-.2-1.2-.2s-.5,0-.6.2c0,0-.3.5-.4,1l-.2.9h1.6l-.2,1.1h-1.6l-1.5,7.2h-1.4.1Z" fill="#333"/>
    <path d="M90.6,541.6l1.7-8.3h1.2l-.4,1.7c.4-.6.8-1.1,1.3-1.4.4-.3.8-.5,1.3-.5s.6,0,1,.3l-.6,1.3c-.2-.2-.5-.3-.8-.3-.5,0-1,.3-1.5.8-.5.6-.9,1.5-1.2,3l-.7,3.3h-1.3Z" fill="#333"/>
    <path d="M96.2,538.5c0-1.6.5-3,1.4-4,.8-.9,1.8-1.3,3.1-1.3s1.8.3,2.4.9c.6.6.9,1.5.9,2.5s-.2,1.8-.6,2.7c-.4.8-.9,1.4-1.6,1.9s-1.5.7-2.2.7-1.2,0-1.8-.4c-.5-.3-.9-.7-1.2-1.2-.3-.5-.4-1.1-.4-1.8h0ZM97.6,538.3c0,.8.2,1.4.6,1.8s.9.6,1.4.6.6,0,.9-.2.6-.3.8-.6c.3-.2.5-.5.7-.9s.3-.7.4-1c.2-.5.2-1,.2-1.5,0-.8-.2-1.3-.6-1.7s-.9-.6-1.4-.6-.8,0-1.2.3c-.4.2-.7.5-1,.9s-.5.9-.6,1.4-.2,1-.2,1.4h0Z" fill="#333"/>
    <path d="M104.8,541.6l1.7-8.3h1.4l-.3,1.4c.5-.6,1-1,1.4-1.2s.9-.3,1.3-.3.9,0,1.3.4c.3.3.6.7.7,1.1.4-.5.9-.9,1.3-1.2.5-.3,1-.4,1.5-.4s1.2.2,1.6.5c.3.3.5.8.5,1.4s0,.7-.2,1.3l-1.1,5.3h-1.4l1.1-5.5c0-.4,0-.8,0-1s0-.5-.3-.6-.4-.2-.7-.2-.9,0-1.3.4-.8.6-1,1-.5,1.1-.6,1.9l-.8,4h-1.4l1.2-5.6c0-.4,0-.7,0-.8,0-.3,0-.5-.3-.7-.2-.2-.4-.2-.7-.2s-.8,0-1.3.4c-.4.3-.8.6-1.1,1.1-.3.5-.5,1.1-.7,1.9l-.8,3.9h-1.4.2Z" fill="#333"/>
    <path d="M118.5,541.6l.3-1.6h1.6l-.3,1.6h-1.6ZM119.9,534.9l.3-1.6h1.6l-.3,1.6h-1.6Z" fill="#333"/>
    <path d="M22.3,560.8l2.4-11.5h1.9l1.2,7.4c.2,1,.2,1.9.3,2.8.3-.8.8-1.8,1.6-3.1l4-7.1h1.9l-2.4,11.5h-1.5l1.2-5.6c.3-1.3.7-2.7,1.2-4.3-.3.7-.7,1.5-1.2,2.4l-4.3,7.5h-1.5l-1.1-7.3c-.1-.7-.2-1.5-.2-2.4-.1,1-.3,1.8-.4,2.4l-1.5,7.3h-1.6Z" fill="#333"/>
    <path d="M41,559.8c-.5.4-1,.7-1.4.9s-.9.3-1.5.3-1.4-.2-1.9-.7-.7-1-.7-1.7,0-.9.3-1.2.5-.6.8-.9c.3-.2.8-.4,1.3-.5.3,0,.9,0,1.8,0s1.5,0,1.9-.3c0-.4.2-.7.2-1s0-.6-.4-.8c-.3-.3-.8-.4-1.4-.4s-1.1,0-1.5.4c-.4.3-.7.6-.8,1.1h-1.4c.3-.9.8-1.6,1.4-2s1.4-.7,2.4-.7,1.8.2,2.4.7c.5.4.7.8.7,1.4s0,1-.2,1.5l-.5,2.1c0,.7-.2,1.2-.2,1.6s0,.6.2,1.1h-1.4c0-.3,0-.6-.2-1v.2ZM41.5,556.6c-.2,0-.4,0-.6.2s-.6,0-1.1,0c-.8,0-1.4.2-1.7.3s-.6.3-.8.5-.3.5-.3.8,0,.7.4,1,.7.4,1.2.4.9,0,1.4-.4c.4-.2.8-.6,1-1s.4-1.1.6-1.9h-.1Z" fill="#333"/>
    <path d="M44.5,558h1.4c0,.3,0,.7.2,1s.4.5.7.7.7.3,1.2.3,1.1,0,1.4-.4.5-.5.5-.9,0-.5-.3-.7c-.2-.2-.7-.5-1.4-.8s-1.2-.5-1.4-.7c-.3-.2-.6-.5-.8-.8s-.3-.6-.3-1c0-.7.3-1.2.8-1.7s1.2-.7,2.2-.7,1.8.2,2.4.7c.5.5.8,1.1.8,1.9h-1.4c0-.4-.2-.8-.5-1.1s-.8-.4-1.4-.4-.9,0-1.1.3c-.3.2-.4.5-.4.7s0,.5.4.7c.2,0,.6.3,1.2.6,1.1.5,1.8.8,2,1.1.4.4.7,1,.7,1.6s0,.8-.4,1.2c-.3.4-.6.7-1.2.9-.5.2-1.1.4-1.8.4s-1.8-.2-2.4-.7-1-1.2-1-2.3h-.1Z" fill="#333"/>
    <path d="M55.6,559.7l-.2,1.2c-.3,0-.7,0-1,0-.6,0-1,0-1.3-.4-.2-.2-.4-.5-.4-.9s0-.6.2-1.3l1-4.8h-1.1l.2-1.1h1.1l.4-2,1.6-1-.6,3h1.4l-.2,1.1h-1.4l-1,4.6c0,.6-.2.9-.2,1,0,.2,0,.3,0,.4,0,0,.3,0,.5,0h.9Z" fill="#333"/>
    <path d="M62.9,558h1.4c-.2.8-.7,1.5-1.4,2.1s-1.6.9-2.5.9-1.2,0-1.7-.4c-.5-.3-.9-.7-1.2-1.2s-.4-1.2-.4-1.9.2-1.8.6-2.6c.4-.9,1-1.5,1.6-1.9.7-.4,1.4-.6,2.2-.6s1.8.3,2.4.9c.6.6.9,1.5.9,2.5s0,.8,0,1.2h-6.1v.4c0,.8.2,1.4.5,1.8.4.4.8.6,1.3.6s1-.2,1.4-.5.8-.8,1.1-1.4h0ZM58.8,555.9h4.7v-.3c0-.7-.2-1.3-.5-1.6-.4-.4-.8-.6-1.4-.6s-1.2.2-1.7.6c-.5.4-.9,1-1.1,1.9h0Z" fill="#333"/>
    <path d="M65.7,560.8l1.7-8.3h1.2l-.4,1.7c.4-.6.8-1.1,1.3-1.4.4-.3.8-.5,1.3-.5s.6,0,1,.3l-.6,1.3c-.2-.2-.5-.3-.8-.3-.5,0-1,.3-1.5.8-.5.6-.9,1.5-1.2,3l-.7,3.3h-1.3Z" fill="#333"/>
    <path d="M70.9,560.8l1.7-8.3h1.4l-1.7,8.3h-1.4ZM73,551l.3-1.6h1.4l-.3,1.6h-1.4Z" fill="#333"/>
    <path d="M74.6,560.8l1.7-8.3h1.3l-.3,1.4c.6-.6,1.1-1,1.6-1.2s1-.4,1.5-.4,1.2.2,1.6.5.6.9.6,1.5,0,.8-.2,1.5l-1.1,5h-1.4l1.1-5.3c0-.5.2-.9.2-1.1s0-.5-.3-.7c-.2-.2-.5-.3-.8-.3-.7,0-1.4.3-1.9.8-.6.5-1,1.4-1.2,2.7l-.8,3.9h-1.6Z" fill="#333"/>
    <path d="M83.4,561.6h1.4c0,.5,0,.7,0,.9,0,.2.2.3.4.4.3,0,.6.2,1,.2.9,0,1.5-.2,1.8-.7.2-.3.5-.9.7-1.9v-.7c-.6.7-1.4,1.1-2.2,1.1s-1.5-.3-2.1-.9c-.6-.6-.8-1.5-.8-2.6s.2-1.8.7-2.6,1-1.4,1.6-1.8c.6-.4,1.2-.6,1.9-.6,1.1,0,1.9.5,2.5,1.5l.3-1.4h1.3l-1.7,8c-.2.9-.4,1.6-.7,2.1s-.7.9-1.2,1.1c-.5.3-1.1.4-1.8.4s-1.2,0-1.7-.3c-.5-.2-.8-.4-1.1-.8-.2-.3-.4-.7-.4-1.1v-.4h0ZM85.1,557.1c0,.6,0,1,.2,1.3.2.4.4.7.7.9s.6.3,1,.3.9-.2,1.4-.5.8-.8,1.1-1.5c.3-.7.4-1.3.4-2s-.2-1.2-.6-1.6c-.4-.4-.8-.6-1.4-.6s-.7,0-1,.3c-.3.2-.6.5-.9.8-.3.4-.5.8-.6,1.4,0,.5-.2.9-.2,1.2h0Z" fill="#333"/>
    <path d="M100.1,559.7l-.2,1.2c-.3,0-.7,0-1,0-.6,0-1,0-1.3-.4-.2-.2-.4-.5-.4-.9s0-.6.2-1.3l1-4.8h-1.1l.2-1.1h1.1l.4-2,1.6-1-.6,3h1.4l-.2,1.1h-1.4l-1,4.6c0,.6-.2.9-.2,1,0,.2,0,.3,0,.4,0,0,.3,0,.5,0h.9Z" fill="#333"/>
    <path d="M101.2,560.8l2.4-11.5h1.4l-.9,4.4c.5-.5,1-.9,1.5-1.1s.9-.3,1.4-.3,1.2.2,1.6.5c.4.4.6.8.6,1.4s0,.8-.2,1.6l-1,4.9h-1.4l1.1-5c.2-.7.2-1.2.2-1.4,0-.3,0-.5-.3-.7s-.5-.3-.8-.3c-.5,0-1,0-1.5.4-.5.3-.8.6-1.1,1.1-.3.5-.5,1.2-.7,2.3l-.7,3.6h-1.6Z" fill="#333"/>
    <path d="M116.2,558h1.4c-.2.8-.7,1.5-1.4,2.1s-1.6.9-2.5.9-1.2,0-1.7-.4c-.5-.3-.9-.7-1.2-1.2-.3-.5-.4-1.2-.4-1.9s.2-1.8.6-2.6c.4-.9,1-1.5,1.6-1.9.7-.4,1.4-.6,2.2-.6s1.8.3,2.4.9c.6.6.9,1.5.9,2.5s0,.8,0,1.2h-6.1v.4c0,.8.2,1.4.5,1.8.4.4.8.6,1.3.6s1-.2,1.4-.5.8-.8,1.1-1.4h0ZM112.1,555.9h4.7v-.3c0-.7-.2-1.3-.5-1.6-.4-.4-.8-.6-1.4-.6s-1.2.2-1.7.6c-.5.4-.9,1-1.1,1.9h0Z" fill="#333"/>
    <path d="M123.9,560.8l2.4-11.5h1.5l-2.4,11.5h-1.5Z" fill="#333"/>
    <path d="M127.9,560.8l1.7-8.3h1.3l-.3,1.4c.6-.6,1.1-1,1.6-1.2s1-.4,1.5-.4,1.2.2,1.6.5.6.9.6,1.5,0,.8-.2,1.5l-1.1,5h-1.4l1.1-5.3c.1-.5.2-.9.2-1.1s0-.5-.3-.7c-.2-.2-.5-.3-.8-.3-.7,0-1.4.3-1.9.8-.6.5-1,1.4-1.2,2.7l-.8,3.9h-1.6Z" fill="#333"/>
    <path d="M137,560.8l1.5-7.2h-1.3l.2-1.1h1.3l.2-1.2c.1-.6.3-1,.4-1.3s.3-.5.6-.6c.3-.2.7-.3,1.2-.3s.9,0,1.6.2l-.3,1.2c-.5,0-.9-.2-1.2-.2s-.5,0-.6.2c-.1,0-.3.5-.4,1l-.2.9h1.6l-.2,1.1h-1.6l-1.5,7.2h-1.4,0Z" fill="#333"/>
    <path d="M141.5,557.7c0-1.6.5-3,1.4-4,.8-.9,1.8-1.3,3.1-1.3s1.8.3,2.4.9c.6.6.9,1.5.9,2.5s-.2,1.8-.6,2.7c-.4.8-.9,1.4-1.6,1.9s-1.5.7-2.2.7-1.2,0-1.8-.4c-.5-.3-.9-.7-1.2-1.2s-.4-1.1-.4-1.8h0ZM142.9,557.5c0,.8.2,1.4.6,1.8s.9.6,1.4.6.6,0,.9-.2.6-.3.8-.6c.3-.2.5-.5.7-.9s.3-.7.4-1c.2-.5.2-1,.2-1.5,0-.8-.2-1.3-.6-1.7-.4-.4-.9-.6-1.4-.6s-.8,0-1.2.3-.7.5-1,.9-.5.9-.6,1.4-.2,1-.2,1.4h0Z" fill="#333"/>
    <path d="M150.2,560.8l1.7-8.3h1.2l-.4,1.7c.4-.6.8-1.1,1.3-1.4.4-.3.8-.5,1.3-.5s.6,0,1,.3l-.6,1.3c-.2-.2-.5-.3-.8-.3-.5,0-1,.3-1.5.8-.5.6-.9,1.5-1.2,3l-.7,3.3h-1.3Z" fill="#333"/>
    <path d="M155.5,560.8l1.7-8.3h1.4l-.3,1.4c.5-.6,1-1,1.4-1.2s.9-.3,1.3-.3.9,0,1.3.4c.3.3.6.7.7,1.1.4-.5.9-.9,1.3-1.2.5-.3,1-.4,1.5-.4s1.2.2,1.6.5c.3.3.5.8.5,1.4s0,.7-.2,1.3l-1.1,5.3h-1.4l1.1-5.5c0-.4.1-.8.1-1s0-.5-.3-.6-.4-.2-.7-.2-.9,0-1.3.4-.8.6-1,1-.5,1.1-.6,1.9l-.8,4h-1.4l1.2-5.6c0-.4.1-.7.1-.8,0-.3,0-.5-.3-.7-.2-.2-.4-.2-.7-.2s-.8,0-1.3.4c-.4.3-.8.6-1.1,1.1s-.5,1.1-.7,1.9l-.8,3.9h-1.4.2Z" fill="#333"/>
    <path d="M174.4,559.8c-.5.4-1,.7-1.4.9s-.9.3-1.5.3-1.4-.2-1.9-.7-.7-1-.7-1.7.1-.9.3-1.2.5-.6.8-.9c.3-.2.8-.4,1.3-.5.3,0,.9,0,1.8,0s1.5,0,1.9-.3c.1-.4.2-.7.2-1s-.1-.6-.4-.8c-.3-.3-.8-.4-1.4-.4s-1.1,0-1.5.4c-.4.3-.7.6-.8,1.1h-1.4c.3-.9.8-1.6,1.4-2s1.4-.7,2.4-.7,1.8.2,2.4.7c.5.4.7.8.7,1.4s0,1-.2,1.5l-.5,2.1c-.1.7-.2,1.2-.2,1.6s0,.6.2,1.1h-1.4c0-.3-.1-.6-.2-1v.2ZM174.9,556.6c-.2,0-.4,0-.6.2s-.6,0-1.1,0c-.8,0-1.4.2-1.7.3s-.6.3-.8.5-.3.5-.3.8.1.7.4,1,.7.4,1.2.4.9,0,1.4-.4c.4-.2.8-.6,1-1s.4-1.1.6-1.9h0Z" fill="#333"/>
    <path d="M181,559.7l-.2,1.2c-.3,0-.7,0-1,0-.6,0-1,0-1.3-.4-.2-.2-.4-.5-.4-.9s0-.6.2-1.3l1-4.8h-1.1l.2-1.1h1.1l.4-2,1.6-1-.6,3h1.4l-.2,1.1h-1.4l-1,4.6c-.1.6-.2.9-.2,1,0,.2,0,.3.1.4,0,0,.3,0,.5,0h.9Z" fill="#333"/>
    <path d="M182.1,560.8l1.7-8.3h1.4l-1.7,8.3h-1.4ZM184.2,551l.3-1.6h1.4l-.3,1.6h-1.4Z" fill="#333"/>
    <path d="M186,557.7c0-1.6.5-3,1.4-4,.8-.9,1.8-1.3,3.1-1.3s1.8.3,2.4.9c.6.6.9,1.5.9,2.5s-.2,1.8-.6,2.7c-.4.8-.9,1.4-1.6,1.9s-1.5.7-2.2.7-1.2,0-1.8-.4c-.5-.3-.9-.7-1.2-1.2s-.4-1.1-.4-1.8h0ZM187.4,557.5c0,.8.2,1.4.6,1.8s.9.6,1.4.6.6,0,.9-.2.6-.3.8-.6c.3-.2.5-.5.7-.9s.3-.7.4-1c.2-.5.2-1,.2-1.5,0-.8-.2-1.3-.6-1.7-.4-.4-.9-.6-1.4-.6s-.8,0-1.2.3-.7.5-1,.9-.5.9-.6,1.4-.2,1-.2,1.4h0Z" fill="#333"/>
    <path d="M194.6,560.8l1.7-8.3h1.3l-.3,1.4c.6-.6,1.1-1,1.6-1.2s1-.4,1.5-.4,1.2.2,1.6.5.6.9.6,1.5,0,.8-.2,1.5l-1.1,5h-1.4l1.1-5.3c.1-.5.2-.9.2-1.1s0-.5-.3-.7c-.2-.2-.5-.3-.8-.3-.7,0-1.4.3-1.9.8-.6.5-1,1.4-1.2,2.7l-.8,3.9h-1.6Z" fill="#333"/>
    <path d="M206.5,560.8l6.5-11.5h1.8l1.9,11.5h-1.5l-.6-3.3h-4.6l-1.8,3.3h-1.7,0ZM210.7,556.3h3.8l-.4-2.9c-.2-1.1-.3-2.1-.3-2.9-.3.7-.6,1.4-1.1,2.3l-1.9,3.4h-.1Z" fill="#333"/>
    <path d="M218,561.6h1.4c0,.5,0,.7.1.9,0,.2.2.3.4.4.3,0,.6.2,1,.2.9,0,1.5-.2,1.8-.7.2-.3.5-.9.7-1.9v-.7c-.6.7-1.4,1.1-2.2,1.1s-1.5-.3-2.1-.9c-.6-.6-.8-1.5-.8-2.6s.2-1.8.7-2.6,1-1.4,1.6-1.8c.6-.4,1.2-.6,1.9-.6,1.1,0,1.9.5,2.5,1.5l.3-1.4h1.3l-1.7,8c-.2.9-.4,1.6-.7,2.1s-.7.9-1.2,1.1c-.5.3-1.1.4-1.8.4s-1.2,0-1.7-.3c-.5-.2-.8-.4-1.1-.8-.2-.3-.4-.7-.4-1.1v-.4h0ZM219.7,557.1c0,.6,0,1,.2,1.3.2.4.4.7.7.9s.6.3,1,.3.9-.2,1.4-.5.8-.8,1.1-1.5.4-1.3.4-2-.2-1.2-.6-1.6c-.4-.4-.8-.6-1.4-.6s-.7,0-1,.3c-.3.2-.6.5-.9.8-.3.4-.5.8-.6,1.4-.1.5-.2.9-.2,1.2h0Z" fill="#333"/>
    <path d="M233,558h1.4c-.2.8-.7,1.5-1.4,2.1s-1.6.9-2.5.9-1.2,0-1.7-.4c-.5-.3-.9-.7-1.2-1.2s-.4-1.2-.4-1.9.2-1.8.6-2.6c.4-.9,1-1.5,1.6-1.9.7-.4,1.4-.6,2.2-.6s1.8.3,2.4.9c.6.6.9,1.5.9,2.5s0,.8-.1,1.2h-6.1v.4c0,.8.2,1.4.5,1.8.4.4.8.6,1.3.6s1-.2,1.4-.5.8-.8,1.1-1.4h0ZM228.9,555.9h4.7v-.3c0-.7-.2-1.3-.5-1.6-.4-.4-.8-.6-1.4-.6s-1.2.2-1.7.6c-.5.4-.9,1-1.1,1.9h0Z" fill="#333"/>
    <path d="M240.5,560.8l2.4-11.5h1.5l-1.1,5.5,6.2-5.5h2.2l-5.3,4.7,3.9,6.8h-1.7l-3.3-5.8-2.4,2.1-.8,3.7h-1.6Z" fill="#333"/>
    <path d="M257.1,558h1.4c-.2.8-.7,1.5-1.4,2.1s-1.6.9-2.5.9-1.2,0-1.7-.4c-.5-.3-.9-.7-1.2-1.2s-.4-1.2-.4-1.9.2-1.8.6-2.6c.4-.9,1-1.5,1.6-1.9.7-.4,1.4-.6,2.2-.6s1.8.3,2.4.9c.6.6.9,1.5.9,2.5s0,.8-.1,1.2h-6.1v.4c0,.8.2,1.4.5,1.8.4.4.8.6,1.3.6s1-.2,1.4-.5c.4-.3.8-.8,1.1-1.4h0ZM252.9,555.9h4.7v-.3c0-.7-.2-1.3-.5-1.6-.4-.4-.8-.6-1.4-.6s-1.2.2-1.7.6c-.5.4-.9,1-1.1,1.9h0Z" fill="#333"/>
    <path d="M259.8,560.8l1.7-8.3h1.4l-1.7,8.3h-1.4ZM261.9,551l.3-1.6h1.4l-.3,1.6h-1.4Z" fill="#333"/>
    <path d="M263.4,560.8l1.7-8.3h1.4l-.3,1.4c.5-.6,1-1,1.4-1.2s.9-.3,1.3-.3.9,0,1.3.4c.3.3.6.7.7,1.1.4-.5.9-.9,1.3-1.2.5-.3,1-.4,1.5-.4s1.2.2,1.6.5c.3.3.5.8.5,1.4s0,.7-.2,1.3l-1.1,5.3h-1.4l1.1-5.5c0-.4.1-.8.1-1s0-.5-.3-.6-.4-.2-.7-.2-.9,0-1.3.4-.8.6-1,1-.5,1.1-.6,1.9l-.8,4h-1.4l1.2-5.6c0-.4.1-.7.1-.8,0-.3,0-.5-.3-.7-.2-.2-.4-.2-.7-.2s-.8,0-1.3.4c-.4.3-.8.6-1.1,1.1-.3.5-.5,1.1-.7,1.9l-.8,3.9h-1.4.2Z" fill="#333"/>
    <path d="M277.1,560.8l.3-1.6h1.6l-.3,1.4c-.2.8-.5,1.5-.8,1.8-.4.4-.8.6-1.3.7v-.6c.8-.2,1.2-.7,1.4-1.7h-.9Z" fill="#333"/>
    <path d="M22.3,580l2.4-11.5h1.5l-1.1,5.5,6.2-5.5h2.2l-5.3,4.7,3.9,6.8h-1.7l-3.3-5.8-2.4,2.1-.8,3.7h-1.6Z" fill="#333"/>
    <path d="M33,576.9c0-1.6.5-3,1.4-4,.8-.9,1.8-1.3,3.1-1.3s1.8.3,2.4.9c.6.6.9,1.5.9,2.5s-.2,1.8-.6,2.7c-.4.8-.9,1.4-1.6,1.9s-1.5.7-2.2.7-1.2,0-1.8-.4c-.5-.3-.9-.7-1.2-1.2s-.4-1.1-.4-1.8h0ZM34.4,576.7c0,.8.2,1.4.6,1.8s.9.6,1.4.6.6,0,.9-.2.6-.3.8-.6c.3-.2.5-.5.7-.9s.3-.7.4-1c.2-.5.2-1,.2-1.5,0-.8-.2-1.3-.6-1.7-.4-.4-.9-.6-1.4-.6s-.8,0-1.2.3-.7.5-1,.9-.5.9-.6,1.4-.2,1-.2,1.4h0Z" fill="#333"/>
    <path d="M41.7,580l2.4-11.5h1.4l-.9,4.4c.5-.5,1-.9,1.5-1.1s.9-.3,1.4-.3,1.2.2,1.6.5c.4.4.6.8.6,1.4s0,.8-.2,1.6l-1,4.9h-1.4l1.1-5c.2-.7.2-1.2.2-1.4,0-.3,0-.5-.3-.7s-.5-.3-.8-.3c-.5,0-1,0-1.5.4-.5.3-.8.6-1.1,1.1s-.5,1.2-.7,2.3l-.7,3.6h-1.6Z" fill="#333"/>
    <path d="M50.5,580l2.4-11.5h1.4l-2.4,11.5h-1.4Z" fill="#333"/>
    <path d="M54.1,580l2.4-11.5h1.4l-.9,4.4c.5-.5,1-.9,1.5-1.1s.9-.3,1.4-.3,1.2.2,1.6.5c.4.4.6.8.6,1.4s0,.8-.2,1.6l-1,4.9h-1.4l1.1-5c.2-.7.2-1.2.2-1.4,0-.3,0-.5-.3-.7s-.5-.3-.8-.3c-.5,0-1,0-1.5.4-.5.3-.8.6-1.1,1.1s-.5,1.2-.7,2.3l-.7,3.6h-1.6Z" fill="#333"/>
    <path d="M68.6,579c-.5.4-1,.7-1.4.9s-.9.3-1.5.3-1.4-.2-1.9-.7-.7-1-.7-1.7,0-.9.3-1.2.5-.6.8-.9c.3-.2.8-.4,1.3-.5.3,0,.9,0,1.8,0s1.5,0,1.9-.3c0-.4.2-.7.2-1s0-.6-.4-.8c-.3-.3-.8-.4-1.4-.4s-1.1,0-1.5.4c-.4.3-.7.6-.8,1.1h-1.4c.3-.9.8-1.6,1.4-2s1.4-.7,2.4-.7,1.8.2,2.4.7c.5.4.7.8.7,1.4s0,1-.2,1.5l-.5,2.1c0,.7-.2,1.2-.2,1.6s0,.6.2,1.1h-1.4c0-.3,0-.6-.2-1v.2ZM69.1,575.8c-.2,0-.4,0-.6.2s-.6,0-1.1,0c-.8,0-1.4.2-1.7.3-.3,0-.6.3-.8.5s-.3.5-.3.8,0,.7.4,1,.7.4,1.2.4.9,0,1.4-.4c.4-.2.8-.6,1-1s.4-1.1.6-1.9h0Z" fill="#333"/>
    <path d="M71.9,580l1.7-8.3h1.4l-.3,1.4c.5-.6,1-1,1.4-1.2s.9-.3,1.3-.3.9,0,1.3.4c.3.3.6.7.7,1.1.4-.5.9-.9,1.3-1.2.5-.3,1-.4,1.5-.4s1.2.2,1.6.5c.3.3.5.8.5,1.4s0,.7-.2,1.3l-1.1,5.3h-1.4l1.1-5.5c0-.4,0-.8,0-1s0-.5-.3-.6-.4-.2-.7-.2-.9,0-1.3.4-.8.6-1,1-.5,1.1-.6,1.9l-.8,4h-1.4l1.2-5.6c0-.4,0-.7,0-.8,0-.3,0-.5-.3-.7-.2-.2-.4-.2-.7-.2s-.8,0-1.3.4c-.4.3-.8.6-1.1,1.1-.3.5-.5,1.1-.7,1.9l-.8,3.9h-1.4.2Z" fill="#333"/>
    <path d="M85.2,580l1.7-8.3h1.4l-.3,1.4c.5-.6,1-1,1.4-1.2s.9-.3,1.3-.3.9,0,1.3.4c.3.3.6.7.7,1.1.4-.5.9-.9,1.3-1.2.5-.3,1-.4,1.5-.4s1.2.2,1.6.5c.3.3.5.8.5,1.4s0,.7-.2,1.3l-1.1,5.3h-1.4l1.1-5.5c0-.4,0-.8,0-1s0-.5-.3-.6-.4-.2-.7-.2-.9,0-1.3.4-.8.6-1,1-.5,1.1-.6,1.9l-.8,4h-1.4l1.2-5.6c0-.4,0-.7,0-.8,0-.3,0-.5-.3-.7-.2-.2-.4-.2-.7-.2s-.8,0-1.3.4c-.4.3-.8.6-1.1,1.1-.3.5-.5,1.1-.7,1.9l-.8,3.9h-1.4.2Z" fill="#333"/>
    <path d="M104.7,577.2h1.4c-.2.8-.7,1.5-1.4,2.1s-1.6.9-2.5.9-1.2,0-1.7-.4c-.5-.3-.9-.7-1.2-1.2-.3-.5-.4-1.2-.4-1.9s.2-1.8.6-2.6c.4-.9,1-1.5,1.6-1.9.7-.4,1.4-.6,2.2-.6s1.8.3,2.4.9c.6.6.9,1.5.9,2.5s0,.8,0,1.2h-6.1v.4c0,.8.2,1.4.5,1.8.4.4.8.6,1.3.6s1-.2,1.4-.5.8-.8,1.1-1.4h0ZM100.6,575.1h4.7v-.3c0-.7-.2-1.3-.5-1.6-.4-.4-.8-.6-1.4-.6s-1.2.2-1.7.6c-.5.4-.9,1-1.1,1.9h0Z" fill="#333"/>
    <path d="M107.5,580l1.7-8.3h1.2l-.4,1.7c.4-.6.8-1.1,1.3-1.4.4-.3.8-.5,1.3-.5s.6,0,1,.3l-.6,1.3c-.2-.2-.5-.3-.8-.3-.5,0-1,.3-1.5.8-.5.6-.9,1.5-1.2,3l-.7,3.3h-1.3Z" fill="#333"/>
    <path d="M112.3,580l.3-1.6h1.6l-.3,1.4c-.2.8-.5,1.5-.8,1.8-.4.4-.8.6-1.3.7v-.6c.8-.2,1.2-.7,1.4-1.7h-.9,0Z" fill="#333"/>
    <path d="M121,580l2.4-11.5h8.3l-.3,1.3h-6.7l-.8,3.6h6.6l-.3,1.3h-6.6l-.8,4h7.2l-.3,1.3h-8.7Z" fill="#333"/>
    <path d="M131.4,580l2.4-11.5h1.4l-2.4,11.5h-1.4Z" fill="#333"/>
    <path d="M134.9,580l2.4-11.5h1.4l-2.4,11.5h-1.4Z" fill="#333"/>
    <path d="M138.5,580l1.7-8.3h1.4l-1.7,8.3h-1.4ZM140.6,570.2l.3-1.6h1.4l-.3,1.6h-1.4Z" fill="#333"/>
    <path d="M142.3,577.2h1.4c0,.3,0,.7.2,1s.4.5.7.7.7.3,1.2.3,1.1,0,1.4-.4.5-.5.5-.9,0-.5-.3-.7c-.2-.2-.7-.5-1.4-.8s-1.2-.5-1.4-.7c-.3-.2-.6-.5-.8-.8s-.3-.6-.3-1c0-.7.3-1.2.8-1.7s1.2-.7,2.2-.7,1.8.2,2.4.7c.5.5.8,1.1.8,1.9h-1.4c0-.4-.2-.8-.5-1.1s-.8-.4-1.4-.4-.9,0-1.1.3c-.3.2-.4.5-.4.7s.1.5.4.7c.2,0,.6.3,1.2.6,1.1.5,1.8.8,2,1.1.4.4.7,1,.7,1.6s-.1.8-.4,1.2c-.3.4-.6.7-1.2.9-.5.2-1.1.4-1.8.4s-1.8-.2-2.4-.7-1-1.2-1-2.3h0Z" fill="#333"/>
    <path d="M150.5,580l.3-1.6h1.6l-.3,1.4c-.2.8-.5,1.5-.8,1.8-.4.4-.8.6-1.3.7v-.6c.8-.2,1.2-.7,1.4-1.7h-.9Z" fill="#333"/>
    <path d="M159.2,580l2.4-11.5h1.9l1.2,7.4c.2,1,.2,1.9.3,2.8.3-.8.8-1.8,1.6-3.1l4-7.1h1.9l-2.4,11.5h-1.5l1.2-5.6c.3-1.3.7-2.7,1.2-4.3-.3.7-.7,1.5-1.2,2.4l-4.3,7.5h-1.5l-1.1-7.3c-.1-.7-.2-1.5-.2-2.4-.1,1-.3,1.8-.4,2.4l-1.5,7.3h-1.6Z" fill="#333"/>
    <path d="M178,579c-.5.4-1,.7-1.4.9s-.9.3-1.5.3-1.4-.2-1.9-.7-.7-1-.7-1.7.1-.9.3-1.2.5-.6.8-.9c.3-.2.8-.4,1.3-.5.3,0,.9,0,1.8,0s1.5,0,1.9-.3c.1-.4.2-.7.2-1s-.1-.6-.4-.8c-.3-.3-.8-.4-1.4-.4s-1.1,0-1.5.4c-.4.3-.7.6-.8,1.1h-1.4c.3-.9.8-1.6,1.4-2s1.4-.7,2.4-.7,1.8.2,2.4.7c.5.4.7.8.7,1.4s0,1-.2,1.5l-.5,2.1c-.1.7-.2,1.2-.2,1.6s0,.6.2,1.1h-1.4c0-.3-.1-.6-.2-1v.2ZM178.5,575.8c-.2,0-.4,0-.6.2s-.6,0-1.1,0c-.8,0-1.4.2-1.7.3s-.6.3-.8.5-.3.5-.3.8.1.7.4,1,.7.4,1.2.4.9,0,1.4-.4c.4-.2.8-.6,1-1s.4-1.1.6-1.9h0Z" fill="#333"/>
    <path d="M181.3,580l1.7-8.3h1.3l-.3,1.4c.6-.6,1.1-1,1.6-1.2s1-.4,1.5-.4,1.2.2,1.6.5.6.9.6,1.5,0,.8-.2,1.5l-1.1,5h-1.4l1.1-5.3c.1-.5.2-.9.2-1.1s0-.5-.3-.7c-.2-.2-.5-.3-.8-.3-.7,0-1.4.3-1.9.8-.6.5-1,1.4-1.2,2.7l-.8,3.9h-1.6Z" fill="#333"/>
    <path d="M190.3,577.2h1.4c0,.3,0,.7.2,1s.4.5.7.7.7.3,1.2.3,1.1,0,1.4-.4.5-.5.5-.9,0-.5-.3-.7c-.2-.2-.7-.5-1.4-.8s-1.2-.5-1.4-.7c-.3-.2-.6-.5-.8-.8s-.3-.6-.3-1c0-.7.3-1.2.8-1.7s1.2-.7,2.2-.7,1.8.2,2.4.7c.5.5.8,1.1.8,1.9h-1.4c0-.4-.2-.8-.5-1.1s-.8-.4-1.4-.4-.9,0-1.1.3c-.3.2-.4.5-.4.7s.1.5.4.7c.2,0,.6.3,1.2.6,1.1.5,1.8.8,2,1.1.4.4.7,1,.7,1.6s-.1.8-.4,1.2c-.3.4-.6.7-1.2.9-.5.2-1.1.4-1.8.4s-1.8-.2-2.4-.7-1-1.2-1-2.3h0Z" fill="#333"/>
    <path d="M198.2,580l1.7-8.3h1.4l-.3,1.4c.5-.6,1-1,1.4-1.2s.9-.3,1.3-.3.9,0,1.3.4c.3.3.6.7.7,1.1.4-.5.9-.9,1.3-1.2.5-.3,1-.4,1.5-.4s1.2.2,1.6.5c.3.3.5.8.5,1.4s0,.7-.2,1.3l-1.1,5.3h-1.4l1.1-5.5c0-.4.1-.8.1-1s0-.5-.3-.6-.4-.2-.7-.2-.9,0-1.3.4-.8.6-1,1-.5,1.1-.6,1.9l-.8,4h-1.4l1.2-5.6c0-.4.1-.7.1-.8,0-.3,0-.5-.3-.7-.2-.2-.4-.2-.7-.2s-.8,0-1.3.4c-.4.3-.8.6-1.1,1.1s-.5,1.1-.7,1.9l-.8,3.9h-1.4.2Z" fill="#333"/>
    <path d="M217.1,579c-.5.4-1,.7-1.4.9s-.9.3-1.5.3-1.4-.2-1.9-.7-.7-1-.7-1.7.1-.9.3-1.2.5-.6.8-.9c.3-.2.8-.4,1.3-.5.3,0,.9,0,1.8,0s1.5,0,1.9-.3c.1-.4.2-.7.2-1s-.1-.6-.4-.8c-.3-.3-.8-.4-1.4-.4s-1.1,0-1.5.4c-.4.3-.7.6-.8,1.1h-1.4c.3-.9.8-1.6,1.4-2s1.4-.7,2.4-.7,1.8.2,2.4.7c.5.4.7.8.7,1.4s0,1-.2,1.5l-.5,2.1c-.1.7-.2,1.2-.2,1.6s0,.6.2,1.1h-1.4c0-.3-.1-.6-.2-1v.2ZM217.6,575.8c-.2,0-.4,0-.6.2s-.6,0-1.1,0c-.8,0-1.4.2-1.7.3s-.6.3-.8.5-.3.5-.3.8.1.7.4,1,.7.4,1.2.4.9,0,1.4-.4c.4-.2.8-.6,1-1s.4-1.1.6-1.9h0Z" fill="#333"/>
    <path d="M220.4,580l1.7-8.3h1.3l-.3,1.4c.6-.6,1.1-1,1.6-1.2s1-.4,1.5-.4,1.2.2,1.6.5.6.9.6,1.5,0,.8-.2,1.5l-1.1,5h-1.4l1.1-5.3c.1-.5.2-.9.2-1.1s0-.5-.3-.7c-.2-.2-.5-.3-.8-.3-.7,0-1.4.3-1.9.8-.6.5-1,1.4-1.2,2.7l-.8,3.9h-1.6Z" fill="#333"/>
    <path d="M229.3,580l1.7-8.3h1.3l-.3,1.4c.6-.6,1.1-1,1.6-1.2s1-.4,1.5-.4,1.2.2,1.6.5.6.9.6,1.5,0,.8-.2,1.5l-1.1,5h-1.4l1.1-5.3c.1-.5.2-.9.2-1.1s0-.5-.3-.7c-.2-.2-.5-.3-.8-.3-.7,0-1.4.3-1.9.8-.6.5-1,1.4-1.2,2.7l-.8,3.9h-1.6Z" fill="#333"/>
  </g>
  <g>
    <line x1="258.1" y1="317.4" x2="509.5" y2="361.9" fill="none"/>
    <g>
      <line x1="258.1" y1="317.4" x2="502.5" y2="360.6" fill="none" stroke="#333" stroke-miterlimit="10"/>
      <polygon points="500.2 365.3 509.5 361.9 501.9 355.5 500.2 365.3" fill="#333"/>
    </g>
  </g>
  <g isolation="isolate">
    <path d="M318.6,380.8v-11.5h3.9c.9,0,1.6,0,2,.2.7.2,1.2.4,1.7.8.6.5,1.1,1.2,1.4,2s.4,1.7.4,2.7-.1,1.6-.3,2.3-.5,1.2-.8,1.7c-.3.4-.7.8-1,1-.4.3-.8.4-1.4.6-.5.1-1.1.2-1.8.2h-4.1ZM320.1,379.4h2.4c.8,0,1.3,0,1.8-.2s.8-.3,1-.6c.4-.4.6-.8.8-1.4.2-.6.3-1.3.3-2.2s-.2-2.1-.6-2.8c-.4-.6-.9-1.1-1.4-1.3-.4-.2-1.1-.2-2-.2h-2.4v8.8h.1Z" fill="#333"/>
    <path d="M335.4,379.7c-.5.4-1,.8-1.5.9-.5.2-1,.3-1.6.3-.9,0-1.6-.2-2.1-.7-.5-.4-.7-1-.7-1.7s0-.8.3-1.1c.2-.3.4-.6.7-.8.3-.2.6-.4,1-.5.3,0,.7-.1,1.2-.2,1.1-.1,2-.3,2.5-.5v-.4c0-.6-.1-1-.4-1.2-.4-.3-.9-.5-1.6-.5s-1.1.1-1.5.3c-.3.2-.5.6-.7,1.2l-1.4-.2c.1-.6.3-1.1.6-1.4.3-.4.7-.6,1.2-.8.5-.2,1.2-.3,1.9-.3s1.3,0,1.7.2c.4.2.8.4,1,.6.2.3.4.6.4,1v5.7c0,.3.2.7.4,1h-1.5c-.1-.3-.2-.6-.3-1h.4ZM335.2,376.6c-.5.2-1.3.4-2.3.5-.6,0-1,.2-1.2.3-.2.1-.4.3-.6.5-.1.2-.2.4-.2.7s.1.7.4.9c.3.2.7.4,1.2.4s1-.1,1.4-.4.7-.6.9-1c.2-.3.2-.8.2-1.4v-.5h.2Z" fill="#333"/>
    <path d="M341.9,379.5l.2,1.2c-.4,0-.8.1-1.1.1-.5,0-.9,0-1.2-.2s-.5-.4-.6-.6c-.1-.3-.2-.8-.2-1.7v-4.8h-1v-1.1h1v-2.1l1.4-.8v2.9h1.4v1.1h-1.4v5.7c0,.1.1.2.2.3.1,0,.3.1.5.1h.8Z" fill="#333"/>
    <path d="M348.7,379.7c-.5.4-1,.8-1.5.9-.5.2-1,.3-1.6.3-.9,0-1.6-.2-2.1-.7-.5-.4-.7-1-.7-1.7s0-.8.3-1.1c.2-.3.4-.6.7-.8.3-.2.6-.4,1-.5.3,0,.7-.1,1.2-.2,1.1-.1,2-.3,2.5-.5v-.4c0-.6-.1-1-.4-1.2-.4-.3-.9-.5-1.6-.5s-1.1.1-1.5.3c-.3.2-.5.6-.7,1.2l-1.4-.2c.1-.6.3-1.1.6-1.4.3-.4.7-.6,1.2-.8.5-.2,1.2-.3,1.9-.3s1.3,0,1.7.2c.4.2.8.4,1,.6.2.3.4.6.4,1v5.7c0,.3.2.7.4,1h-1.5c-.1-.3-.2-.6-.3-1h.4ZM348.6,376.6c-.5.2-1.3.4-2.3.5-.6,0-1,.2-1.2.3-.2.1-.4.3-.6.5-.1.2-.2.4-.2.7s.1.7.4.9c.3.2.7.4,1.2.4s1-.1,1.4-.4.7-.6.9-1c.2-.3.2-.8.2-1.4v-.5h.2Z" fill="#333"/>
    <path d="M356.8,380.8v-11.5h2.3l2.7,8.1c.2.8.4,1.3.5,1.7.1-.4.3-1,.6-1.8l2.7-8h2v11.5h-1.5v-9.6l-3.3,9.6h-1.4l-3.3-9.8v9.8h-1.5.2Z" fill="#333"/>
    <path d="M370,370.9v-1.6h1.4v1.6h-1.4ZM370,380.8v-8.3h1.4v8.3h-1.4Z" fill="#333"/>
    <path d="M373.5,380.8v-8.3h1.3v1.2c.6-.9,1.5-1.4,2.6-1.4s1,0,1.4.3c.4.2.7.4.9.7.2.3.4.6.4,1v6.5h-1.4v-5c0-.6,0-1-.2-1.3s-.3-.5-.6-.7c-.3-.2-.6-.3-1-.3-.6,0-1.1.2-1.6.6-.4.4-.7,1.1-.7,2.2v4.5h-1.4.3Z" fill="#333"/>
    <path d="M382.4,370.9v-1.6h1.4v1.6h-1.4ZM382.4,380.8v-8.3h1.4v8.3h-1.4Z" fill="#333"/>
    <path d="M386,380.8v-8.3h1.3v1.2c.6-.9,1.5-1.4,2.6-1.4s1,0,1.4.3c.4.2.7.4.9.7.2.3.4.6.4,1v6.5h-1.4v-5c0-.6,0-1-.2-1.3s-.3-.5-.6-.7c-.3-.2-.6-.3-1-.3-.6,0-1.1.2-1.6.6-.4.4-.7,1.1-.7,2.2v4.5h-1.4.3Z" fill="#333"/>
    <path d="M394.6,381.4l1.4.2c0,.4.2.7.5.9.3.3.8.4,1.4.4s1.2-.1,1.5-.4c.4-.3.6-.6.7-1.1,0-.3.1-.9.1-1.8-.6.7-1.4,1.1-2.3,1.1s-2-.4-2.6-1.2-.9-1.8-.9-3,.1-1.5.4-2.2.7-1.2,1.2-1.6,1.2-.5,1.9-.5,1.8.4,2.4,1.2v-1h1.3v7.2c0,1.3-.1,2.2-.4,2.7s-.7,1-1.2,1.3-1.3.5-2.1.5-1.8-.2-2.4-.7-.9-1.1-.9-2ZM395.8,376.5c0,1.1.2,1.9.6,2.4s1,.8,1.6.8,1.2-.2,1.6-.7.7-1.3.7-2.3-.2-1.8-.7-2.3-1-.8-1.6-.8-1.2.3-1.6.8-.7,1.3-.7,2.3v-.2Z" fill="#333"/>
  </g>
  <g>
    <line x1="566.8" y1="340" x2="566.8" y2="200" fill="none"/>
    <g>
      <line x1="566.8" y1="332.8" x2="566.8" y2="200" fill="none" stroke="#333"/>
      <polygon points="571.8 331.4 566.8 340 561.8 331.4 571.8 331.4" fill="#333"/>
    </g>
  </g>
  <g isolation="isolate">
    <path d="M501.7,272.3v-11.5h2.3l2.7,8.1c.2.8.4,1.3.5,1.7.1-.4.3-1,.6-1.8l2.7-8h2v11.5h-1.5v-9.6l-3.3,9.6h-1.4l-3.3-9.8v9.8h-1.5.2Z" fill="#333"/>
    <path d="M514.4,268.1c0-1.5.4-2.7,1.3-3.4.7-.6,1.6-.9,2.6-.9s2.1.4,2.8,1.1,1.1,1.8,1.1,3.1-.2,1.9-.5,2.5-.8,1.1-1.4,1.4c-.6.3-1.3.5-2,.5-1.2,0-2.1-.4-2.8-1.1s-1.1-1.8-1.1-3.2h0ZM515.8,268.1c0,1.1.2,1.9.7,2.4s1,.8,1.8.8,1.3-.3,1.7-.8c.5-.5.7-1.3.7-2.4s-.2-1.8-.7-2.3-1-.8-1.7-.8-1.3.3-1.8.8-.7,1.3-.7,2.4h0Z" fill="#333"/>
    <path d="M529.2,272.3v-1c-.5.8-1.3,1.2-2.3,1.2s-1.3-.2-1.8-.5-1-.9-1.3-1.5-.5-1.4-.5-2.3,0-1.6.4-2.3c.3-.7.7-1.2,1.2-1.6.6-.4,1.2-.5,1.9-.5s.9.1,1.3.3.7.5,1,.8v-4.1h1.4v11.5h-1.3ZM524.7,268.1c0,1.1.2,1.9.7,2.4.4.5,1,.8,1.6.8s1.1-.3,1.6-.8.6-1.3.6-2.3-.2-2-.7-2.5-1-.8-1.6-.8-1.1.3-1.6.8c-.4.5-.6,1.3-.6,2.4Z" fill="#333"/>
    <path d="M538.4,269.6l1.5.2c-.2.8-.7,1.5-1.3,2s-1.4.7-2.4.7-2.2-.4-2.9-1.1-1.1-1.8-1.1-3.1.4-2.5,1.1-3.2,1.7-1.2,2.8-1.2,2,.4,2.7,1.1,1.1,1.8,1.1,3.2,0,.2,0,.4h-6.2c0,.9.3,1.6.8,2.1s1,.7,1.7.7,1-.1,1.3-.4c.4-.3.7-.7.9-1.3h0ZM533.7,267.3h4.6c0-.7-.2-1.2-.5-1.6-.4-.5-1-.8-1.7-.8s-1.2.2-1.6.6c-.4.4-.7,1-.7,1.7h0Z" fill="#333"/>
    <path d="M541.5,272.3v-11.5h1.4v11.5h-1.4Z" fill="#333"/>
    <path d="M488.3,291.5v-11.5h4.3c.9,0,1.6.1,2.1.3.5.2.9.6,1.2,1.1.3.5.4,1,.4,1.5s-.1,1-.4,1.4-.7.8-1.2,1c.7.2,1.2.5,1.6,1s.6,1.1.6,1.7-.1,1-.3,1.5-.5.8-.8,1.1c-.3.2-.8.4-1.3.6-.5.1-1.1.2-1.8.2h-4.4ZM489.8,284.8h2.5c.7,0,1.2,0,1.4-.1.4-.1.7-.3.9-.6s.3-.6.3-1,0-.7-.3-1c-.2-.3-.4-.5-.8-.6-.3-.1-.9-.2-1.7-.2h-2.3v3.5h0ZM489.8,290.1h3.9c.3,0,.6-.2.9-.3s.4-.4.6-.6c.2-.3.2-.6.2-1s-.1-.8-.3-1.1-.5-.5-.9-.7c-.4-.1-.9-.2-1.7-.2h-2.6v3.9h-.1Z" fill="#333"/>
    <path d="M504.3,291.5v-1.2c-.6.9-1.5,1.4-2.6,1.4s-.9,0-1.4-.3c-.4-.2-.7-.4-.9-.7-.2-.3-.4-.6-.4-1v-6.4h1.4v6.1c0,.4.3.7.6.9.3.2.6.3,1.1.3s.8-.1,1.2-.3c.4-.2.6-.5.8-.9.2-.4.2-.9.2-1.6v-4.4h1.4v8.3h-1.3v-.2Z" fill="#333"/>
    <path d="M507.8,281.6v-1.6h1.4v1.6h-1.4ZM507.8,291.5v-8.3h1.4v8.3h-1.4Z" fill="#333"/>
    <path d="M511.3,291.5v-11.5h1.4v11.5h-1.4Z" fill="#333"/>
    <path d="M520.3,291.5v-1c-.5.8-1.3,1.2-2.3,1.2s-1.3-.2-1.8-.5-1-.9-1.3-1.5-.5-1.4-.5-2.3,0-1.6.4-2.3c.3-.7.7-1.2,1.2-1.6.6-.4,1.2-.5,1.9-.5s.9.1,1.3.3.7.5,1,.8v-4.1h1.4v11.5h-1.3ZM515.8,287.3c0,1.1.2,1.9.7,2.4.4.5,1,.8,1.6.8s1.1-.3,1.6-.8.6-1.3.6-2.3-.2-2-.7-2.5-1-.8-1.6-.8-1.1.3-1.6.8c-.4.5-.6,1.3-.6,2.4Z" fill="#333"/>
    <path d="M523.8,281.6v-1.6h1.4v1.6h-1.4ZM523.8,291.5v-8.3h1.4v8.3h-1.4Z" fill="#333"/>
    <path d="M527.3,291.5v-8.3h1.3v1.2c.6-.9,1.5-1.4,2.6-1.4s1,0,1.4.3c.4.2.7.4.9.7.2.3.4.6.4,1v6.5h-1.4v-5c0-.6,0-1-.2-1.3s-.3-.5-.6-.7-.6-.3-1-.3c-.6,0-1.1.2-1.6.6-.4.4-.7,1.1-.7,2.2v4.5h-1.4.3Z" fill="#333"/>
    <path d="M536,292.2l1.4.2c0,.4.2.7.5.9.3.3.8.4,1.4.4s1.2-.1,1.5-.4c.4-.3.6-.6.7-1.1,0-.3,0-.9,0-1.8-.6.7-1.4,1.1-2.3,1.1s-2-.4-2.6-1.2-.9-1.8-.9-3,0-1.5.4-2.2c.3-.7.7-1.2,1.2-1.6s1.2-.5,1.9-.5,1.8.4,2.4,1.2v-1h1.3v7.2c0,1.3,0,2.2-.4,2.7-.3.5-.7,1-1.2,1.3s-1.3.5-2.1.5-1.8-.2-2.4-.7-.9-1.1-.9-2h0ZM537.1,287.2c0,1.1.2,1.9.6,2.4.4.5,1,.8,1.6.8s1.2-.2,1.6-.7.7-1.3.7-2.3-.2-1.8-.7-2.3-1-.8-1.6-.8-1.2.3-1.6.8-.7,1.3-.7,2.3v-.2Z" fill="#333"/>
  </g>
  <g>
    <line x1="606.8" y1="340" x2="606.8" y2="200" fill="none"/>
    <g>
      <line x1="606.8" y1="340" x2="606.8" y2="207.2" fill="none" stroke="#333" stroke-miterlimit="10"/>
      <polygon points="611.8 208.6 606.8 200 601.8 208.6 611.8 208.6" fill="#333"/>
    </g>
  </g>
  <g isolation="isolate">
    <path d="M625.4,272.3v-11.5h2.3l2.7,8.1c.2.8.4,1.3.5,1.7,0-.4.3-1,.6-1.8l2.7-8h2v11.5h-1.5v-9.6l-3.3,9.6h-1.4l-3.3-9.8v9.8h-1.5.2Z" fill="#333"/>
    <path d="M638.1,268.1c0-1.5.4-2.7,1.3-3.4.7-.6,1.6-.9,2.6-.9s2.1.4,2.8,1.1,1.1,1.8,1.1,3.1-.2,1.9-.5,2.5-.8,1.1-1.4,1.4c-.6.3-1.3.5-2,.5-1.2,0-2.1-.4-2.8-1.1s-1.1-1.8-1.1-3.2h0ZM639.5,268.1c0,1.1.2,1.9.7,2.4s1,.8,1.8.8,1.3-.3,1.7-.8c.5-.5.7-1.3.7-2.4s-.2-1.8-.7-2.3-1-.8-1.7-.8-1.3.3-1.8.8-.7,1.3-.7,2.4h0Z" fill="#333"/>
    <path d="M652.9,272.3v-1c-.5.8-1.3,1.2-2.3,1.2s-1.3-.2-1.8-.5-1-.9-1.3-1.5-.5-1.4-.5-2.3,0-1.6.4-2.3c.3-.7.7-1.2,1.2-1.6.6-.4,1.2-.5,1.9-.5s.9.1,1.3.3.7.5,1,.8v-4.1h1.4v11.5h-1.3ZM648.4,268.1c0,1.1.2,1.9.7,2.4.4.5,1,.8,1.6.8s1.1-.3,1.6-.8.6-1.3.6-2.3-.2-2-.7-2.5-1-.8-1.6-.8-1.1.3-1.6.8c-.4.5-.6,1.3-.6,2.4Z" fill="#333"/>
    <path d="M662.1,269.6l1.5.2c-.2.8-.7,1.5-1.3,2s-1.4.7-2.4.7-2.2-.4-2.9-1.1-1.1-1.8-1.1-3.1.4-2.5,1.1-3.2,1.7-1.2,2.8-1.2,2,.4,2.7,1.1,1.1,1.8,1.1,3.2,0,.2,0,.4h-6.2c0,.9.3,1.6.8,2.1s1,.7,1.7.7,1-.1,1.3-.4c.4-.3.7-.7.9-1.3h0ZM657.5,267.3h4.6c0-.7-.2-1.2-.5-1.6-.4-.5-1-.8-1.7-.8s-1.2.2-1.6.6c-.4.4-.7,1-.7,1.7h0Z" fill="#333"/>
    <path d="M665.3,272.3v-11.5h1.4v11.5h-1.4Z" fill="#333"/>
    <path d="M628.7,291.5l-4.4-11.5h1.6l3,8.3c.2.7.4,1.3.6,1.9.2-.6.4-1.2.6-1.9l3.1-8.3h1.5l-4.5,11.5h-1.6.1Z" fill="#333"/>
    <path d="M635.7,281.6v-1.6h1.4v1.6h-1.4ZM635.7,291.5v-8.3h1.4v8.3h-1.4Z" fill="#333"/>
    <path d="M638.6,289l1.4-.2c0,.6.3,1,.7,1.3s.9.4,1.5.4,1.1-.1,1.4-.4.5-.6.5-.9,0-.6-.4-.8c-.2-.1-.7-.3-1.4-.5-1-.3-1.7-.5-2.1-.7s-.7-.5-.9-.8-.3-.7-.3-1.1,0-.7.3-1c.2-.3.4-.6.7-.8.2-.2.5-.3.9-.4s.8-.2,1.2-.2c.7,0,1.2,0,1.7.3s.9.4,1.1.8.4.7.5,1.3l-1.4.2c0-.4-.2-.8-.5-1s-.7-.4-1.3-.4-1.1.1-1.4.3c-.3.2-.4.5-.4.8s0,.3.2.5c0,.2.3.3.5.4,0,0,.6.2,1.2.4,1,.3,1.7.5,2.1.7.4.2.7.4.9.7.2.3.3.7.3,1.2s0,.9-.4,1.3-.7.7-1.2,1-1.1.3-1.8.3c-1.1,0-1.9-.2-2.5-.7-.6-.4-.9-1.1-1.1-2h0Z" fill="#333"/>
    <path d="M652.6,291.5v-1.2c-.6.9-1.5,1.4-2.6,1.4s-.9,0-1.4-.3c-.4-.2-.7-.4-.9-.7-.2-.3-.3-.6-.4-1v-6.4h1.4v6.1c0,.4.3.7.6.9.3.2.6.3,1.1.3s.8-.1,1.2-.3c.4-.2.6-.5.8-.9s.2-.9.2-1.6v-4.4h1.4v8.3h-1.3v-.2Z" fill="#333"/>
    <path d="M661.5,290.4c-.5.4-1,.8-1.5.9-.5.2-1,.3-1.6.3-.9,0-1.6-.2-2.1-.7-.5-.4-.7-1-.7-1.7s0-.8.3-1.1c.2-.3.4-.6.7-.8.3-.2.6-.4,1-.5.3,0,.7-.1,1.2-.2,1.1-.1,2-.3,2.5-.5v-.4c0-.6,0-1-.4-1.2-.4-.3-.9-.5-1.6-.5s-1.1.1-1.5.3c-.3.2-.5.6-.7,1.2l-1.4-.2c0-.6.3-1.1.6-1.4.3-.4.7-.6,1.2-.8.5-.2,1.2-.3,1.9-.3s1.3,0,1.7.2.8.4,1,.6c.2.3.4.6.4,1v5.7c0,.3.2.7.4,1h-1.5c0-.3-.2-.6-.3-1h.4ZM661.4,287.3c-.5.2-1.3.4-2.3.5-.6,0-1,.2-1.2.3-.2.1-.4.3-.6.5,0,.2-.2.4-.2.7s0,.7.4.9c.3.2.7.4,1.2.4s1-.1,1.4-.4.7-.6.9-1c.2-.3.2-.8.2-1.4v-.5h.2Z" fill="#333"/>
    <path d="M665,291.5v-11.5h1.4v11.5h-1.4Z" fill="#333"/>
    <path d="M668.6,281.6v-1.6h1.4v1.6h-1.4ZM668.6,291.5v-8.3h1.4v8.3h-1.4Z" fill="#333"/>
    <path d="M671.4,291.5v-1.1l5.3-6.1h-5v-1.1h6.8v.9l-4.5,5.3-.9,1h5.6v1.2h-7.3,0Z" fill="#333"/>
    <path d="M685.5,290.4c-.5.4-1,.8-1.5.9-.5.2-1,.3-1.6.3-.9,0-1.6-.2-2.1-.7-.5-.4-.7-1-.7-1.7s0-.8.3-1.1c.2-.3.4-.6.7-.8.3-.2.6-.4,1-.5.3,0,.7-.1,1.2-.2,1.1-.1,2-.3,2.5-.5v-.4c0-.6,0-1-.4-1.2-.4-.3-.9-.5-1.6-.5s-1.1.1-1.5.3c-.3.2-.5.6-.7,1.2l-1.4-.2c0-.6.3-1.1.6-1.4.3-.4.7-.6,1.2-.8.5-.2,1.2-.3,1.9-.3s1.3,0,1.7.2.8.4,1,.6c.2.3.4.6.4,1v5.7c0,.3.2.7.4,1h-1.5c0-.3-.2-.6-.3-1h.4ZM685.4,287.3c-.5.2-1.3.4-2.3.5-.6,0-1,.2-1.2.3-.2.1-.4.3-.6.5,0,.2-.2.4-.2.7s0,.7.4.9c.3.2.7.4,1.2.4s1-.1,1.4-.4.7-.6.9-1c.2-.3.2-.8.2-1.4v-.5h.2Z" fill="#333"/>
    <path d="M692.1,290.2l.2,1.2c-.4,0-.8.1-1.1.1-.5,0-.9,0-1.2-.2s-.5-.4-.6-.6c0-.3-.2-.8-.2-1.7v-4.8h-1v-1.1h1v-2.1l1.4-.8v2.9h1.4v1.1h-1.4v5.7c0,.1,0,.2.2.3,0,0,.3.1.5.1h.8Z" fill="#333"/>
    <path d="M693.5,281.6v-1.6h1.4v1.6h-1.4ZM693.5,291.5v-8.3h1.4v8.3h-1.4Z" fill="#333"/>
    <path d="M696.5,287.3c0-1.5.4-2.7,1.3-3.4.7-.6,1.6-.9,2.6-.9s2.1.4,2.8,1.1,1.1,1.8,1.1,3.1-.2,1.9-.5,2.5-.8,1.1-1.4,1.4c-.6.3-1.3.5-2,.5-1.2,0-2.1-.4-2.8-1.1s-1.1-1.8-1.1-3.2h0ZM697.9,287.3c0,1.1.2,1.9.7,2.4s1,.8,1.8.8,1.3-.3,1.7-.8c.5-.5.7-1.3.7-2.4s-.2-1.8-.7-2.3-1-.8-1.7-.8-1.3.3-1.8.8-.7,1.3-.7,2.4h0Z" fill="#333"/>
    <path d="M705.9,291.5v-8.3h1.3v1.2c.6-.9,1.5-1.4,2.6-1.4s1,0,1.4.3c.4.2.7.4.9.7.2.3.4.6.4,1v6.5h-1.4v-5c0-.6,0-1-.2-1.3s-.3-.5-.6-.7-.6-.3-1-.3c-.6,0-1.1.2-1.6.6-.4.4-.7,1.1-.7,2.2v4.5h-1.4.3Z" fill="#333"/>
  </g>
  <g>
    <line x1="663.2" y1="361.3" x2="919.1" y2="319" fill="none"/>
    <g>
      <line x1="663.2" y1="361.3" x2="912.1" y2="320.2" fill="none" stroke="#333" stroke-miterlimit="10"/>
      <polygon points="911.4 325.4 919.1 319 909.8 315.5 911.4 325.4" fill="#333"/>
    </g>
  </g>
  <g>
    <line x1="926.8" y1="220" x2="670" y2="173.2" fill="none"/>
    <g>
      <line x1="919.7" y1="218.7" x2="670" y2="173.2" fill="none" stroke="#333" stroke-miterlimit="10"/>
      <polygon points="919.2 213.5 926.8 220 917.4 223.4 919.2 213.5" fill="#333"/>
    </g>
  </g>
  <g isolation="isolate">
    <path d="M545,25.4h1.3v5.8c0,1,0,1.8-.3,2.4s-.6,1.1-1.2,1.4c-.6.4-1.4.6-2.3.6s-1.7-.2-2.3-.5-1-.8-1.3-1.4c-.3-.6-.4-1.5-.4-2.5v-5.8h1.3v5.8c0,.9,0,1.5.2,1.9s.4.7.8,1,.9.3,1.4.3c1,0,1.7-.2,2.1-.7s.6-1.3.6-2.5v-5.8h.1Z"/>
    <path d="M547.9,33.2l1.2-.2c0,.5.3.9.6,1.1s.7.4,1.3.4,1,0,1.3-.3.4-.5.4-.8,0-.5-.4-.7c-.2,0-.6-.2-1.3-.4-.9-.2-1.5-.4-1.9-.6-.3-.2-.6-.4-.8-.7-.2-.3-.3-.6-.3-1s0-.6.2-.9c0-.3.3-.5.6-.7.2-.1.5-.3.8-.4.3,0,.7-.1,1.1-.1.6,0,1.1,0,1.5.2s.7.4,1,.7c.2.3.3.7.4,1.1l-1.2.2c0-.4-.2-.7-.5-.9s-.6-.3-1.1-.3-1,0-1.2.3-.4.4-.4.7,0,.3.2.4c0,.1.3.2.5.3,0,0,.5.2,1.1.3.9.2,1.5.4,1.8.6.3.1.6.4.8.6.2.2.3.6.3,1.1s0,.8-.4,1.2c-.2.4-.6.6-1,.8-.5.2-1,.3-1.5.3-.9,0-1.7-.2-2.2-.6s-.8-1-.9-1.7h0Z"/>
    <path d="M560.4,33.1l1.3.2c-.2.7-.6,1.3-1.1,1.7s-1.2.6-2.1.6-1.9-.3-2.5-1-.9-1.6-.9-2.8.3-2.2.9-2.8,1.4-1,2.4-1,1.8.3,2.4,1,.9,1.6.9,2.8,0,.2,0,.3h-5.4c0,.8.3,1.4.7,1.8s.9.6,1.5.6.8,0,1.2-.4.6-.6.8-1.1h-.1ZM556.3,31.1h4.1c0-.6-.2-1.1-.5-1.4-.4-.5-.9-.7-1.5-.7s-1,.2-1.4.6-.6.9-.6,1.5h0Z"/>
    <path d="M563.2,35.4v-7.3h1.1v1.1c.3-.5.5-.9.8-1s.5-.2.8-.2.8.1,1.3.4l-.4,1.1c-.3-.2-.6-.3-.9-.3s-.5,0-.7.2-.4.4-.5.7c0,.4-.2.9-.2,1.4v3.8h-1.3Z"/>
    <path d="M572.1,35.4v-10h1.3v10h-1.3Z"/>
    <path d="M575.6,35.4v-7.3h1.1v1c.5-.8,1.3-1.2,2.3-1.2s.8,0,1.2.2.6.4.8.6.3.6.4.9v5.7h-1.2v-4.4c0-.5,0-.9,0-1.1,0-.2-.3-.4-.5-.6-.2-.1-.5-.2-.9-.2s-1,.2-1.4.5-.6,1-.6,1.9v4h-1.2.1Z"/>
    <path d="M586.1,34.3l.2,1.1c-.3,0-.7,0-.9,0-.4,0-.8,0-1-.2s-.4-.3-.5-.6c0-.2-.2-.7-.2-1.5v-4.2h-.9v-1h.9v-1.8l1.2-.7v2.5h1.2v1h-1.2v4.9c0,.1,0,.2.2.2h.9v.2Z"/>
    <path d="M592.3,33.1l1.3.2c-.2.7-.6,1.3-1.1,1.7s-1.2.6-2.1.6-1.9-.3-2.5-1-.9-1.6-.9-2.8.3-2.2.9-2.8,1.4-1,2.4-1,1.8.3,2.4,1,.9,1.6.9,2.8,0,.2,0,.3h-5.4c0,.8.3,1.4.7,1.8s.9.6,1.5.6.8,0,1.2-.4.6-.6.8-1.1h-.1ZM588.2,31.1h4.1c0-.6-.2-1.1-.5-1.4-.4-.5-.9-.7-1.5-.7s-1,.2-1.4.6-.6.9-.6,1.5h0Z"/>
    <path d="M595.1,35.4v-7.3h1.1v1.1c.3-.5.5-.9.8-1,.2-.2.5-.2.8-.2s.8.1,1.3.4l-.4,1.1c-.3-.2-.6-.3-.9-.3s-.5,0-.7.2-.4.4-.5.7c0,.4-.2.9-.2,1.4v3.8h-1.3Z"/>
    <path d="M604.5,34.5c-.5.4-.9.7-1.3.8-.4.2-.9.2-1.4.2-.8,0-1.4-.2-1.8-.6-.4-.4-.6-.9-.6-1.5s0-.7.2-1,.4-.5.6-.7c.3-.2.6-.3.9-.4.2,0,.6-.1,1.1-.2,1-.1,1.7-.3,2.2-.4v-.3c0-.5,0-.9-.3-1.1-.3-.3-.8-.4-1.4-.4s-1,.1-1.3.3c-.3.2-.5.6-.6,1.1l-1.2-.2c0-.5.3-.9.5-1.2.3-.3.6-.6,1.1-.7.5-.2,1-.3,1.6-.3s1.1,0,1.5.2.7.3.9.6c.2.2.3.5.4.8v4.9c0,.3.2.6.3.9h-1.3c0-.3-.2-.6-.2-.9h0ZM604.4,31.8c-.4.2-1.1.3-2,.5-.5,0-.9.2-1.1.2s-.4.2-.5.4-.2.4-.2.6c0,.3,0,.6.4.8.2.2.6.3,1.1.3s.9,0,1.3-.3c.4-.2.6-.5.8-.9,0-.3.2-.7.2-1.2v-.5h0Z"/>
    <path d="M612.3,32.7l1.2.2c0,.8-.5,1.5-1,2s-1.2.7-2,.7-1.8-.3-2.4-1c-.6-.6-.9-1.6-.9-2.8s0-1.5.4-2.1.7-1,1.2-1.3,1.1-.4,1.7-.4,1.4.2,1.9.6.8,1,1,1.7l-1.2.2c0-.5-.3-.9-.6-1.1s-.6-.4-1-.4c-.6,0-1.1.2-1.5.7-.4.4-.6,1.1-.6,2.1s.2,1.7.6,2.1.9.7,1.5.7.9,0,1.2-.4.5-.8.6-1.4h-.1Z"/>
    <path d="M617.2,34.3l.2,1.1c-.3,0-.7,0-.9,0-.4,0-.8,0-1-.2s-.4-.3-.5-.6c0-.2-.2-.7-.2-1.5v-4.2h-.9v-1h.9v-1.8l1.2-.7v2.5h1.2v1h-1.2v4.9c0,0,0,.2.2.2h.9v.2Z"/>
    <path d="M618.4,26.8v-1.4h1.2v1.4h-1.2ZM618.4,35.4v-7.3h1.2v7.3h-1.2Z"/>
    <path d="M621.1,31.8c0-1.3.4-2.3,1.1-3,.6-.5,1.4-.8,2.3-.8s1.8.3,2.4,1c.6.7,1,1.6,1,2.7s0,1.7-.4,2.2c-.3.5-.7,1-1.2,1.2-.5.3-1.1.4-1.8.4-1,0-1.8-.3-2.5-1-.6-.7-.9-1.6-.9-2.8h0ZM622.3,31.8c0,.9.2,1.6.6,2.1.4.5.9.7,1.5.7s1.1-.2,1.5-.7.6-1.2.6-2.1-.2-1.6-.6-2c-.4-.5-.9-.7-1.5-.7s-1.1.2-1.5.7-.6,1.2-.6,2.1h0Z"/>
    <path d="M629.3,35.4v-7.3h1.1v1c.5-.8,1.3-1.2,2.3-1.2s.8,0,1.2.2.6.4.8.6.3.6.4.9v5.7h-1.2v-4.4c0-.5,0-.9,0-1.1,0-.2-.3-.4-.5-.6-.2-.1-.5-.2-.9-.2s-1,.2-1.4.5-.6,1-.6,1.9v4h-1.2.1Z"/>
  </g>
  <g isolation="isolate">
    <path d="M153.6,164.5v-8.8h-3.3v-1.2h7.9v1.2h-3.3v8.8h-1.3,0Z"/>
    <path d="M158.9,164.5v-7.3h1.1v1.1c.3-.5.5-.9.8-1s.5-.2.8-.2.8.1,1.3.4l-.4,1.1c-.3-.2-.6-.3-.9-.3s-.5,0-.7.2-.4.4-.5.7c-.1.4-.2.9-.2,1.4v3.8h-1.3Z"/>
    <path d="M168.3,163.6c-.5.4-.9.7-1.3.8-.4.2-.9.2-1.4.2-.8,0-1.4-.2-1.8-.6s-.6-.9-.6-1.5,0-.7.2-1,.4-.5.6-.7c.3-.2.6-.3.9-.4.2,0,.6-.1,1.1-.2,1-.1,1.7-.3,2.2-.4v-.3c0-.5-.1-.9-.3-1.1-.3-.3-.8-.4-1.4-.4s-1,.1-1.3.3-.5.6-.6,1.1l-1.2-.2c.1-.5.3-.9.5-1.2s.6-.6,1.1-.7c.5-.2,1-.3,1.6-.3s1.1,0,1.5.2c.4.1.7.3.9.6.2.2.3.5.4.8v4.9c0,.3.2.6.3.9h-1.3c-.1-.3-.2-.6-.2-.9h.1ZM168.2,160.9c-.4.2-1.1.3-2,.5-.5,0-.9.2-1.1.2s-.4.2-.5.4-.2.4-.2.6c0,.3.1.6.4.8.2.2.6.3,1.1.3s.9-.1,1.3-.3c.4-.2.6-.5.8-.9.1-.3.2-.7.2-1.2v-.5h0Z"/>
    <path d="M171.4,164.5v-7.3h1.1v1c.5-.8,1.3-1.2,2.3-1.2s.8,0,1.2.2.6.4.8.6c.2.3.3.6.4.9v5.7h-1.2v-4.4c0-.5,0-.9-.1-1.1,0-.2-.3-.4-.5-.6-.2-.1-.5-.2-.9-.2s-1,.2-1.4.5-.6,1-.6,1.9v4h-1.2,0Z"/>
    <path d="M178.7,162.4l1.2-.2c0,.5.3.9.6,1.1.3.3.7.4,1.3.4s1-.1,1.3-.3.4-.5.4-.8-.1-.5-.4-.7c-.2-.1-.6-.2-1.3-.4-.9-.2-1.5-.4-1.9-.6-.3-.2-.6-.4-.8-.7s-.3-.6-.3-1,0-.6.2-.9c.1-.3.3-.5.6-.7.2-.1.5-.3.8-.4.3,0,.7-.1,1.1-.1.6,0,1.1,0,1.5.2s.7.4,1,.7c.2.3.3.7.4,1.1l-1.2.2c0-.4-.2-.7-.5-.9s-.6-.3-1.1-.3-1,0-1.2.3c-.2.2-.4.4-.4.7s0,.3.2.4c0,.1.3.2.5.3.1,0,.5.2,1.1.3.9.2,1.5.4,1.8.6.3.1.6.4.8.6.2.3.3.6.3,1.1s-.1.8-.4,1.2c-.2.4-.6.6-1,.8-.5.2-1,.3-1.5.3-.9,0-1.7-.2-2.2-.6-.5-.4-.8-1-.9-1.7h0Z"/>
    <path d="M186.4,164.5v-6.3h-1.1v-1h1.1v-.8c0-.5,0-.8.1-1.1s.3-.6.6-.8.7-.3,1.3-.3.7,0,1.1.1l-.2,1.1h-.7c-.4,0-.6,0-.8.2s-.2.5-.2.9v.7h1.4v1h-1.4v6.3h-1.2Z"/>
    <path d="M189.6,160.9c0-1.3.4-2.3,1.1-3,.6-.5,1.4-.8,2.3-.8s1.8.3,2.4,1c.6.7,1,1.6,1,2.7s-.1,1.7-.4,2.2c-.3.5-.7,1-1.2,1.2-.5.3-1.1.4-1.8.4-1,0-1.8-.3-2.5-1-.6-.7-.9-1.6-.9-2.8h0ZM190.8,160.9c0,.9.2,1.6.6,2.1.4.5.9.7,1.5.7s1.1-.2,1.5-.7.6-1.2.6-2.1-.2-1.6-.6-2c-.4-.5-.9-.7-1.5-.7s-1.1.2-1.5.7-.6,1.2-.6,2.1h0Z"/>
    <path d="M197.8,164.5v-7.3h1.1v1.1c.3-.5.5-.9.8-1s.5-.2.8-.2.8.1,1.3.4l-.4,1.1c-.3-.2-.6-.3-.9-.3s-.5,0-.7.2-.4.4-.5.7c-.1.4-.2.9-.2,1.4v3.8h-1.3Z"/>
    <path d="M202.5,164.5v-7.3h1.1v1c.2-.4.5-.6.9-.9.4-.2.8-.3,1.3-.3s1,.1,1.3.3.6.5.7.9c.6-.8,1.3-1.3,2.2-1.3s1.3.2,1.7.6c.4.4.6,1,.6,1.8v5h-1.2v-4.6c0-.5,0-.8-.1-1.1,0-.2-.2-.4-.4-.5s-.5-.2-.7-.2c-.5,0-.9.2-1.3.5-.3.3-.5.9-.5,1.6v4.2h-1.2v-4.7c0-.5-.1-1-.3-1.2-.2-.3-.5-.4-1-.4s-.7,0-1,.3-.5.4-.6.8c-.1.4-.2.9-.2,1.5v3.8h-1.2v.2Z"/>
    <path d="M218.9,163.6c-.5.4-.9.7-1.3.8-.4.2-.9.2-1.4.2-.8,0-1.4-.2-1.8-.6s-.6-.9-.6-1.5,0-.7.2-1,.4-.5.6-.7c.3-.2.6-.3.9-.4.2,0,.6-.1,1.1-.2,1-.1,1.7-.3,2.2-.4v-.3c0-.5-.1-.9-.3-1.1-.3-.3-.8-.4-1.4-.4s-1,.1-1.3.3-.5.6-.6,1.1l-1.2-.2c.1-.5.3-.9.5-1.2s.6-.6,1.1-.7c.5-.2,1-.3,1.6-.3s1.1,0,1.5.2c.4.1.7.3.9.6.2.2.3.5.4.8v4.9c0,.3.2.6.3.9h-1.3c-.1-.3-.2-.6-.2-.9h.1ZM218.8,160.9c-.4.2-1.1.3-2,.5-.5,0-.9.2-1.1.2s-.4.2-.5.4-.2.4-.2.6c0,.3.1.6.4.8.2.2.6.3,1.1.3s.9-.1,1.3-.3c.4-.2.6-.5.8-.9.1-.3.2-.7.2-1.2v-.5h0Z"/>
    <path d="M224.6,163.4l.2,1.1c-.3,0-.7.1-.9.1-.4,0-.8,0-1-.2s-.4-.3-.5-.6c-.1-.2-.2-.7-.2-1.5v-4.2h-.9v-1h.9v-1.8l1.2-.7v2.5h1.2v1h-1.2v4.9c0,.1.1.2.2.2h.9v.2Z"/>
    <path d="M225.8,155.9v-1.4h1.2v1.4h-1.2ZM225.8,164.5v-7.3h1.2v7.3h-1.2Z"/>
    <path d="M228.5,160.9c0-1.3.4-2.3,1.1-3,.6-.5,1.4-.8,2.3-.8s1.8.3,2.4,1c.6.7,1,1.6,1,2.7s-.1,1.7-.4,2.2c-.3.5-.7,1-1.2,1.2-.5.3-1.1.4-1.8.4-1,0-1.8-.3-2.5-1-.6-.7-.9-1.6-.9-2.8h0ZM229.7,160.9c0,.9.2,1.6.6,2.1.4.5.9.7,1.5.7s1.1-.2,1.5-.7.6-1.2.6-2.1-.2-1.6-.6-2c-.4-.5-.9-.7-1.5-.7s-1.1.2-1.5.7-.6,1.2-.6,2.1h0Z"/>
    <path d="M236.7,164.5v-7.3h1.1v1c.5-.8,1.3-1.2,2.3-1.2s.8,0,1.2.2.6.4.8.6c.2.3.3.6.4.9v5.7h-1.2v-4.4c0-.5,0-.9-.1-1.1,0-.2-.3-.4-.5-.6-.2-.1-.5-.2-.9-.2s-1,.2-1.4.5-.6,1-.6,1.9v4h-1.2,0Z"/>
  </g>
  <g isolation="isolate">
    <path d="M517.4,512.6v-10h5.3c.5,0,.9.2,1.2.5.3.2.6.6.8,1s.3.9.3,1.4c0,.9-.3,1.6-.8,2.2s-1.5.9-2.9.9h-2.6v4.1h-1.3ZM518.8,507.3h2.6c.9,0,1.5-.2,1.8-.5s.5-.8.5-1.3,0-.8-.3-1.1c-.2-.3-.5-.5-.8-.6h-3.8v3.6h0Z"/>
    <path d="M531.3,511.7c-.5.4-.9.7-1.3.8s-.9.2-1.4.2c-.8,0-1.4-.2-1.8-.6-.4-.4-.6-.9-.6-1.5s0-.7.2-1,.4-.5.6-.7.6-.3.9-.4c.2,0,.6-.1,1.1-.2,1-.1,1.7-.3,2.2-.4v-.3c0-.5,0-.9-.3-1.1-.3-.3-.8-.4-1.4-.4s-1,.1-1.3.3c-.3.2-.5.6-.6,1.1l-1.2-.2c0-.5.3-.9.5-1.2.3-.3.6-.6,1.1-.7.5-.2,1-.3,1.6-.3s1.1,0,1.5.2.7.3.9.6c.2.2.3.5.4.8v4.9c0,.3.2.6.3.9h-1.3c0-.3-.2-.6-.2-.9h0ZM531.2,509c-.4.2-1.1.3-2,.5-.5,0-.9.2-1.1.2s-.4.2-.5.4c0,.2-.2.4-.2.6,0,.3,0,.6.4.8s.6.3,1.1.3.9-.1,1.3-.3.6-.5.8-.9c0-.3.2-.7.2-1.2v-.5h0Z"/>
    <path d="M534.4,512.6v-7.3h1.1v1.1c.3-.5.5-.9.8-1s.5-.2.8-.2.8.1,1.3.4l-.4,1.1c-.3-.2-.6-.3-.9-.3s-.5,0-.7.2-.4.4-.5.7c0,.4-.2.9-.2,1.4v3.8h-1.3Z"/>
    <path d="M543.8,511.7c-.5.4-.9.7-1.3.8s-.9.2-1.4.2c-.8,0-1.4-.2-1.8-.6-.4-.4-.6-.9-.6-1.5s0-.7.2-1,.4-.5.6-.7.6-.3.9-.4c.2,0,.6-.1,1.1-.2,1-.1,1.7-.3,2.2-.4v-.3c0-.5,0-.9-.3-1.1-.3-.3-.8-.4-1.4-.4s-1,.1-1.3.3c-.3.2-.5.6-.6,1.1l-1.2-.2c0-.5.3-.9.5-1.2.3-.3.6-.6,1.1-.7.5-.2,1-.3,1.6-.3s1.1,0,1.5.2.7.3.9.6c.2.2.3.5.4.8v4.9c0,.3.2.6.3.9h-1.3c0-.3-.2-.6-.2-.9h0ZM543.7,509c-.4.2-1.1.3-2,.5-.5,0-.9.2-1.1.2s-.4.2-.5.4c0,.2-.2.4-.2.6,0,.3,0,.6.4.8s.6.3,1.1.3.9-.1,1.3-.3.6-.5.8-.9c0-.3.2-.7.2-1.2v-.5h0Z"/>
    <path d="M546.8,512.6v-7.3h1.1v1c.2-.4.5-.6.9-.9.4-.2.8-.3,1.3-.3s1,.1,1.3.3.6.5.7.9c.6-.8,1.3-1.3,2.2-1.3s1.3.2,1.7.6.6,1,.6,1.8v5h-1.2v-4.6c0-.5,0-.8,0-1.1,0-.2-.2-.4-.4-.5s-.5-.2-.7-.2c-.5,0-.9.2-1.3.5-.3.3-.5.9-.5,1.6v4.2h-1.2v-4.7c0-.5,0-1-.3-1.2s-.5-.4-1-.4-.7,0-1,.3-.5.4-.6.8-.2.9-.2,1.5v3.8h-1.2v.2Z"/>
    <path d="M563.5,510.3l1.3.2c-.2.7-.6,1.3-1.1,1.7s-1.2.6-2.1.6-1.9-.3-2.5-1-.9-1.6-.9-2.8.3-2.2.9-2.8,1.4-1,2.4-1,1.8.3,2.4,1,.9,1.6.9,2.8,0,.2,0,.3h-5.4c0,.8.3,1.4.7,1.8s.9.6,1.5.6.8-.1,1.2-.4.6-.6.8-1.1h-.1ZM559.4,508.3h4.1c0-.6-.2-1.1-.5-1.4-.4-.5-.9-.7-1.5-.7s-1,.2-1.4.6-.6.9-.6,1.5h0Z"/>
    <path d="M569,511.5l.2,1.1c-.3,0-.7,0-.9,0-.4,0-.8,0-1-.2s-.4-.3-.5-.6c0-.2-.2-.7-.2-1.5v-4.2h-.9v-1h.9v-1.8l1.2-.7v2.5h1.2v1h-1.2v4.9c0,.1,0,.2.2.2h.9v.2Z"/>
    <path d="M575.2,510.3l1.3.2c-.2.7-.6,1.3-1.1,1.7s-1.2.6-2.1.6-1.9-.3-2.5-1-.9-1.6-.9-2.8.3-2.2.9-2.8,1.4-1,2.4-1,1.8.3,2.4,1,.9,1.6.9,2.8,0,.2,0,.3h-5.4c0,.8.3,1.4.7,1.8s.9.6,1.5.6.8-.1,1.2-.4.6-.6.8-1.1h-.1ZM571.1,508.3h4.1c0-.6-.2-1.1-.5-1.4-.4-.5-.9-.7-1.5-.7s-1,.2-1.4.6-.6.9-.6,1.5h0Z"/>
    <path d="M578,512.6v-7.3h1.1v1.1c.3-.5.5-.9.8-1s.5-.2.8-.2.8.1,1.3.4l-.4,1.1c-.3-.2-.6-.3-.9-.3s-.5,0-.7.2-.4.4-.5.7c0,.4-.2.9-.2,1.4v3.8h-1.3Z"/>
    <path d="M586.7,512.6v-10h4.4c.9,0,1.6,0,2,.3.5.2.8.5,1.1,1s.4,1,.4,1.5-.2,1.3-.7,1.8-1.2.8-2.1.9c.4.2.6.3.8.5.4.4.8.8,1.1,1.3l1.7,2.7h-1.7l-1.3-2.1c-.4-.6-.7-1.1-1-1.4-.2-.3-.5-.5-.7-.7s-.4-.2-.6-.3h-2.2v4.5h-1.3,0ZM588,507h2.9c.6,0,1.1,0,1.4-.2.3-.1.6-.3.8-.6.2-.3.3-.6.3-.9,0-.5-.2-.9-.5-1.2s-.9-.5-1.6-.5h-3.2v3.3h-.1Z"/>
    <path d="M601.6,510.3l1.3.2c-.2.7-.6,1.3-1.1,1.7s-1.2.6-2.1.6-1.9-.3-2.5-1-.9-1.6-.9-2.8.3-2.2.9-2.8,1.4-1,2.4-1,1.8.3,2.4,1,.9,1.6.9,2.8,0,.2,0,.3h-5.4c0,.8.3,1.4.7,1.8s.9.6,1.5.6.8-.1,1.2-.4c.3-.2.6-.6.8-1.1h-.1ZM597.6,508.3h4.1c0-.6-.2-1.1-.5-1.4-.4-.5-.9-.7-1.5-.7s-1,.2-1.4.6-.6.9-.6,1.5h0Z"/>
    <path d="M604.7,512.6v-6.3h-1.1v-1h1.1v-.8c0-.5,0-.8,0-1.1,0-.3.3-.6.6-.8.3-.2.7-.3,1.3-.3s.7,0,1.1.1l-.2,1.1h-.7c-.4,0-.6,0-.8.2s-.2.5-.2.9v.7h1.4v1h-1.4v6.3h-1.2,0Z"/>
    <path d="M608.3,504v-1.4h1.2v1.4h-1.2ZM608.3,512.6v-7.3h1.2v7.3h-1.2Z"/>
    <path d="M611.4,512.6v-7.3h1.1v1c.5-.8,1.3-1.2,2.3-1.2s.8,0,1.2.2.6.4.8.6c.2.3.3.6.4.9v5.7h-1.2v-4.4c0-.5,0-.9,0-1.1,0-.2-.3-.4-.5-.6-.2-.1-.5-.2-.9-.2s-1,.2-1.4.5-.6,1-.6,1.9v4h-1.2.1Z"/>
    <path d="M624.2,510.3l1.3.2c-.2.7-.6,1.3-1.1,1.7s-1.2.6-2.1.6-1.9-.3-2.5-1-.9-1.6-.9-2.8.3-2.2.9-2.8,1.4-1,2.4-1,1.8.3,2.4,1,.9,1.6.9,2.8,0,.2,0,.3h-5.4c0,.8.3,1.4.7,1.8s.9.6,1.5.6.8-.1,1.2-.4c.3-.2.6-.6.8-1.1h-.1ZM620.1,508.3h4.1c0-.6-.2-1.1-.5-1.4-.4-.5-.9-.7-1.5-.7s-1,.2-1.4.6-.6.9-.6,1.5h0Z"/>
    <path d="M627,512.6v-7.3h1.1v1c.2-.4.5-.6.9-.9.4-.2.8-.3,1.3-.3s1,.1,1.3.3.6.5.7.9c.6-.8,1.3-1.3,2.2-1.3s1.3.2,1.7.6.6,1,.6,1.8v5h-1.2v-4.6c0-.5,0-.8,0-1.1,0-.2-.2-.4-.4-.5s-.5-.2-.7-.2c-.5,0-.9.2-1.3.5-.3.3-.5.9-.5,1.6v4.2h-1.2v-4.7c0-.5,0-1-.3-1.2-.2-.3-.5-.4-1-.4s-.7,0-1,.3-.5.4-.6.8-.2.9-.2,1.5v3.8h-1.2v.2Z"/>
    <path d="M643.6,510.3l1.3.2c-.2.7-.6,1.3-1.1,1.7s-1.2.6-2.1.6-1.9-.3-2.5-1-.9-1.6-.9-2.8.3-2.2.9-2.8,1.4-1,2.4-1,1.8.3,2.4,1,.9,1.6.9,2.8,0,.2,0,.3h-5.4c0,.8.3,1.4.7,1.8s.9.6,1.5.6.8-.1,1.2-.4c.3-.2.6-.6.8-1.1h-.1ZM639.6,508.3h4.1c0-.6-.2-1.1-.5-1.4-.4-.5-.9-.7-1.5-.7s-1,.2-1.4.6-.6.9-.6,1.5h0Z"/>
    <path d="M646.4,512.6v-7.3h1.1v1c.5-.8,1.3-1.2,2.3-1.2s.8,0,1.2.2.6.4.8.6c.2.3.3.6.4.9v5.7h-1.2v-4.4c0-.5,0-.9,0-1.1,0-.2-.3-.4-.5-.6-.2-.1-.5-.2-.9-.2s-1,.2-1.4.5-.6,1-.6,1.9v4h-1.2.1Z"/>
    <path d="M656.9,511.5l.2,1.1c-.3,0-.7,0-.9,0-.4,0-.8,0-1-.2s-.4-.3-.5-.6c0-.2-.2-.7-.2-1.5v-4.2h-.9v-1h.9v-1.8l1.2-.7v2.5h1.2v1h-1.2v4.9c0,.1,0,.2.2.2h.9v.2Z"/>
  </g>
  <g>
    <path d="M624.2,457.3c0,20.7-16.8,37.4-37.4,37.4s-33.4-13-36.8-30.3" fill="none" stroke="#000" stroke-miterlimit="10"/>
    <polygon points="555.3 465.3 549.3 457.3 545.3 466.4 555.3 465.3"/>
  </g>
  <g>
    <path d="M550,74.9c3.3-17.3,18.5-30.3,36.8-30.3s37.4,16.8,37.4,37.4" fill="none" stroke="#000" stroke-miterlimit="10"/>
    <polygon points="555.3 74 549.3 82 545.3 72.9 555.3 74"/>
  </g>
  <g>
    <path d="M160,206.6c3.3-17.3,18.5-30.3,36.8-30.3s37.4,16.8,37.4,37.4" fill="none" stroke="#000" stroke-miterlimit="10"/>
    <polygon points="165.3 205.7 159.3 213.7 155.3 204.6 165.3 205.7"/>
  </g>
  <g>
    <line x1="843.6" y1="15.4" x2="843.6" y2="18.4" fill="none" stroke="#333" stroke-miterlimit="10" stroke-width="2"/>
    <line x1="843.6" y1="24.4" x2="843.6" y2="583.3" fill="none" stroke="#333" stroke-dasharray="6 6" stroke-miterlimit="10" stroke-width="2"/>
    <line x1="843.6" y1="586.3" x2="843.6" y2="589.3" fill="none" stroke="#333" stroke-miterlimit="10" stroke-width="2"/>
  </g>
</svg>