<?xml version="1.0" encoding="UTF-8"?>
<svg id="Layer_1" xmlns="http://www.w3.org/2000/svg" version="1.1" viewBox="0 0 1503.3 776">
  <!-- Generator: Adobe Illustrator 29.4.0, SVG Export Plug-In . SVG Version: 2.1.0 Build 152)  -->
  <rect x="11.5" y="189.7" width="406.6" height="199.8" fill="#11296b"/>
  <rect x="1085.2" y="189.7" width="406.6" height="199.8" fill="#11296b"/>
  <rect x="548.4" y="14.5" width="406.6" height="199.8" fill="#11296b"/>
  <circle cx="751.7" cy="604.4" r="166.6" fill="#11296b"/>
  <g>
    <rect x="47.7" y="241.6" width="332" height="110.7" fill="none"/>
    <path d="M178.6,263.4h-7.8v14.1h-7.3v-36h17.7c2.5,0,4.5.4,5.8.9,1.4.6,2.5,1.4,3.5,2.5.8.9,1.4,1.9,1.9,3,.5,1.1.7,2.4.7,3.8s-.4,3.4-1.3,5c-.9,1.7-2.3,2.8-4.3,3.5,1.7.7,2.8,1.6,3.5,2.8.7,1.2,1,3.1,1,5.6v2.4c0,1.6,0,2.8.2,3.3.2.9.7,1.6,1.4,2.1v.9h-8.3c-.2-.8-.4-1.4-.5-1.9-.2-1-.3-2-.3-3.1v-3.3c0-2.3-.5-3.8-1.3-4.6-.8-.8-2.3-1.1-4.5-1.1ZM183.2,256.8c1.5-.7,2.2-2,2.2-4.1s-.7-3.6-2.2-4.4c-.8-.4-2-.6-3.7-.6h-8.7v9.7h8.5c1.7,0,3-.2,3.8-.6Z" fill="#fff"/>
    <path d="M206,241.3v6.4h-7.1v-6.4h7.1ZM206,250.9v26.6h-7.1v-26.6h7.1Z" fill="#fff"/>
    <path d="M235.8,260.4h-7.1c-.1-1-.5-1.9-1-2.7-.8-1.1-2-1.6-3.6-1.6-2.3,0-3.9,1.2-4.8,3.5-.5,1.2-.7,2.9-.7,4.9s.2,3.5.7,4.7c.8,2.2,2.4,3.3,4.7,3.3s2.8-.4,3.5-1.3,1.1-2,1.2-3.4h7.1c-.2,2.1-.9,4.1-2.3,6-2.2,3-5.4,4.6-9.7,4.6s-7.4-1.3-9.4-3.8c-2-2.5-3-5.8-3-9.9s1.1-8.1,3.3-10.7c2.2-2.5,5.3-3.8,9.2-3.8s6.1.7,8.2,2.2c2.1,1.5,3.4,4.1,3.8,7.9Z" fill="#fff"/>
    <path d="M264.6,261.9v15.6h-7.1v-16.2c0-1.4-.2-2.6-.7-3.5-.6-1.2-1.8-1.9-3.6-1.9s-3.2.6-4.2,1.8c-1,1.2-1.4,3-1.4,5.3v14.4h-6.9v-35.9h6.9v12.7c1-1.5,2.2-2.6,3.5-3.2,1.3-.6,2.7-.9,4.2-.9s3.1.3,4.5.9c1.3.6,2.4,1.4,3.3,2.6.7,1,1.2,2,1.3,3.1.2,1,.2,2.8.2,5.1Z" fill="#fff"/>
    <path d="M149.7,320.4h-7.1c-.1-1-.5-1.9-1-2.7-.8-1.1-2-1.6-3.6-1.6-2.3,0-3.9,1.2-4.8,3.5-.5,1.2-.7,2.9-.7,4.9s.2,3.5.7,4.7c.8,2.2,2.4,3.3,4.7,3.3s2.8-.4,3.5-1.3,1.1-2,1.2-3.4h7.1c-.2,2.1-.9,4.1-2.3,6-2.2,3-5.4,4.6-9.7,4.6s-7.4-1.3-9.4-3.8c-2-2.5-3-5.8-3-9.9s1.1-8.1,3.3-10.7c2.2-2.5,5.3-3.8,9.2-3.8s6.1.7,8.2,2.2c2.1,1.5,3.4,4.1,3.8,7.9Z" fill="#fff"/>
    <path d="M176.7,314.3c2.2,2.8,3.4,6.1,3.4,10s-1.1,7.2-3.4,10c-2.2,2.8-5.7,4.2-10.2,4.2s-8-1.4-10.2-4.2c-2.2-2.8-3.4-6.1-3.4-10s1.1-7.2,3.4-10c2.2-2.8,5.7-4.2,10.2-4.2s8,1.4,10.2,4.2ZM166.4,315.9c-2,0-3.6.7-4.7,2.2s-1.6,3.5-1.6,6.2.5,4.7,1.6,6.2c1.1,1.4,2.7,2.2,4.7,2.2s3.6-.7,4.7-2.2c1.1-1.4,1.6-3.5,1.6-6.2s-.5-4.7-1.6-6.2c-1.1-1.4-2.7-2.2-4.7-2.2Z" fill="#fff"/>
    <path d="M197.6,316c-2.4,0-4,1-4.9,3-.5,1.1-.7,2.4-.7,4.1v14.4h-6.9v-26.6h6.7v3.9c.9-1.4,1.7-2.4,2.5-3,1.4-1.1,3.2-1.6,5.4-1.6s5,.7,6.8,2.2c1.7,1.4,2.6,3.8,2.6,7.2v17.9h-7.1v-16.2c0-1.4-.2-2.5-.6-3.2-.7-1.4-2-2.1-3.9-2.1Z" fill="#fff"/>
    <path d="M227.8,332.5v5.2h-3.3c-3.3.2-5.5-.3-6.7-1.6-.8-.8-1.2-2-1.2-3.7v-16.4h-3.7v-5h3.7v-7.4h6.9v7.4h4.3v5h-4.3v14.1c0,1.1.1,1.8.4,2,.3.3,1.1.4,2.5.4s.4,0,.7,0c.2,0,.5,0,.7,0Z" fill="#fff"/>
    <path d="M255,329.7c-.2,1.6-1,3.2-2.5,4.8-2.3,2.6-5.5,3.9-9.6,3.9s-6.4-1.1-9-3.3c-2.6-2.2-3.9-5.7-3.9-10.6s1.2-8.1,3.5-10.6c2.3-2.5,5.4-3.7,9.1-3.7s4.2.4,6,1.2c1.8.8,3.2,2.1,4.4,3.9,1,1.6,1.7,3.4,2,5.5.2,1.2.3,3,.2,5.3h-18.2c0,2.7.9,4.5,2.5,5.6,1,.7,2.1,1,3.5,1s2.6-.4,3.5-1.2c.5-.4.9-1,1.3-1.8h7.1ZM248.1,321.5c-.1-1.8-.7-3.2-1.7-4.2s-2.2-1.4-3.7-1.4-2.9.5-3.7,1.5c-.9,1-1.4,2.4-1.7,4.1h10.8Z" fill="#fff"/>
    <path d="M272.6,316c-2.4,0-4,1-4.9,3-.5,1.1-.7,2.4-.7,4.1v14.4h-6.9v-26.6h6.7v3.9c.9-1.4,1.7-2.4,2.5-3,1.4-1.1,3.2-1.6,5.4-1.6s5,.7,6.8,2.2c1.7,1.4,2.6,3.8,2.6,7.2v17.9h-7.1v-16.2c0-1.4-.2-2.5-.6-3.2-.7-1.4-2-2.1-3.9-2.1Z" fill="#fff"/>
    <path d="M302.8,332.5v5.2h-3.3c-3.3.2-5.5-.3-6.7-1.6-.8-.8-1.2-2-1.2-3.7v-16.4h-3.7v-5h3.7v-7.4h6.9v7.4h4.3v5h-4.3v14.1c0,1.1.1,1.8.4,2,.3.3,1.1.4,2.5.4s.4,0,.7,0c.2,0,.5,0,.7,0Z" fill="#fff"/>
  </g>
  <g>
    <rect x="1122.5" y="241.6" width="332" height="110.7" fill="none"/>
    <path d="M1141.4,272.3c1.8,0,3.2-.2,4.3-.6,2.1-.7,3.1-2.1,3.1-4.2s-.5-2.1-1.6-2.8c-1-.6-2.7-1.2-4.9-1.7l-3.8-.9c-3.7-.8-6.3-1.8-7.8-2.8-2.4-1.7-3.6-4.3-3.6-7.8s1.2-5.9,3.5-8c2.3-2.1,5.8-3.2,10.3-3.2s7,1,9.7,3c2.7,2,4.1,4.9,4.2,8.8h-7.2c-.1-2.2-1.1-3.7-2.8-4.6-1.2-.6-2.6-.9-4.4-.9s-3.5.4-4.6,1.2-1.7,1.9-1.7,3.3.6,2.2,1.7,2.9c.7.4,2.3.9,4.7,1.5l6.2,1.5c2.7.7,4.8,1.5,6.2,2.6,2.1,1.7,3.2,4.1,3.2,7.3s-1.3,6-3.8,8.2-6.1,3.3-10.7,3.3-8.4-1.1-11.1-3.2c-2.7-2.1-4-5.1-4-8.8h7.2c.2,1.6.7,2.9,1.3,3.7,1.2,1.5,3.3,2.2,6.3,2.2Z" fill="#fff"/>
    <path d="M1183.4,254.3c2.2,2.8,3.4,6.1,3.4,10s-1.1,7.2-3.4,10c-2.2,2.8-5.7,4.2-10.2,4.2s-8-1.4-10.2-4.2c-2.2-2.8-3.4-6.1-3.4-10s1.1-7.2,3.4-10c2.2-2.8,5.7-4.2,10.2-4.2s8,1.4,10.2,4.2ZM1173.1,255.9c-2,0-3.6.7-4.7,2.2s-1.6,3.5-1.6,6.2.5,4.7,1.6,6.2c1.1,1.4,2.7,2.2,4.7,2.2s3.6-.7,4.7-2.2c1.1-1.4,1.6-3.5,1.6-6.2s-.5-4.7-1.6-6.2-2.7-2.2-4.7-2.2Z" fill="#fff"/>
    <path d="M1214,253.7c2.1,2.3,3.2,5.7,3.2,10.1s-1.1,8.3-3.2,10.7c-2.1,2.5-4.8,3.7-8.1,3.7s-3.9-.5-5.3-1.6c-.8-.6-1.5-1.4-2.2-2.6v13.9h-6.9v-37.1h6.7v3.9c.7-1.2,1.5-2.1,2.4-2.7,1.5-1.2,3.4-1.8,5.5-1.8,3.1,0,5.7,1.1,7.9,3.4ZM1210,264.2c0-2.1-.5-3.9-1.4-5.4-.9-1.6-2.5-2.4-4.6-2.4s-4.3,1.2-5.2,3.6c-.5,1.3-.7,2.9-.7,4.8,0,3.1.8,5.3,2.5,6.5,1,.7,2.1,1.1,3.5,1.1,1.9,0,3.4-.7,4.4-2.2,1-1.5,1.5-3.5,1.5-6Z" fill="#fff"/>
    <path d="M1246.3,261.9v15.6h-7.1v-16.2c0-1.4-.2-2.6-.7-3.5-.6-1.2-1.8-1.9-3.6-1.9s-3.2.6-4.2,1.8c-1,1.2-1.4,3-1.4,5.3v14.4h-6.9v-35.9h6.9v12.7c1-1.5,2.2-2.6,3.5-3.2,1.3-.6,2.7-.9,4.2-.9s3.1.3,4.5.9c1.3.6,2.4,1.4,3.3,2.6.7,1,1.2,2,1.3,3.1s.2,2.8.2,5.1Z" fill="#fff"/>
    <path d="M1260,241.3v6.4h-7.1v-6.4h7.1ZM1260,250.9v26.6h-7.1v-26.6h7.1Z" fill="#fff"/>
    <path d="M1285,252.1c2.1,1.3,3.3,3.6,3.6,6.9h-7c0-.9-.3-1.6-.8-2.1-.8-.9-2.1-1.4-3.9-1.4s-2.6.2-3.2.7c-.6.5-1,1-1,1.7s.3,1.4,1,1.7c.7.4,3.1,1,7.3,1.9,2.8.7,4.8,1.6,6.2,3,1.4,1.3,2.1,3,2.1,5s-1,4.8-2.9,6.5c-2,1.7-5,2.5-9.1,2.5s-7.3-.9-9.3-2.6c-2-1.8-3-4-3-6.8h7.1c.1,1.2.5,2.1,1,2.6.9.9,2.5,1.4,4.8,1.4s2.5-.2,3.3-.6c.8-.4,1.2-1,1.2-1.8s-.3-1.4-1-1.8c-.7-.4-3.1-1.1-7.3-2.1-3-.7-5.1-1.7-6.4-2.8-1.2-1.1-1.9-2.7-1.9-4.8s1-4.6,2.9-6.3c1.9-1.8,4.6-2.6,8.1-2.6s6,.7,8.1,2Z" fill="#fff"/>
    <path d="M1306.7,272.5v5.2h-3.3c-3.3.2-5.5-.3-6.7-1.6-.8-.8-1.2-2-1.2-3.7v-16.4h-3.7v-5h3.7v-7.4h6.9v7.4h4.3v5h-4.3v14.1c0,1.1.1,1.8.4,2s1.1.4,2.5.4.4,0,.7,0c.2,0,.5,0,.7,0Z" fill="#fff"/>
    <path d="M1318.3,241.3v6.4h-7.1v-6.4h7.1ZM1318.3,250.9v26.6h-7.1v-26.6h7.1Z" fill="#fff"/>
    <path d="M1348.1,260.4h-7.1c-.1-1-.5-1.9-1-2.7-.8-1.1-2-1.6-3.6-1.6-2.3,0-3.9,1.2-4.8,3.5-.5,1.2-.7,2.9-.7,4.9s.2,3.5.7,4.7c.8,2.2,2.4,3.3,4.7,3.3s2.8-.4,3.5-1.3,1.1-2,1.2-3.4h7.1c-.2,2.1-.9,4.1-2.3,6-2.2,3-5.4,4.6-9.7,4.6s-7.4-1.3-9.4-3.8-3-5.8-3-9.9,1.1-8.1,3.3-10.7,5.3-3.8,9.2-3.8,6.1.7,8.2,2.2c2.1,1.5,3.4,4.1,3.8,7.9Z" fill="#fff"/>
    <path d="M1353.8,253.8c1.8-2.3,5-3.5,9.5-3.5s5.5.6,7.8,1.7c2.3,1.2,3.4,3.3,3.4,6.5v12.2c0,.8,0,1.9,0,3.1,0,.9.2,1.5.4,1.9.2.3.6.6,1,.8v1h-7.6c-.2-.5-.4-1-.4-1.5,0-.5-.1-1-.2-1.6-1,1-2.1,1.9-3.3,2.7-1.5.9-3.2,1.3-5.1,1.3s-4.4-.7-6-2.1c-1.6-1.4-2.4-3.3-2.4-5.8s1.3-5.6,3.8-7.1c1.4-.8,3.4-1.4,6.1-1.7l2.4-.3c1.3-.2,2.2-.4,2.8-.6,1-.4,1.5-1.1,1.5-2s-.4-1.8-1.1-2.3-1.9-.6-3.3-.6-2.8.4-3.5,1.2c-.5.6-.8,1.4-1,2.4h-6.7c.1-2.3.8-4.2,2-5.7ZM1359,272.5c.7.5,1.4.8,2.4.8,1.5,0,2.9-.4,4.1-1.3,1.3-.9,1.9-2.5,2-4.8v-2.6c-.4.3-.9.5-1.3.7-.4.2-1.1.3-1.8.5l-1.6.3c-1.5.3-2.5.6-3.1,1-1.1.6-1.6,1.6-1.6,3s.3,2,1,2.6Z" fill="#fff"/>
    <path d="M1392.8,272.5v5.2h-3.3c-3.3.2-5.5-.3-6.7-1.6-.8-.8-1.2-2-1.2-3.7v-16.4h-3.7v-5h3.7v-7.4h6.9v7.4h4.3v5h-4.3v14.1c0,1.1.1,1.8.4,2s1.1.4,2.5.4.4,0,.7,0c.2,0,.5,0,.7,0Z" fill="#fff"/>
    <path d="M1420.1,269.7c-.2,1.6-1,3.2-2.5,4.8-2.3,2.6-5.5,3.9-9.6,3.9s-6.4-1.1-9-3.3c-2.6-2.2-3.9-5.7-3.9-10.6s1.2-8.1,3.5-10.6c2.3-2.5,5.4-3.7,9.1-3.7s4.2.4,6,1.2,3.2,2.1,4.4,3.9c1,1.6,1.7,3.4,2,5.5.2,1.2.3,3,.2,5.3h-18.2c0,2.7.9,4.5,2.5,5.6,1,.7,2.1,1,3.5,1s2.6-.4,3.5-1.2c.5-.4.9-1,1.3-1.8h7.1ZM1413.2,261.5c-.1-1.8-.7-3.2-1.7-4.2s-2.2-1.4-3.7-1.4-2.9.5-3.7,1.5c-.9,1-1.4,2.4-1.7,4.1h10.8Z" fill="#fff"/>
    <path d="M1449.3,241.6v35.9h-6.8v-3.7c-1,1.6-2.1,2.7-3.4,3.4s-2.8,1.1-4.7,1.1c-3.1,0-5.7-1.3-7.8-3.8s-3.2-5.7-3.2-9.7,1-8.1,3.1-10.7c2.1-2.6,4.9-3.9,8.4-3.9s3,.4,4.3,1.1,2.3,1.7,3.1,2.9v-12.7h7.1ZM1430.6,264.4c0,2.5.5,4.4,1.5,5.9,1,1.5,2.4,2.2,4.4,2.2s3.5-.7,4.5-2.2,1.5-3.4,1.5-5.7-.8-5.6-2.5-7c-1-.8-2.2-1.3-3.5-1.3-2,0-3.5.8-4.5,2.3s-1.4,3.4-1.4,5.7Z" fill="#fff"/>
    <path d="M1197.9,321.8h-17.5v9.3h19.9v6.5h-27.3v-36h26.4v6.4h-19v7.6h17.5v6.2Z" fill="#fff"/>
    <path d="M1229.3,337.5h-8.7l-4.6-8-4.6,8h-8.4l9.1-13.5-8.7-13.1h8.5l4.4,7.7,4.3-7.7h8.3l-8.7,13,9.1,13.6Z" fill="#fff"/>
    <path d="M1256.2,329.7c-.2,1.6-1,3.2-2.5,4.8-2.3,2.6-5.5,3.9-9.6,3.9s-6.4-1.1-9-3.3c-2.6-2.2-3.9-5.7-3.9-10.6s1.2-8.1,3.5-10.6c2.3-2.5,5.4-3.7,9.1-3.7s4.2.4,6,1.2c1.8.8,3.2,2.1,4.4,3.9,1,1.6,1.7,3.4,2,5.5.2,1.2.3,3,.2,5.3h-18.2c0,2.7.9,4.5,2.5,5.6,1,.7,2.1,1,3.5,1s2.6-.4,3.5-1.2c.5-.4.9-1,1.3-1.8h7.1ZM1249.3,321.5c-.1-1.8-.7-3.2-1.7-4.2s-2.2-1.4-3.7-1.4-2.9.5-3.7,1.5c-.9,1-1.4,2.4-1.7,4.1h10.8Z" fill="#fff"/>
    <path d="M1284.3,320.4h-7.1c-.1-1-.5-1.9-1-2.7-.8-1.1-2-1.6-3.6-1.6-2.3,0-3.9,1.2-4.8,3.5-.5,1.2-.7,2.9-.7,4.9s.2,3.5.7,4.7c.8,2.2,2.4,3.3,4.7,3.3s2.8-.4,3.5-1.3,1.1-2,1.2-3.4h7.1c-.2,2.1-.9,4.1-2.3,6-2.2,3-5.4,4.6-9.7,4.6s-7.4-1.3-9.4-3.8c-2-2.5-3-5.8-3-9.9s1.1-8.1,3.3-10.7c2.2-2.5,5.3-3.8,9.2-3.8s6.1.7,8.2,2.2c2.1,1.5,3.4,4.1,3.8,7.9Z" fill="#fff"/>
    <path d="M1306.1,333.7c0,0-.2.3-.5.7-.3.4-.6.8-.9,1.1-1.1,1-2.1,1.6-3.2,2s-2.2.5-3.6.5c-3.9,0-6.6-1.4-8-4.2-.8-1.6-1.1-3.9-1.1-6.9v-16h7.1v16c0,1.5.2,2.7.5,3.4.6,1.4,1.9,2,3.7,2s4-1,4.9-2.9c.5-1,.7-2.4.7-4.1v-14.5h7.1v26.6h-6.8v-3.8Z" fill="#fff"/>
    <path d="M1331.8,332.5v5.2h-3.3c-3.3.2-5.5-.3-6.7-1.6-.8-.8-1.2-2-1.2-3.7v-16.4h-3.7v-5h3.7v-7.4h6.9v7.4h4.3v5h-4.3v14.1c0,1.1.1,1.8.4,2,.3.3,1.1.4,2.5.4s.4,0,.7,0c.2,0,.5,0,.7,0Z" fill="#fff"/>
    <path d="M1343.4,301.3v6.4h-7.1v-6.4h7.1ZM1343.4,310.9v26.6h-7.1v-26.6h7.1Z" fill="#fff"/>
    <path d="M1372.3,314.3c2.2,2.8,3.4,6.1,3.4,10s-1.1,7.2-3.4,10c-2.2,2.8-5.7,4.2-10.2,4.2s-8-1.4-10.2-4.2c-2.2-2.8-3.4-6.1-3.4-10s1.1-7.2,3.4-10c2.2-2.8,5.7-4.2,10.2-4.2s8,1.4,10.2,4.2ZM1362.1,315.9c-2,0-3.6.7-4.7,2.2s-1.6,3.5-1.6,6.2.5,4.7,1.6,6.2c1.1,1.4,2.7,2.2,4.7,2.2s3.6-.7,4.7-2.2c1.1-1.4,1.6-3.5,1.6-6.2s-.5-4.7-1.6-6.2c-1.1-1.4-2.7-2.2-4.7-2.2Z" fill="#fff"/>
    <path d="M1393.2,316c-2.4,0-4,1-4.9,3-.5,1.1-.7,2.4-.7,4.1v14.4h-6.9v-26.6h6.7v3.9c.9-1.4,1.7-2.4,2.5-3,1.4-1.1,3.2-1.6,5.4-1.6s5,.7,6.8,2.2,2.6,3.8,2.6,7.2v17.9h-7.1v-16.2c0-1.4-.2-2.5-.6-3.2-.7-1.4-2-2.1-3.9-2.1Z" fill="#fff"/>
  </g>
  <g>
    <rect x="585.6" y="63.6" width="332" height="101.6" fill="none"/>
    <path d="M666,63.5h7.5v36h-7.5v-36Z" fill="#fff"/>
    <path d="M692.4,78c-2.4,0-4,1-4.9,3-.5,1.1-.7,2.4-.7,4.1v14.4h-6.9v-26.6h6.7v3.9c.9-1.4,1.7-2.4,2.5-3,1.4-1.1,3.2-1.6,5.4-1.6s5,.7,6.8,2.2c1.7,1.4,2.6,3.8,2.6,7.2v17.9h-7.1v-16.2c0-1.4-.2-2.5-.6-3.2-.7-1.4-2-2.1-3.9-2.1Z" fill="#fff"/>
    <path d="M707.9,72.9h7.8l5.5,19.6,5.7-19.6h7.5l-9.6,26.6h-7.3l-9.5-26.6Z" fill="#fff"/>
    <path d="M745.4,63.3v6.4h-7.1v-6.4h7.1ZM745.4,72.9v26.6h-7.1v-26.6h7.1Z" fill="#fff"/>
    <path d="M764.3,94.5v5.2h-3.3c-3.3.2-5.5-.3-6.7-1.6-.8-.8-1.2-2-1.2-3.7v-16.4h-3.7v-5h3.7v-7.4h6.9v7.4h4.3v5h-4.3v14.1c0,1.1.1,1.8.4,2,.3.3,1.1.4,2.5.4s.4,0,.7,0c.2,0,.5,0,.7,0Z" fill="#fff"/>
    <path d="M776,63.3v6.4h-7.1v-6.4h7.1ZM776,72.9v26.6h-7.1v-26.6h7.1Z" fill="#fff"/>
    <path d="M795.2,78c-2.4,0-4,1-4.9,3-.5,1.1-.7,2.4-.7,4.1v14.4h-6.9v-26.6h6.7v3.9c.9-1.4,1.7-2.4,2.5-3,1.4-1.1,3.2-1.6,5.4-1.6s5,.7,6.8,2.2,2.6,3.8,2.6,7.2v17.9h-7.1v-16.2c0-1.4-.2-2.5-.6-3.2-.7-1.4-2-2.1-3.9-2.1Z" fill="#fff"/>
    <path d="M820.8,104.1c.7.6,2,1,3.8,1s4.2-.8,5-2.5c.6-1.1.8-2.9.8-5.4v-1.7c-.7,1.1-1.4,2-2.1,2.6-1.4,1.1-3.2,1.6-5.4,1.6-3.4,0-6.1-1.2-8.2-3.6-2-2.4-3.1-5.7-3.1-9.8s1-7.3,3-10c2-2.7,4.8-4,8.4-4s2.5.2,3.5.6c1.7.7,3.1,2,4.1,3.9v-3.8h6.8v25.2c0,3.4-.6,6-1.7,7.8-2,3-5.8,4.5-11.4,4.5s-6.2-.7-8.3-2c-2.1-1.3-3.3-3.3-3.6-6h7.6c.2.8.5,1.4,1,1.8ZM819.6,90.4c.9,2.2,2.6,3.4,5.1,3.4s3-.6,4.1-1.8c1.1-1.2,1.7-3.2,1.7-5.9s-.5-4.4-1.6-5.8-2.5-2-4.3-2-4.1,1.1-5.1,3.4c-.5,1.2-.7,2.7-.7,4.5s.3,2.9.8,4.1Z" fill="#fff"/>
    <path d="M600.4,123.5h8l7.8,27.3,7.9-27.3h7.8l-12.3,36h-7.1l-12.2-36Z" fill="#fff"/>
    <path d="M642.2,123.3v6.4h-7.1v-6.4h7.1ZM642.2,132.9v26.6h-7.1v-26.6h7.1Z" fill="#fff"/>
    <path d="M667.2,134.1c2.1,1.3,3.3,3.6,3.6,6.9h-7c0-.9-.4-1.6-.8-2.1-.8-.9-2.1-1.4-3.9-1.4s-2.6.2-3.2.7c-.6.5-1,1-1,1.7s.3,1.4,1,1.7c.7.4,3.1,1,7.3,1.9,2.8.7,4.8,1.6,6.2,3,1.4,1.3,2.1,3,2.1,5s-1,4.8-2.9,6.5c-2,1.7-5,2.5-9.1,2.5s-7.3-.9-9.3-2.6c-2-1.8-3-4-3-6.8h7.1c.1,1.2.5,2.1,1,2.6.9.9,2.5,1.4,4.8,1.4s2.5-.2,3.3-.6c.8-.4,1.2-1,1.2-1.8s-.3-1.4-1-1.8c-.7-.4-3.1-1.1-7.3-2.1-3-.7-5.1-1.7-6.4-2.8-1.2-1.1-1.9-2.7-1.9-4.8s1-4.6,2.9-6.3c1.9-1.8,4.6-2.6,8.1-2.6s6,.7,8.1,2Z" fill="#fff"/>
    <path d="M693.8,155.7c0,0-.2.3-.5.7-.3.4-.6.8-.9,1.1-1.1,1-2.1,1.6-3.2,2-1,.4-2.2.5-3.6.5-3.9,0-6.6-1.4-8-4.2-.8-1.6-1.1-3.9-1.1-6.9v-16h7.1v16c0,1.5.2,2.7.5,3.4.6,1.4,1.9,2,3.7,2s4-1,4.9-2.9c.5-1,.7-2.4.7-4.1v-14.5h7.1v26.6h-6.8v-3.8Z" fill="#fff"/>
    <path d="M708.3,135.7c1.8-2.3,5-3.5,9.5-3.5s5.5.6,7.8,1.7c2.3,1.2,3.4,3.3,3.4,6.5v12.2c0,.8,0,1.9,0,3.1,0,.9.2,1.5.4,1.9.2.3.6.6,1,.8v1h-7.6c-.2-.5-.4-1-.4-1.5,0-.5-.1-1-.2-1.6-1,1-2.1,1.9-3.3,2.7-1.5.9-3.2,1.3-5.1,1.3s-4.4-.7-6-2.1c-1.6-1.4-2.4-3.3-2.4-5.8s1.3-5.6,3.8-7.1c1.4-.8,3.4-1.4,6.1-1.7l2.4-.3c1.3-.2,2.2-.4,2.8-.6,1-.4,1.5-1.1,1.5-2s-.4-1.8-1.1-2.3-1.9-.6-3.3-.6-2.8.4-3.5,1.2c-.5.6-.8,1.4-1,2.4h-6.7c.1-2.3.8-4.2,2-5.7ZM713.4,154.5c.7.5,1.4.8,2.4.8,1.5,0,2.9-.4,4.1-1.3,1.3-.9,1.9-2.5,2-4.8v-2.6c-.4.3-.9.5-1.3.7-.4.2-1.1.3-1.8.5l-1.6.3c-1.5.3-2.5.6-3.1,1-1.1.6-1.6,1.6-1.6,3s.3,2,1,2.6Z" fill="#fff"/>
    <path d="M735.2,123.5h7v36h-7v-36Z" fill="#fff"/>
    <path d="M756.1,123.3v6.4h-7.1v-6.4h7.1ZM756.1,132.9v26.6h-7.1v-26.6h7.1Z" fill="#fff"/>
    <path d="M783.4,159.5h-23v-5.4l13.6-15.5h-12.7v-5.7h21.6v5.8l-13.5,15.1h14v5.7Z" fill="#fff"/>
    <path d="M788.8,135.7c1.8-2.3,5-3.5,9.5-3.5s5.5.6,7.8,1.7c2.3,1.2,3.4,3.3,3.4,6.5v12.2c0,.8,0,1.9,0,3.1,0,.9.2,1.5.4,1.9.2.3.6.6,1,.8v1h-7.6c-.2-.5-.4-1-.4-1.5,0-.5-.1-1-.2-1.6-1,1-2.1,1.9-3.3,2.7-1.5.9-3.2,1.3-5.1,1.3s-4.4-.7-6-2.1c-1.6-1.4-2.4-3.3-2.4-5.8s1.3-5.6,3.8-7.1c1.4-.8,3.4-1.4,6.1-1.7l2.4-.3c1.3-.2,2.2-.4,2.8-.6,1-.4,1.5-1.1,1.5-2s-.4-1.8-1.1-2.3-1.9-.6-3.3-.6-2.8.4-3.5,1.2c-.5.6-.8,1.4-1,2.4h-6.7c.1-2.3.8-4.2,2-5.7ZM794,154.5c.7.5,1.4.8,2.4.8,1.5,0,2.9-.4,4.1-1.3,1.3-.9,1.9-2.5,2-4.8v-2.6c-.4.3-.9.5-1.3.7-.4.2-1.1.3-1.8.5l-1.6.3c-1.5.3-2.5.6-3.1,1-1.1.6-1.6,1.6-1.6,3s.3,2,1,2.6Z" fill="#fff"/>
    <path d="M827.8,154.5v5.2h-3.3c-3.3.2-5.5-.3-6.7-1.6-.8-.8-1.2-2-1.2-3.7v-16.4h-3.7v-5h3.7v-7.4h6.9v7.4h4.3v5h-4.3v14.1c0,1.1.1,1.8.4,2s1.1.4,2.5.4.4,0,.7,0c.2,0,.5,0,.7,0Z" fill="#fff"/>
    <path d="M839.5,123.3v6.4h-7.1v-6.4h7.1ZM839.5,132.9v26.6h-7.1v-26.6h7.1Z" fill="#fff"/>
    <path d="M868.4,136.2c2.2,2.8,3.4,6.1,3.4,10s-1.1,7.2-3.4,10c-2.2,2.8-5.7,4.2-10.2,4.2s-8-1.4-10.2-4.2c-2.2-2.8-3.4-6.1-3.4-10s1.1-7.2,3.4-10c2.2-2.8,5.7-4.2,10.2-4.2s8,1.4,10.2,4.2ZM858.1,137.9c-2,0-3.6.7-4.7,2.2s-1.6,3.5-1.6,6.2.5,4.7,1.6,6.2c1.1,1.4,2.7,2.2,4.7,2.2s3.6-.7,4.7-2.2c1.1-1.4,1.6-3.5,1.6-6.2s-.5-4.7-1.6-6.2-2.7-2.2-4.7-2.2Z" fill="#fff"/>
    <path d="M889.3,138c-2.4,0-4,1-4.9,3-.5,1.1-.7,2.4-.7,4.1v14.4h-6.9v-26.6h6.7v3.9c.9-1.4,1.7-2.4,2.5-3,1.4-1.1,3.2-1.6,5.4-1.6s5,.7,6.8,2.2c1.7,1.4,2.6,3.8,2.6,7.2v17.9h-7.1v-16.2c0-1.4-.2-2.5-.6-3.2-.7-1.4-2-2.1-3.9-2.1Z" fill="#fff"/>
  </g>
  <g>
    <rect x="585.6" y="546.6" width="332" height="115.7" fill="none"/>
    <path d="M617.4,546.5h7.5v36h-7.5v-36Z" fill="#fff"/>
    <path d="M643.8,561c-2.4,0-4,1-4.9,3-.5,1.1-.7,2.4-.7,4.1v14.4h-6.9v-26.6h6.7v3.9c.9-1.4,1.7-2.4,2.5-3,1.4-1.1,3.2-1.6,5.4-1.6s5,.7,6.8,2.2c1.7,1.4,2.6,3.8,2.6,7.2v17.9h-7.1v-16.2c0-1.4-.2-2.5-.6-3.2-.7-1.4-2-2.1-3.9-2.1Z" fill="#fff"/>
    <path d="M674.3,546.3v5.7c-.4,0-1,0-2-.1-.9,0-1.6.2-1.9.6-.4.4-.5.9-.5,1.4v2.2h4.6v4.9h-4.6v21.5h-6.9v-21.5h-3.9v-4.9h3.8v-1.7c0-2.8.5-4.8,1.4-5.9,1-1.6,3.4-2.4,7.3-2.4s.8,0,1.2,0c.4,0,.8,0,1.5.1Z" fill="#fff"/>
    <path d="M700.7,559.2c2.2,2.8,3.4,6.1,3.4,10s-1.1,7.2-3.4,10-5.7,4.2-10.2,4.2-8-1.4-10.2-4.2-3.4-6.1-3.4-10,1.1-7.2,3.4-10c2.2-2.8,5.7-4.2,10.2-4.2s8,1.4,10.2,4.2ZM690.4,560.9c-2,0-3.6.7-4.7,2.2-1.1,1.4-1.6,3.5-1.6,6.2s.5,4.7,1.6,6.2c1.1,1.4,2.7,2.2,4.7,2.2s3.6-.7,4.7-2.2c1.1-1.4,1.6-3.5,1.6-6.2s-.5-4.7-1.6-6.2c-1.1-1.4-2.7-2.2-4.7-2.2Z" fill="#fff"/>
    <path d="M722.4,562.3c-2.8,0-4.7.9-5.6,2.7-.5,1-.8,2.6-.8,4.7v12.7h-7v-26.6h6.6v4.6c1.1-1.8,2-3,2.8-3.6,1.3-1.1,3-1.6,5.1-1.6s.2,0,.3,0c0,0,.3,0,.6,0v7.1c-.4,0-.8,0-1.2,0-.3,0-.6,0-.8,0Z" fill="#fff"/>
    <path d="M743.4,563.2c-.6-1.3-1.7-1.9-3.4-1.9s-3.3.6-4,1.9c-.4.7-.6,1.8-.6,3.3v16h-7.1v-26.6h6.8v3.9c.9-1.4,1.7-2.4,2.4-3,1.4-1,3.1-1.6,5.2-1.6s3.7.4,4.9,1.3c1,.8,1.8,1.9,2.3,3.2.9-1.6,2-2.7,3.4-3.4,1.4-.7,3-1.1,4.8-1.1s2.3.2,3.5.7c1.1.5,2.2,1.3,3.1,2.4.7.9,1.3,2.1,1.5,3.4.2.9.2,2.2.2,3.9v16.8h-7.2v-16.9c0-1-.2-1.8-.5-2.5-.6-1.2-1.8-1.9-3.4-1.9s-3.2.8-4,2.4c-.4.8-.6,1.9-.6,3.1v15.8h-7v-15.8c0-1.6-.2-2.7-.5-3.4Z" fill="#fff"/>
    <path d="M774,558.8c1.8-2.3,5-3.5,9.5-3.5s5.5.6,7.8,1.7c2.3,1.2,3.4,3.3,3.4,6.5v12.2c0,.8,0,1.9,0,3.1,0,.9.2,1.5.4,1.9.2.3.6.6,1,.8v1h-7.6c-.2-.5-.4-1-.4-1.5,0-.5-.1-1-.2-1.6-1,1-2.1,1.9-3.3,2.7-1.5.9-3.2,1.3-5.1,1.3s-4.4-.7-6-2.1-2.4-3.3-2.4-5.8,1.3-5.6,3.8-7.1c1.4-.8,3.4-1.4,6.1-1.7l2.4-.3c1.3-.2,2.2-.4,2.8-.6,1-.4,1.5-1.1,1.5-2s-.4-1.8-1.1-2.3c-.8-.4-1.9-.6-3.3-.6s-2.8.4-3.5,1.2c-.5.6-.8,1.4-1,2.4h-6.7c.1-2.3.8-4.2,2-5.7ZM779.1,577.5c.7.5,1.4.8,2.4.8,1.5,0,2.9-.4,4.1-1.3s1.9-2.5,2-4.8v-2.6c-.4.3-.9.5-1.3.7-.4.2-1.1.3-1.8.5l-1.6.3c-1.5.3-2.5.6-3.1,1-1.1.6-1.6,1.6-1.6,3s.3,2,1,2.6Z" fill="#fff"/>
    <path d="M813,577.5v5.2h-3.3c-3.3.2-5.5-.3-6.7-1.6-.8-.8-1.2-2-1.2-3.7v-16.4h-3.7v-5h3.7v-7.4h6.9v7.4h4.3v5h-4.3v14.1c0,1.1.1,1.8.4,2,.3.3,1.1.4,2.5.4s.4,0,.7,0c.2,0,.5,0,.7,0Z" fill="#fff"/>
    <path d="M824.6,546.3v6.4h-7.1v-6.4h7.1ZM824.6,555.9v26.6h-7.1v-26.6h7.1Z" fill="#fff"/>
    <path d="M853.5,559.2c2.2,2.8,3.4,6.1,3.4,10s-1.1,7.2-3.4,10-5.7,4.2-10.2,4.2-8-1.4-10.2-4.2-3.4-6.1-3.4-10,1.1-7.2,3.4-10c2.2-2.8,5.7-4.2,10.2-4.2s8,1.4,10.2,4.2ZM843.3,560.9c-2,0-3.6.7-4.7,2.2-1.1,1.4-1.6,3.5-1.6,6.2s.5,4.7,1.6,6.2c1.1,1.4,2.7,2.2,4.7,2.2s3.6-.7,4.7-2.2c1.1-1.4,1.6-3.5,1.6-6.2s-.5-4.7-1.6-6.2c-1.1-1.4-2.7-2.2-4.7-2.2Z" fill="#fff"/>
    <path d="M874.4,561c-2.4,0-4,1-4.9,3-.5,1.1-.7,2.4-.7,4.1v14.4h-6.9v-26.6h6.7v3.9c.9-1.4,1.7-2.4,2.5-3,1.4-1.1,3.2-1.6,5.4-1.6s5,.7,6.8,2.2c1.8,1.4,2.6,3.8,2.6,7.2v17.9h-7.1v-16.2c0-1.4-.2-2.5-.6-3.2-.7-1.4-2-2.1-3.9-2.1Z" fill="#fff"/>
    <path d="M669.2,641.6c-2,1.2-4.4,1.8-7.3,1.8-4.8,0-8.7-1.7-11.7-5-3.2-3.3-4.8-7.9-4.8-13.6s1.6-10.5,4.8-14c3.2-3.5,7.4-5.3,12.7-5.3s8.2,1.2,11,3.5c2.8,2.3,4.4,5.2,4.8,8.7h-7.4c-.6-2.5-2-4.2-4.2-5.2-1.2-.5-2.6-.8-4.1-.8-2.9,0-5.3,1.1-7.1,3.3-1.9,2.2-2.8,5.5-2.8,9.9s1,7.6,3,9.4c2,1.8,4.3,2.8,6.9,2.8s4.6-.7,6.2-2.2,2.6-3.4,3-5.7h-8.3v-6h15v19.3h-5l-.8-4.5c-1.4,1.7-2.8,2.9-3.9,3.6Z" fill="#fff"/>
    <path d="M698.8,622.3c-2.8,0-4.7.9-5.6,2.7-.5,1-.8,2.6-.8,4.7v12.7h-7v-26.6h6.6v4.6c1.1-1.8,2-3,2.8-3.6,1.3-1.1,3-1.6,5.1-1.6s.2,0,.3,0c0,0,.3,0,.6,0v7.1c-.4,0-.8,0-1.2,0-.3,0-.6,0-.8,0Z" fill="#fff"/>
    <path d="M705.9,618.8c1.8-2.3,5-3.5,9.5-3.5s5.5.6,7.8,1.7c2.3,1.2,3.4,3.3,3.4,6.5v12.2c0,.8,0,1.9,0,3.1,0,.9.2,1.5.4,1.9.2.3.6.6,1,.8v1h-7.6c-.2-.5-.4-1-.4-1.5,0-.5-.1-1-.2-1.6-1,1-2.1,1.9-3.3,2.7-1.5.9-3.2,1.3-5.1,1.3s-4.4-.7-6-2.1c-1.6-1.4-2.4-3.3-2.4-5.8s1.3-5.6,3.8-7.1c1.4-.8,3.4-1.4,6.1-1.7l2.4-.3c1.3-.2,2.2-.4,2.8-.6,1-.4,1.5-1.1,1.5-2s-.4-1.8-1.1-2.3c-.8-.4-1.9-.6-3.3-.6s-2.8.4-3.5,1.2c-.5.6-.8,1.4-1,2.4h-6.7c.1-2.3.8-4.2,2-5.7ZM711.1,637.5c.7.5,1.4.8,2.4.8,1.5,0,2.9-.4,4.1-1.3,1.3-.9,1.9-2.5,2-4.8v-2.6c-.4.3-.9.5-1.3.7-.4.2-1.1.3-1.8.5l-1.6.3c-1.5.3-2.5.6-3.1,1-1.1.6-1.6,1.6-1.6,3s.3,2,1,2.6Z" fill="#fff"/>
    <path d="M755,618.7c2.1,2.3,3.2,5.7,3.2,10.1s-1.1,8.3-3.2,10.7c-2.1,2.5-4.8,3.7-8.1,3.7s-3.9-.5-5.3-1.6c-.8-.6-1.5-1.4-2.2-2.6v13.9h-6.9v-37.1h6.7v3.9c.7-1.2,1.5-2.1,2.4-2.7,1.5-1.2,3.4-1.8,5.5-1.8,3.1,0,5.7,1.1,7.9,3.4ZM751,629.2c0-2.1-.5-3.9-1.4-5.4-.9-1.6-2.5-2.4-4.6-2.4s-4.3,1.2-5.2,3.6c-.5,1.3-.7,2.9-.7,4.8,0,3.1.8,5.3,2.5,6.5,1,.7,2.1,1.1,3.5,1.1,1.9,0,3.4-.7,4.4-2.2,1-1.5,1.5-3.5,1.5-6Z" fill="#fff"/>
    <path d="M787.3,626.9v15.6h-7.1v-16.2c0-1.4-.2-2.6-.7-3.5-.6-1.2-1.8-1.9-3.6-1.9s-3.2.6-4.2,1.8c-1,1.2-1.4,3-1.4,5.3v14.4h-6.9v-35.9h6.9v12.7c1-1.5,2.2-2.6,3.5-3.2,1.3-.6,2.7-.9,4.2-.9s3.1.3,4.5.9,2.4,1.4,3.3,2.6c.7,1,1.2,2,1.3,3.1.2,1,.2,2.8.2,5.1Z" fill="#fff"/>
    <path d="M800.9,606.3v6.4h-7.1v-6.4h7.1ZM800.9,615.9v26.6h-7.1v-26.6h7.1Z" fill="#fff"/>
    <path d="M830.7,625.4h-7.1c-.1-1-.5-1.9-1-2.7-.8-1.1-2-1.6-3.6-1.6-2.3,0-3.9,1.2-4.8,3.5-.5,1.2-.7,2.9-.7,4.9s.2,3.5.7,4.7c.8,2.2,2.4,3.3,4.7,3.3s2.8-.4,3.5-1.3,1.1-2,1.2-3.4h7.1c-.2,2.1-.9,4.1-2.3,6-2.2,3-5.4,4.6-9.7,4.6s-7.4-1.3-9.4-3.8-3-5.8-3-9.9,1.1-8.1,3.3-10.7,5.3-3.8,9.2-3.8,6.1.7,8.2,2.2c2.1,1.5,3.4,4.1,3.8,7.9Z" fill="#fff"/>
    <path d="M853.8,617.1c2.1,1.3,3.3,3.6,3.6,6.9h-7c0-.9-.3-1.6-.8-2.1-.8-.9-2.1-1.4-3.9-1.4s-2.6.2-3.2.7c-.6.5-1,1-1,1.7s.3,1.4,1,1.7c.7.4,3.1,1,7.3,1.9,2.8.7,4.8,1.6,6.2,3,1.4,1.3,2.1,3,2.1,5s-1,4.8-2.9,6.5c-2,1.7-5,2.5-9.1,2.5s-7.3-.9-9.3-2.6c-2-1.8-3-4-3-6.8h7.1c.1,1.2.5,2.1,1,2.6.9.9,2.5,1.4,4.8,1.4s2.5-.2,3.3-.6c.8-.4,1.2-1,1.2-1.8s-.3-1.4-1-1.8c-.7-.4-3.1-1.1-7.3-2.1-3-.7-5.1-1.7-6.4-2.8-1.2-1.1-1.9-2.7-1.9-4.8s1-4.6,2.9-6.3,4.6-2.6,8.1-2.6,6,.7,8.1,2Z" fill="#fff"/>
  </g>
  <g>
    <line x1="428.1" y1="296.9" x2="614" y2="478.8" fill="none" stroke="#de1f36" stroke-miterlimit="10" stroke-width="4"/>
    <path d="M581,473.4c.2-1.1,1.3-1.8,2.4-1.5l29.9,6.3-6.9-29.8c-.3-1.1.4-2.2,1.5-2.4s2.2.4,2.4,1.5l7.7,32.9c.2.7,0,1.4-.5,1.9-.5.5-1.2.7-1.8.6l-33-7c-.4,0-.7-.3-1-.5-.5-.5-.7-1.1-.6-1.8Z" fill="#de1f36"/>
  </g>
  <g>
    <line x1="1075.2" y1="297" x2="889.4" y2="478.8" fill="none" stroke="#de1f36" stroke-miterlimit="10" stroke-width="4"/>
    <path d="M895.6,446c1.1.2,1.7,1.3,1.5,2.4l-6.9,29.8,29.9-6.3c1.1-.2,2.1.5,2.4,1.5.2,1.1-.5,2.1-1.5,2.4l-33,7c-.7.1-1.4,0-1.8-.6-.5-.5-.7-1.2-.5-1.9l7.7-32.9c0-.4.3-.7.5-1,.5-.5,1.2-.7,1.9-.5Z" fill="#de1f36"/>
  </g>
  <g>
    <line x1="751.7" y1="234.9" x2="751.7" y2="427.1" fill="none" stroke="#de1f36" stroke-miterlimit="10" stroke-width="4"/>
    <path d="M732.5,399.8c.9-.6,2.2-.3,2.8.6l16.4,25.8,16.4-25.8c.6-.9,1.8-1.2,2.8-.6s1.2,1.8.6,2.8l-18.1,28.5c-.4.6-1,.9-1.7.9s-1.3-.3-1.7-.9l-18.1-28.5c-.2-.3-.3-.7-.3-1.1,0-.7.3-1.3.9-1.7Z" fill="#de1f36"/>
  </g>
</svg>